<?xml version="1.0" encoding="UTF-8"?><svg id="OBJECTS" xmlns="http://www.w3.org/2000/svg" viewBox="0 0 650 517"><defs><style>.cls-1,.cls-2{stroke-width:0px;}.cls-2{fill:#fff;}</style></defs><path class="cls-2" d="m97.36,285.73c1.02.03,2.16-.23,3.04.14,3.08,1.31,6.1,2.78,9.09,4.3,4.37,2.23,9.08,2.55,13.84,2.7,1.31.05,3.32-.46,3.42,1.37.1,1.95-1.93,1.49-3.24,1.56-1.06.06-2.12.01-3.23.01-5.89.7-10.94-1.65-15.84-4.58-1.69-1.01-3.51-1.82-5.11-2.95-.84-.6-1.32-1.69-1.97-2.55Z"/><path class="cls-2" d="m124.89,291.52c-.79-.41-1.56-.84-2.34-1.27.83-.38,1.64-.96,2.51-1.11,1.56-.26,3.16-.35,4.74-.3.56.01,1.1.64,1.64.99-.55.45-1.05,1.18-1.67,1.31-1.46.29-2.99.3-4.05.39-.57,0-.73.05-.83-.01Z"/><path class="cls-2" d="m531.76,334.67c-.81.04-1.72-.14-2.4.17-5.63,2.55-11.24,5.16-16.8,7.85-.65.31-1.02,1.21-1.52,1.84.78.03,1.67.31,2.31.03,5.71-2.52,11.38-5.13,17.04-7.77.6-.28,1.04-.88,1.56-1.34-.07-.26-.13-.52-.19-.78Zm.22,9.05c-.1-.31-.68-.47-.97-.64-3.26,1.01-6.35,1.93-9.41,2.95-.32.11-.71.94-.59,1.2.21.42.93,1.02,1.23.92,3.14-1,6.25-2.11,9.34-3.26.26-.1.51-.85.4-1.17Zm113.59,38.16c-3.71-6.83-7.55-13.59-11.27-20.42-2.63-4.83-5.03-9.79-7.75-14.55-2.88-5.03-5.83-10.04-9.1-14.81-4.17-6.07-8.71-11.89-13.05-17.84-.44-.61-.74-1.38-.9-2.12-.92-4.12-1.21-8.48-2.77-12.32-3.23-8-7.14-15.73-10.74-23.58-.85-1.85-1.6-3.75-2.39-5.63.19-.08.38-.17.57-.26,6.51,8.46,12.84,17.04,17.68,26.59,3.38,6.67,5.89,13.68,7.27,21.08.2,1.06,1.01,2.01,1.55,3.02.4-1.09.84-2.17,1.18-3.28.11-.35,0-.8-.1-1.18-.99-3.89-1.87-7.8-3.02-11.64-2.51-8.39-6.94-15.85-11.82-23-4.31-6.32-9.03-12.37-13.64-18.49-3.5-4.64-4.9-9.32-1.41-14.71.8-1.24,1.29-1.91,2.78-1.77.48.05,1.02-.58,1.53-.9-.4-.46-.76-.98-1.24-1.35-.26-.21-.72-.17-1.61-.36.88-.98,1.42-2.11,2.25-2.38,1.57-.51,3.33-.45,4.97-.8.71-.15,1.33-.74,1.98-1.13-.75-.6-1.43-1.55-2.26-1.7-1.32-.24-2.8-.17-4.09.19-1.58.44-1.5-.33-1.55-1.4-.19-3.75-1.12-7.66-4.2-9.65-2.91-1.89-3.24-3.61-3.04-6.77.3-4.59-.1-9.3-.8-13.87-1.28-8.24-5.91-14.29-13.28-18.19-2.48-1.31-5.02-2.49-8.1-4.01,2.76,0,4.88.05,6.99-.02.77-.03,1.52-.36,2.27-.55-.55-.65-1.04-1.38-1.69-1.92-.37-.31-1-.44-1.51-.42-4.13.16-8.26.37-12.44.57,1.19-1.02,2.49-2.37,4.02-3.37,3.36-2.19,7-3.57,11.15-2.96.81.12,1.66-.06,2.49-.1-.56-.8-1.01-1.71-1.71-2.35-.43-.39-1.23-.45-1.87-.49-7.07-.45-12.47,2.59-16.84,7.94-.56.68-1.8,1.21-2.69,1.16-7.09-.38-14.17-1.05-21.26-1.35-3.07-.13-6.18.37-9.26.64-7.83.68-15.41,2.22-22.12,6.64-3.28,2.16-6.02,4.67-6.52,8.9-.25,2.08-.52,4.21-1.13,6.21-1.07,3.53-2.49,6.96-3.6,10.48-.36,1.16-.69,1.49-2,1.44-1.43-.04-3.05.31-4.31,1-3.38,1.84-5.41,4.91-6.86,8.41-2.76,6.64-2.59,13.01,1.62,19.06.27.38.41,1.01.31,1.45-2.73,11.59,1.82,20.38,11.17,26.65,4.91,3.29,10.65,5.4,16.15,7.74,1.95.83,1.83,2.13,1.62,3.49-.07.43-1.34.7-2.08.99-.36.14-.78.14-1.16.23-9.44,2.35-16.66,8.11-22.05,15.8-4.29,6.12-7.5,12.98-10.88,18.97-1.43-5.2-2.82-10.92-4.62-16.5-.85-2.63-1.92-5.79-3.94-7.32-3.12-2.35-7.02-3.87-10.8-5.09-5.93-1.93-12.11-3.07-18.04-5-7.29-2.37-14.36-5.43-21.67-7.72-3-.94-3.42-2.71-3.5-5.17-.17-5.13-1.77-9.55-8.4-11.29-.35-.09-.92-.51-.89-.7.69-4.74,1.4-9.47,2.21-14.19.24-1.42.72-2.82,1.24-4.17.18-.45.81-1.01,1.26-1.03,1.95-.08,3.94.26,5.86.03,6.48-.79,12.39-3.46,17.27-7.53,3.19-2.66,5.54-6.56,7.57-10.28,2.18-4,3.47-8.86.3-12.71-2.55-3.1-1.93-5.17-.35-8.15,3.27-6.14,4.71-12.9,5.61-19.73.69-5.16.86-10.35-1.47-15.23-2.29-4.76-5.8-8.51-10-11.66-.39-.28-.67-.71-1-1.07.46-.11.94-.34,1.39-.3,2.29.21,4.58.55,6.87.68.69.04,1.4-.44,2.1-.68-.45-.41-.84-.98-1.37-1.22-.71-.32-1.53-.44-2.31-.55-2.15-.31-4.31-.58-6.46-.87,5.17-2.03,10.28-3.76,15.62-.97.36.19,1.23.09,1.38-.16.24-.41.32-1.3.05-1.56-.73-.72-1.61-1.43-2.56-1.76-7.04-2.43-13.46-.19-19.8,2.7-.82.38-2.03.52-2.84.21-4.81-1.88-9.46-4.24-14.36-5.84-8.9-2.89-18.02-5.01-27.32-6.22-.48-.06-.88-.7-1.34-1.02-1.82-1.25-3.51-2.82-5.5-3.65-4.73-1.96-9.62-1.68-14.47-.21-5.46,1.66-10.57,3.77-13.05,9.56-1.01,2.35-1.97,4.79-3.39,6.89-2.61,3.91-5.56,7.59-8.35,11.38-3.8,5.17-5.54,10.89-4.59,17.31.22,1.45,1.03,2.9.92,4.3-.36,4.51-1.08,8.99-1.56,13.49-1.07,9.86-.3,19.67.56,29.5.63,7.12.76,14.28,3.72,20.96,1.32,2.98,2.2,6.19,5.33,8.01,5.07,2.95,10.59,4.57,16.31,5.61,1.19.22,2.52.26,2.3,2.02-.21,1.67.76,3.63-1.95,4.51-8.88,2.88-16.27,8.38-23.6,13.94-1.23.94-1.88,2.03-1.7,3.75.14,1.33-.34,2.72-.54,4.04-1.39-2.82-2.64-5.56-4.08-8.2-2.19-3.99-5.19-7.16-9.75-8.43-4.47-1.24-8.95-2.54-13.49-3.5-4.94-1.05-10.06-1.38-14.91-2.73-4.14-1.15-8.12-3.09-11.97-5.07-3.46-1.77-5.85-4.48-5.53-8.88.3-4.16.29-8.35.5-12.53.02-.36.6-.75.99-1.02,3.5-2.49,7.29-4.65,10.48-7.49,6.86-6.07,10.82-13.66,9.78-23.09-.74-6.7-1.73-13.39-3-20.01-1.31-6.83-3.05-13.58-4.69-20.34-.78-3.24-1.56-6.51-2.7-9.64-2.25-6.16-5.63-11.73-9.63-16.92-3.4-4.4-7.56-7.94-12.83-9.71-5.79-1.94-11.67-2.42-17.64-.16-6.53,2.46-13.55,3.84-19.73,6.94-7.01,3.5-13.71,7.91-19.83,12.81-6.18,4.94-11.89,10.68-12.77,19.39-.32,3.19-.9,6.31,1.31,9.15.62.8.78,1.96,1.28,2.88.57,1.03.35,1.55-.63,2.24-2.37,1.67-4.15,3.84-4.66,6.83-1.07,6.27-.38,12.38,2.22,18.14.99,2.21,2.47,4.51,4.36,5.92,2.8,2.09,6.05,3.71,9.31,5,3.38,1.34,7.04,2.07,10.53.11,1.46-.82,2.16-.4,2.84,1,.63,1.3,1.56,2.44,2.37,3.65,1.78,2.71,4.64,4.53,4.51,8.6-.24,7.82-.39,15.49-5.35,22.11-1.28,1.71-2.06,4.06-3.7,5.18-5.81,3.96-12.51,5.76-19.39,6.87-3.1.5-6.28.56-9.33,1.24-5.52,1.23-11.03,2.57-16.43,4.24-6.75,2.09-12.38,5.91-16.4,11.89-.37.54-1.26.73-1.91,1.08-.31-.77-.96-1.58-.87-2.31.28-2.47.73-4.93,1.3-7.36.59-2.44,1.43-4.35,4.35-5.46,5.47-2.07,10.94-4.26,15.06-8.98,4.24-4.86,6.74-10.3,7.79-16.54,1.24-7.32.53-14.66-.2-21.94-.62-6.21-1.81-12.37-3.05-18.49-2.77-13.63-8.67-25.54-19.75-34.45-.17-.14-.14-.8.03-1.05,2.58-3.82,5.19-7.61,5.36-12.45.08-2.08-1.33-3.2-3.37-2.78-3.1.64-6.2,1.53-9.34,1.72-2.67.16-5.94.34-8.01-.96-6.21-3.91-14.21-4.16-20.17.64-4.17,3.35-8.09,7.01-12.18,10.45-2.15,1.81-4.21,4.05-6.73,5.03-6.6,2.58-12.97,5.46-18.89,9.4-5.44,3.63-9.52,8.35-12.09,14.32-1.65,3.83-.98,7.75.04,11.62.1.36.06.75.09,1.12-.35-.08-.71-.16-1.05-.25-1.97-.49-3.95-1.43-5.9-1.38-2.2.06-4.42.91-6.54,1.67-.43.16-.47,1.43-.69,2.19.77.07,1.68.44,2.3.16,3.83-1.73,7.03.19,10.81,1.44-2.17.21-3.94.1-5.53.59-5.3,1.63-10.97,9.57-10.82,15.11.02.82.86,1.63,1.32,2.45.57-.47,1.4-.82,1.67-1.42.72-1.6.99-3.42,1.82-4.95,1.93-3.57,4.07-7.08,8.66-7.63,1.39-.16,2.81.04,4.22.08-.43.98-.87,1.96-1.29,2.95-.2.48-.36.97-.55,1.46-1.44,3.73-2.41,7.49-1.1,11.51,1.5,4.61,4.7,8.01,8.75,10.03,3.72,1.85,5.86,4.22,7.53,8,2.74,6.2,8.01,9.68,14.81,10.63,1.71.24,2.55.69,1.08,2.42-1.18,1.4-2.29,2.91-3.19,4.5-.56.99-1.24,2.58-.83,3.29.57.98,2.12,1.93,3.26,1.94,2.39.04,4.8-.47,7.18-.91,1.3-.25,2.53-1.13,3.81-1.18,1.49-.07,2.99.46,4.55.74-.61,1.24-1.24,2.85-2.15,4.27-1.25,1.94-3.1-.41-4.59.42-.13.08-.38-.1-.58-.09-4.59.15-7.62,2.78-6.76,6.37.49,2.09-.46,2.23-1.81,2.57-2.41.6-4.37,1.93-4.58,4.5-.15,1.75-.98,2.22-2.31,2.32-4.26.31-8.52.74-12.77.76-5.44.02-10.19,1.28-13.82,5.65-5.84,7.04-10.42,14.86-14.54,22.99-2.74,5.41-5.38,10.88-8.39,16.14-5.59,9.8-11.26,19.56-17.19,29.16-3.91,6.33-8.36,12.34-12.48,18.54-.7,1.06-.99,2.39-1.47,3.6h40.03c5.57-7.67,11.14-15.35,16.84-23.2-.68,8.02-1.81,15.8-4.83,23.2h416.37c-.15-2.78-.79-8.53-1.45-11.21-.86-3.48.66-6.11,2.22-8.85,4.34-7.61,8.65-15.22,12.97-22.83.02-.04.04-.07.07-.11,2,3.43,4.02,7.1,6.25,10.64,2.28,3.63,5.82,5.88,9.41,8.03.74.44,1.57,1.13,1.82,1.88,1.91,5.74,3.76,11.5,5.44,17.32.46,1.61.27,3.41.39,5.13h3.2c-.02-7.49-2.16-14.41-5.44-21.07-.23-.45.45-1.28.4-1.91-.07-.79-.22-1.87-.75-2.27-2.01-1.49-4.27-2.63-6.28-4.11-4.96-3.67-8.34-8.61-10.16-14.4-1.57-5-.73-10.22-.06-15.34.26-1.96.23-4.09,1.03-5.82,1.37-2.96,2.95-5.95,5.03-8.43,5.07-6.03,8.37-13.01,11.68-20.03.9-1.9,1.83-3.8,2.93-5.59.31-.51,1.25-.78,1.94-.89,4.43-.73,4.09-.48,5.44,3.63,2.19,6.68,5.01,13.14,7.66,19.65.74,1.83,1.89,3.48,2.73,5.28.16.34-.21.99-.44,1.45-.84,1.74-1.99,3.39-2.54,5.22-.69,2.33.49,4.09,2.63,5.14,1.56.76,4.59-.01,5.86-1.41,2.88-3.18,3.16-6.59.95-10.25-.26-.44-.23-1.35.06-1.77,3.24-4.57,6.56-9.08,9.83-13.64,4.19-5.85,8.3-11.76,10.52-18.73.13-.39,1.01-.94,1.11-.86,4.47,3.51,9.61,3.13,14.78,2.64.25-.03.5-.03.52-.03-1.41,4.38-3.06,8.74-4.22,13.22-2.35,9.1-3.35,18.4-1.57,27.68.76,4.01,2.13,8.09,5.92,10.74,3.93,2.75,6.7,3.1,10.77-.9-.92,4.71-1.57,9.49-2.82,14.11-2.21,8.07-4.79,16.05-7.21,24.07-1.18,3.88-3.54,10.71-4.62,14.62h2.56c.63-.25,1.28-1.26,1.53-1.68.85-1.43,1.42-3.07,1.9-4.68,1.36-4.59,2.66-9.2,3.89-13.83.35-1.32,1.01-1.88,2.33-2.15,2.27-.46,4.54-.99,6.71-1.78,4.12-1.5,5.19-3.31,4.94-7.64-.03-.55,0-1.1,0-1.65.21-.04.42-.09.63-.13.48,1.66,1.07,3.3,1.43,4.99.85,4.01,2.69,4.9,6.07,2.65,1.48-.99,2.72-2.34,4.22-3.66,2.68,3.68,5.72,7.73,8.61,11.89,3.74,5.36,7.36,10.8,11.01,16.22.29.42.38.96.56,1.45h26.02c-.9-2.03-1.68-4.12-2.73-6.07Zm-224.95-37.7c-.62-.1-1.33.27-1.93.13-.73-.17-1.8-.49-1.99-1.01-.57-1.52.46-1.91,1.79-1.82.33.02.66,0,1,0,.01-.05.02-.11.03-.16.79.19,1.59.37,2.39.56-.29.84,1.34,2.72-1.29,2.3Zm-274.17-59.06c1.18-1,1.89-2.75,4.01-2.06.33.11,1.13-.5,1.36-.95.93-1.78,2.42-1.68,4.05-1.52,1.3.12,2.63.03,4.02.03-1.86,5.25-6.3,7.15-11.13,8.45-.77.21-1.98.15-2.48-.32-1.2-1.1-1.25-2.43.17-3.63Zm.09,14.08c2.07,2.26,2.76,5.05,2.91,8.09-.23,1.12-.46,2.24-.69,3.36-1.03-.57-2.2-.98-3.06-1.74-2.4-2.14-4.61-4.55-3.76-8.11.28-1.14,1.42-2.19,2.41-2.96.24-.19,1.61.72,2.19,1.36Zm-4.16-10.2c1.77,1.93,1.05,5.96-1.4,6.86-.36.13-.83,0-1.25-.01.03-.43-.06-.9.1-1.27.82-1.88,1.7-3.73,2.55-5.58Zm-50.71-1.35c2.88-1.02,4.76-2.41,2.75-5.99-.26-.48.11-1.76.59-2.12.95-.7,2.18-1.02,3.3-1.5-.7,1.96-1.28,2.81,1.37,3.33,2.56.49,4.78,2.61,7.34,3.22,4.5,1.07,9.12,1.84,13.74,2.16,3.91.27,7.89-.19,11.83-.5,1.6-.13,3.16-.74,4.74-1.13.02,3,.34,5.98-1.59,8.65-.4.55-.14,1.84.22,2.6.87,1.84.3,3-1.55,3.13-3.63.25-7.31.56-10.91.19-5.96-.6-11.96-1.32-17.76-2.74-5.01-1.22-9.79-3.43-14.61-5.34-1.05-.41-1.87-1.39-2.79-2.12,1.1-.62,2.15-1.42,3.33-1.84Zm459.95-10.46c-8.23,3.77-16.72,6.75-25.69,8.11-1.95.3-3.99.15-5.98.01-.57-.04-1.09-.74-1.63-1.15.54-.5,1.06-1.42,1.62-1.45,7.61-.39,14.25-3.68,20.8-7.06,3.54-1.83,6.83-4.15,10.25-6.25.4,2.18.86,4.54,1.24,6.91.04.26-.32.75-.61.88Z"/><path class="cls-2" d="m569.77,336.05c-3.79-2.65-5.16-6.73-5.92-10.74-1.78-9.28-.78-18.58,1.57-27.68,1.16-4.48,2.81-8.84,4.22-13.22-.02,0-.27,0-.52.03-5.17.49-10.31.87-14.78-2.64-.1-.08-.98.47-1.11.86-2.22,6.97-6.33,12.88-10.52,18.73-3.27,4.56-6.59,9.07-9.83,13.64-.29.42-.32,1.33-.06,1.77,2.21,3.66,1.93,7.07-.95,10.25-1.27,1.4-4.3,2.17-5.86,1.41-2.14-1.05-3.32-2.81-2.63-5.14.55-1.83,1.7-3.48,2.54-5.22.23-.46.6-1.11.44-1.45-.84-1.8-1.99-3.45-2.73-5.28-2.65-6.51-5.47-12.97-7.66-19.65-1.35-4.11-1.01-4.36-5.44-3.63-.69.11-1.63.38-1.94.89-1.1,1.79-2.03,3.69-2.93,5.59-3.31,7.02-6.61,14-11.68,20.03-2.08,2.48-3.66,5.47-5.03,8.43-.8,1.73-.77,3.86-1.03,5.82-.67,5.12-1.51,10.34.06,15.34,1.82,5.79,5.2,10.73,10.16,14.4,2.01,1.48,4.27,2.62,6.28,4.11.53.4.68,1.48.75,2.27.05.63-.63,1.46-.4,1.91,3.28,6.66,5.42,13.58,5.44,21.07h55.68c1.08-3.91,3.44-10.74,4.62-14.62,2.42-8.02,5-16,7.21-24.07,1.25-4.62,1.9-9.4,2.82-14.11-4.07,4-6.84,3.65-10.77.9Zm-58.73,8.48c.5-.63.87-1.53,1.52-1.84,5.56-2.69,11.17-5.3,16.8-7.85.68-.31,1.59-.13,2.4-.17.06.26.12.52.19.78-.52.46-.96,1.06-1.56,1.34-5.66,2.64-11.33,5.25-17.04,7.77-.64.28-1.53,0-2.31-.03Zm20.54.36c-3.09,1.15-6.2,2.26-9.34,3.26-.3.1-1.02-.5-1.23-.92-.12-.26.27-1.09.59-1.2,3.06-1.02,6.15-1.94,9.41-2.95.29.17.87.33.97.64.11.32-.14,1.07-.4,1.17Z"/><path class="cls-1" d="m645.57,381.88c-3.71-6.83-7.55-13.59-11.27-20.42-2.63-4.83-5.03-9.79-7.75-14.55-2.88-5.03-5.83-10.04-9.1-14.81-4.17-6.07-8.71-11.89-13.05-17.84-.44-.61-.74-1.38-.9-2.12-.92-4.12-1.21-8.48-2.77-12.32-3.23-8-7.14-15.73-10.74-23.58-.85-1.85-1.6-3.75-2.39-5.63.19-.08.38-.17.57-.26,6.51,8.46,12.84,17.04,17.68,26.59,3.38,6.67,5.89,13.68,7.27,21.08.2,1.06,1.01,2.01,1.55,3.02.4-1.09.84-2.17,1.18-3.28.11-.35,0-.8-.1-1.18-.99-3.89-1.87-7.8-3.02-11.64-2.51-8.39-6.94-15.85-11.82-23-4.31-6.32-9.03-12.37-13.64-18.49-3.5-4.64-4.9-9.32-1.41-14.71.8-1.24,1.29-1.91,2.78-1.77.48.05,1.02-.58,1.53-.9-.4-.46-.76-.98-1.24-1.35-.26-.21-.72-.17-1.61-.36.88-.98,1.42-2.11,2.25-2.38,1.57-.51,3.33-.45,4.97-.8.71-.15,1.33-.74,1.98-1.13-.75-.6-1.43-1.55-2.26-1.7-1.32-.24-2.8-.17-4.09.19-1.58.44-1.5-.33-1.55-1.4-.19-3.75-1.12-7.66-4.2-9.65-2.91-1.89-3.24-3.61-3.04-6.77.3-4.59-.1-9.3-.8-13.87-1.28-8.24-5.91-14.29-13.28-18.19-2.48-1.31-5.02-2.49-8.1-4.01,2.76,0,4.88.05,6.99-.02.77-.03,1.52-.36,2.27-.55-.55-.65-1.04-1.38-1.69-1.92-.37-.31-1-.44-1.51-.42-4.13.16-8.26.37-12.44.57,1.19-1.02,2.49-2.37,4.02-3.37,3.36-2.19,7-3.57,11.15-2.96.81.12,1.66-.06,2.49-.1-.56-.8-1.01-1.71-1.71-2.35-.43-.39-1.23-.45-1.87-.49-7.07-.45-12.47,2.59-16.84,7.94-.56.68-1.8,1.21-2.69,1.16-7.09-.38-14.17-1.05-21.26-1.35-3.07-.13-6.18.37-9.26.64-7.83.68-15.41,2.22-22.12,6.64-3.28,2.16-6.02,4.67-6.52,8.9-.25,2.08-.52,4.21-1.13,6.21-1.07,3.53-2.49,6.96-3.6,10.48-.36,1.16-.69,1.49-2,1.44-1.43-.04-3.05.31-4.31,1-3.38,1.84-5.41,4.91-6.86,8.41-2.76,6.64-2.59,13.01,1.62,19.06.27.38.41,1.01.31,1.45-2.73,11.59,1.82,20.38,11.17,26.65,4.91,3.29,10.65,5.4,16.15,7.74,1.95.83,1.83,2.13,1.62,3.49-.07.43-1.34.7-2.08.99-.36.14-.78.14-1.16.23-9.44,2.35-16.66,8.11-22.05,15.8-4.29,6.12-7.5,12.98-10.88,18.97-1.43-5.2-2.82-10.92-4.62-16.5-.85-2.63-1.92-5.79-3.94-7.32-3.12-2.35-7.02-3.87-10.8-5.09-5.93-1.93-12.11-3.07-18.04-5-7.29-2.37-14.36-5.43-21.67-7.72-3-.94-3.42-2.71-3.5-5.17-.17-5.13-1.77-9.55-8.4-11.29-.35-.09-.92-.51-.89-.7.69-4.74,1.4-9.47,2.21-14.19.24-1.42.72-2.82,1.24-4.17.18-.45.81-1.01,1.26-1.03,1.95-.08,3.94.26,5.86.03,6.48-.79,12.39-3.46,17.27-7.53,3.19-2.66,5.54-6.56,7.57-10.28,2.18-4,3.47-8.86.3-12.71-2.55-3.1-1.93-5.17-.35-8.15,3.27-6.14,4.71-12.9,5.61-19.73.69-5.16.86-10.35-1.47-15.23-2.29-4.76-5.8-8.51-10-11.66-.39-.28-.67-.71-1-1.07.46-.11.94-.34,1.39-.3,2.29.21,4.58.55,6.87.68.69.04,1.4-.44,2.1-.68-.45-.41-.84-.98-1.37-1.22-.71-.32-1.53-.44-2.31-.55-2.15-.31-4.31-.58-6.46-.87,5.17-2.03,10.28-3.76,15.62-.97.36.19,1.23.09,1.38-.16.24-.41.32-1.3.05-1.56-.73-.72-1.61-1.43-2.56-1.76-7.04-2.43-13.46-.19-19.8,2.7-.82.38-2.03.52-2.84.21-4.81-1.88-9.46-4.24-14.36-5.84-8.9-2.89-18.02-5.01-27.32-6.22-.48-.06-.88-.7-1.34-1.02-1.82-1.25-3.51-2.82-5.5-3.65-4.73-1.96-9.62-1.68-14.47-.21-5.46,1.66-10.57,3.77-13.05,9.56-1.01,2.35-1.97,4.79-3.39,6.89-2.61,3.91-5.56,7.59-8.35,11.38-3.8,5.17-5.54,10.89-4.59,17.31.22,1.45,1.03,2.9.92,4.3-.36,4.51-1.08,8.99-1.56,13.49-1.07,9.86-.3,19.67.56,29.5.63,7.12.76,14.28,3.72,20.96,1.32,2.98,2.2,6.19,5.33,8.01,5.07,2.95,10.59,4.57,16.31,5.61,1.19.22,2.52.26,2.3,2.02-.21,1.67.76,3.63-1.95,4.51-8.88,2.88-16.27,8.38-23.6,13.94-1.23.94-1.88,2.03-1.7,3.75.14,1.33-.34,2.72-.54,4.04-1.39-2.82-2.64-5.56-4.08-8.2-2.19-3.99-5.19-7.16-9.75-8.43-4.47-1.24-8.95-2.54-13.49-3.5-4.94-1.05-10.06-1.38-14.91-2.73-4.14-1.15-8.12-3.09-11.97-5.07-3.46-1.77-5.85-4.48-5.53-8.88.3-4.16.29-8.35.5-12.53.02-.36.6-.75.99-1.02,3.5-2.49,7.29-4.65,10.48-7.49,6.86-6.07,10.82-13.66,9.78-23.09-.74-6.7-1.73-13.39-3-20.01-1.31-6.83-3.05-13.58-4.69-20.34-.78-3.24-1.56-6.51-2.7-9.64-2.25-6.16-5.63-11.73-9.63-16.92-3.4-4.4-7.56-7.94-12.83-9.71-5.79-1.94-11.67-2.42-17.64-.16-6.53,2.46-13.55,3.84-19.73,6.94-7.01,3.5-13.71,7.91-19.83,12.81-6.18,4.94-11.89,10.68-12.77,19.39-.32,3.19-.9,6.31,1.31,9.15.62.8.78,1.96,1.28,2.88.57,1.03.35,1.55-.63,2.24-2.37,1.67-4.15,3.84-4.66,6.83-1.07,6.27-.38,12.38,2.22,18.14.99,2.21,2.47,4.51,4.36,5.92,2.8,2.09,6.05,3.71,9.31,5,3.38,1.34,7.04,2.07,10.53.11,1.46-.82,2.16-.4,2.84,1,.63,1.3,1.56,2.44,2.37,3.65,1.78,2.71,4.64,4.53,4.51,8.6-.24,7.82-.39,15.49-5.35,22.11-1.28,1.71-2.06,4.06-3.7,5.18-5.81,3.96-12.51,5.76-19.39,6.87-3.1.5-6.28.56-9.33,1.24-5.52,1.23-11.03,2.57-16.43,4.24-6.75,2.09-12.38,5.91-16.4,11.89-.37.54-1.26.73-1.91,1.08-.31-.77-.96-1.58-.87-2.31.28-2.47.73-4.93,1.3-7.36.59-2.44,1.43-4.35,4.35-5.46,5.47-2.07,10.94-4.26,15.06-8.98,4.24-4.86,6.74-10.3,7.79-16.54,1.24-7.32.53-14.66-.2-21.94-.62-6.21-1.81-12.37-3.05-18.49-2.77-13.63-8.67-25.54-19.75-34.45-.17-.14-.14-.8.03-1.05,2.58-3.82,5.19-7.61,5.36-12.45.08-2.08-1.33-3.2-3.37-2.78-3.1.64-6.2,1.53-9.34,1.72-2.67.16-5.94.34-8.01-.96-6.21-3.91-14.21-4.16-20.17.64-4.17,3.35-8.09,7.01-12.18,10.45-2.15,1.81-4.21,4.05-6.73,5.03-6.6,2.58-12.97,5.46-18.89,9.4-5.44,3.63-9.52,8.35-12.09,14.32-1.65,3.83-.98,7.75.04,11.62.1.36.06.75.09,1.12-.35-.08-.71-.16-1.05-.25-1.97-.49-3.95-1.43-5.9-1.38-2.2.06-4.42.91-6.54,1.67-.43.16-.47,1.43-.69,2.19.77.07,1.68.44,2.3.16,3.83-1.73,7.03.19,10.81,1.44-2.17.21-3.94.1-5.53.59-5.3,1.63-10.97,9.57-10.82,15.11.02.82.86,1.63,1.32,2.45.57-.47,1.4-.82,1.67-1.42.72-1.6.99-3.42,1.82-4.95,1.93-3.57,4.07-7.08,8.66-7.63,1.39-.16,2.81.04,4.22.08-.43.98-.87,1.96-1.29,2.95-.2.48-.36.97-.55,1.46-1.44,3.73-2.41,7.49-1.1,11.51,1.5,4.61,4.7,8.01,8.75,10.03,3.72,1.85,5.86,4.22,7.53,8,2.74,6.2,8.01,9.68,14.81,10.63,1.71.24,2.55.69,1.08,2.42-1.18,1.4-2.29,2.91-3.19,4.5-.56.99-1.24,2.58-.83,3.29.57.98,2.12,1.93,3.26,1.94,2.39.04,4.8-.47,7.18-.91,1.3-.25,2.53-1.13,3.81-1.18,1.49-.07,2.99.46,4.55.74-.61,1.24-1.24,2.85-2.15,4.27-1.25,1.94-3.1-.41-4.59.42-.13.08-.38-.1-.58-.09-4.59.15-7.62,2.78-6.76,6.37.49,2.09-.46,2.23-1.81,2.57-2.41.6-4.37,1.93-4.58,4.5-.15,1.75-.98,2.22-2.31,2.32-4.26.31-8.52.74-12.77.76-5.44.02-10.19,1.28-13.82,5.65-5.84,7.04-10.42,14.86-14.54,22.99-2.74,5.41-5.38,10.88-8.39,16.14-5.59,9.8-11.26,19.56-17.19,29.16-3.91,6.33-8.36,12.34-12.48,18.54-.7,1.06-.99,2.39-1.47,3.6h3.2c.9-1.18,1.86-2.3,2.67-3.54,2.97-4.57,5.99-9.11,8.81-13.77,4.85-8.02,9.73-16.04,14.28-24.23,5.61-10.1,10.67-20.51,16.39-30.54,3.73-6.53,7.17-13.39,12.92-18.53,1.02-.92,2.58-1.71,3.91-1.75,6.26-.14,12.55.16,18.64-1.73.82-.25,1.59-.69,2.42-.86.69-.14,1.45-.1,2.15.02.82.15,1.59.52,2.4.69,2.45.53,3.47,2.4,4.16,4.48,2.41,7.22,1.04,14.42-.45,21.55-.63,3.01-1.83,5.91-2.97,8.78-.24.62-1.31,1.23-2.04,1.28-2.01.15-4.05-.03-6.08-.03-1.09,0-1.69-.25-1.7-1.57-.03-1.97-1.27-2.83-3.18-2.62-1.83.2-3.73.29-5.46.85-.74.25-1.17,1.54-1.68,2.39-.24.41-.3,1.29-.53,1.32-1.86.25-2.25,1.44-2.38,3.06-.7,8.37-1.69,16.71-2.1,25.09-.23,4.57,1.27,6.08,5.56,7.51,6.66,2.22,13.24,2.21,19.7-.86.45-.21,1.23-.04,1.72.22.56.3.89,1.1,1.46,1.31.76.29,1.65.22,2.48.31.08-.77.5-1.75.17-2.29-.97-1.62-2.08-3.22-3.41-4.54-1.38-1.38-.97-2.41-.09-3.78,2.48-3.88,4.95-7.79,7.26-11.79,1.02-1.77.78-3.61-1.13-4.83-2.1-1.34-4.26-2.59-6.35-3.94-.33-.22-.7-.95-.57-1.19,3.21-6.27,5.05-12.93,5.89-19.9.71-5.92.62-11.74-1.87-17.76,1.05.32,1.7.49,2.34.71,2.68.93,5.38,1.82,8.03,2.84.47.19,1.04.98,1.01,1.44-.41,5.54-.72,11.09-1.47,16.59-.89,6.47-2.17,12.89-3.3,19.32-2.1,11.89-4.23,23.76-6.32,35.65-.85,4.87-1.62,9.76-2.43,14.64h16.81c.39-3,.67-6.03,1.21-9,.16-.86.95-1.69,1.63-2.35,1.66-1.59,3.36-3.14,5.16-4.57,2.92-2.31,3.64-5.15,2.53-8.63-.72-2.26-1.35-4.55-1.86-6.86-.12-.55.18-1.53.62-1.83,3.82-2.56,7.72-5.02,12-7.76-.68,3.75-1.42,6.96-1.82,10.2-.38,3.14-.71,6.33-.55,9.47.2,3.78,3.21,5.46,6.25,6.93,3.18,1.54,6.47,2.1,9.96,1.53.25-.04.61.22.81.44.15.16.04.62.19.73,3.29,2.17.25,4.1-.26,6.08-.49,1.91-1.22,3.75-1.85,5.62h4.01c2.01-4.32,4.03-8.65,6.18-13.26,1.46,4.6,2.84,8.93,4.22,13.26h3.61c-1.53-4.4-2.86-8.89-4.65-13.18-1.1-2.67-.89-4.88.72-7.09,4.56-6.27,6.01-13.21,4.96-20.87-.91-6.61-.01-13.18,1.3-19.69.13-.61-.2-1.32-.32-1.98-.71.5-1.87.88-2.05,1.53-.83,3.11-1.4,6.3-2.06,9.46-.07.36-.16.71-.24,1.07-.36-.18-.7-.44-1.08-.53-2.11-.44-4.22-.85-6.34-1.26-1.76-.35-3.52-.78-5.31-.95-.94-.09-1.93.48-2.89.44-2.84-.12-5.67-.35-8.49-.65-.3-.03-.74-.81-.73-1.25,0-3.59,0-7.19.2-10.78.31-5.98.66-11.96,1.24-17.91.11-1.12,1.38-2.13,2.3-3.46-.32,7.72,4.87,11.73,10.06,12.99,1.05.26,2.38-.08,3.41-.53.46-.2.5-1.36.72-2.09-1.61-.51-.79-1.68-.84-2.71-.12-2.66-.44-5.31-.7-8.15,4.53,1.82,9.33,3.56,13.94,5.7,2.44,1.13,4.1,3.05,4.57,6.13.73,4.77,2.21,9.42,3.17,14.16.68,3.38.97,6.84,1.52,10.24,1.37,8.53,2.74,17.05,4.2,25.56.52,2.99,1.25,5.95,2.02,8.89.15.58.93,1.01,1.47,1.45.65.53,1.51.88,2,1.52,1.78,2.3,1.44,3.16-.26,5.49-1.92,2.64-3.38,5.62-5.03,8.45h2.8c1.64-2.5,3.25-5.01,4.94-7.47.21-.3.95-.53,1.27-.39.36.15.69.75.72,1.18.15,2.23.19,4.45.27,6.68h3.2c-.13-1.51-.27-3.02-.41-4.54.18-.02.31-.07.37-.03.77.51,1.53,1.03,2.3,1.55.22-1.05.71-2.14.58-3.14-.14-1.05-.63-2.37-1.42-2.95-2.38-1.74-1.14-3.68-.46-5.43,2.65-6.8,5.5-13.52,8.19-20.3.49-1.24.68-1.63,2.17-.91,6.78,3.25,13.65,6.32,20.53,9.37,1.23.54,2.64.65,3.9.95-4.4,8.05-6.49,16.73-8.53,25.43h3.6c1.28-4.93,2.51-9.86,3.83-14.78.74-2.74,1.64-5.44,2.46-8.16.07-.25.12-.55.04-.78-.67-2.16.81-1.54,1.81-1.37,2.71.47,3.86-.02,4.88-2.52.74-1.82,1.52-3.69,1.85-5.6.67-3.97,1.23-7.96,1.49-11.97.21-3.38-.48-3.94-3.85-3.92-1.41.01-1.92-.42-1.75-1.8.08-.65.01-1.33-.05-1.99-.29-3.2.04-6.11,3.28-7.83.33-.18.64-.53.8-.87,1.19-2.49,3.53-3.7,5.56-5.33,3.8-3.07,7.62-6.21,8.69-11.42.52-2.54-.5-4.8-2.79-6.13-.28-.16-.48-.78-.43-1.15.69-5.43-.65-7.68-5.75-9.83-.55-.23-1.08-.95-1.27-1.55-.72-2.26-2.03-3.75-4.43-4.29-.34-.08-.74-1.08-.68-1.59.4-3.21,1.09-6.39,1.36-9.6.25-3.13.2-6.29.11-9.44-.06-1.7-.88-3.06-2.59-3.83-3.27-1.45-3.19-1.49-2.58-4.88.44-2.47.76-4.96,1.05-7.44.13-1.11.25-1.81,1.72-1.64,1.82.2,3.68.05,5.65.05-2.16,5.64-1.86,11.12-1.14,16.6.1.75,1.08,1.38,1.65,2.07.33-.8.91-1.59.94-2.4.22-5.13.3-10.26.49-15.39.01-.32.51-.77.87-.89.62-.19,1.31-.17,1.96-.23,1.42-.11,2.06.12,2.09,1.96.06,4.76.49,9.53.94,14.28.07.78.97,1.49,1.49,2.23.45-.79,1.3-1.6,1.27-2.37-.2-4.94-.59-9.88-.92-14.82-.06-.88-.28-1.64,1.18-1.62,1.84.02,3.68-.32,5.52-.51.16,1.77.31,3.55.49,5.32.13,1.29.17,2.62.53,3.85.57,1.98,1.4,3.6,3.69,4.51,2.44.98,4.56,2.79,6.78,4.3,5.04,3.41,10.89,4.26,16.65,5.62,7.06,1.67,14.02,3.83,20.94,6.05,4.26,1.36,5.67,5.58,7.89,8.93.14.22.21.49.33.73,2.71,5.4,2.36,5.9-2.97,8.69-5.41,2.83-10.55,6.21-15.88,9.22-3.48,1.97-7.05,3.79-10.64,5.54-3.71,1.81-6.92,3.63-8.26,8.24-1.98,6.86-5.26,13.35-7.26,20.21-1.55,5.35-2.08,11-2.92,16.54-1.21,8.02-2.31,16.07-3.42,24.11-.41,2.95-.72,5.93-1.07,8.89h3.2c.48-4.35.84-8.72,1.45-13.05,1.6-11.36,3.06-22.76,5.09-34.05.96-5.35,3.07-10.5,4.72-15.73.51-1.61,1.1-3.22,1.85-4.74,1.69-3.44,5.25-4.59,8.22-6.43,5.59-3.48,11.27-6.81,16.87-10.28,4.32-2.68,8.53-5.52,12.87-8.14.51-.31,1.65.13,2.33.52.42.24.73,1.05.72,1.6-.03,1.38-.42,2.76-.37,4.13.04,1.03.55,2.05.85,3.07.64-.47,1.23-1.02,1.91-1.41,2.12-1.21,4.24-2.39,6.4-3.52,1.58-.84,3.2-1.62,4.84-2.33.27-.11,1.06.22,1.1.44,1.05,5.56,2.15,11.12,2.99,16.71.57,3.81.72,7.67,1.14,11.5.64,5.89,1.46,11.77,2,17.68.42,4.61.48,9.25.81,13.87.5,7.16,1.09,14.32,1.63,21.48.22,2.89.42,5.79.63,8.68h2.8c-.61-8.25-1.27-16.49-1.82-24.74-.42-6.39-.57-12.8-1.09-19.18-.45-5.71-1.35-11.39-1.82-17.1-.14-1.7.43-3.47.77-5.2.89-4.51,1.9-8.99,2.72-13.51,1.03-5.65,1.9-11.31,2.89-16.96.04-.23.64-.62.81-.54,6.34,2.85,12.95,2.02,19.46,1.15,4.66-.62,9.22-1.95,13.83-2.97.3-.07.59-.16,1.13-.3-1.69,3.62-3.05,7.11-4.89,10.32-1.65,2.86-1.14,5.93-1.57,8.91-.94,6.33-1.95,12.66-2.56,19.03-.43,4.59-.29,9.23-.36,13.85-.13,7.58-.23,15.17-.33,22.75-.12,8.16-.23,16.33-.35,24.49h3.6c.11-9.83.24-19.66.33-29.48.08-9.03-.21-18.07.27-27.07.44-8.49,1.62-16.95,2.65-25.4.13-1.14,1.05-2.4,1.97-3.17,1.56-1.3,3.39-2.3,5.16-3.33,1.27-.75,2.41-.74,3.44.65,2.54,3.44,5.15,6.83,7.85,10.14.53.64,1.62,1.13,2.43,1.11.42,0,1.08-1.3,1.15-2.04.33-3.92.67-7.85.7-11.78.04-5.72-.19-11.45-.29-17.17,0-.36.17-.71.26-1.06.5.16,1.02.28,1.5.48,4.2,1.79,8.32,3.81,12.61,5.35,7.58,2.71,15.29,5.09,22.91,7.72,4.97,1.71,9.89,3.62,14.82,5.48.42.16.87.57,1.06.98,2.68,5.58,4.23,11.44,4.63,17.63.69,10.87,1.48,21.72,2.31,32.58.55,7.26,1.18,14.52,1.88,21.77.4,4.24,1,8.46,1.54,12.68.07.52.11,3.51.39,3.93.19.29.33.14.5,0,.13-.11.29-.21.5,0,0,0,2.04.62,2,0-.15-2.78-.79-8.53-1.45-11.21-.86-3.48.66-6.11,2.22-8.85,4.34-7.61,8.65-15.22,12.97-22.83.02-.04.04-.07.07-.11,2,3.43,4.02,7.1,6.25,10.64,2.28,3.63,5.82,5.88,9.41,8.03.74.44,1.57,1.13,1.82,1.88,1.91,5.74,3.76,11.5,5.44,17.32.46,1.61.27,3.41.39,5.13h3.2c-.02-7.49-2.16-14.41-5.44-21.07-.23-.45.45-1.28.4-1.91-.07-.79-.22-1.87-.75-2.27-2.01-1.49-4.27-2.63-6.28-4.11-4.96-3.67-8.34-8.61-10.16-14.4-1.57-5-.73-10.22-.06-15.34.26-1.96.23-4.09,1.03-5.82,1.37-2.96,2.95-5.95,5.03-8.43,5.07-6.03,8.37-13.01,11.68-20.03.9-1.9,1.83-3.8,2.93-5.59.31-.51,1.25-.78,1.94-.89,4.43-.73,4.09-.48,5.44,3.63,2.19,6.68,5.01,13.14,7.66,19.65.74,1.83,1.89,3.48,2.73,5.28.16.34-.21.99-.44,1.45-.84,1.74-1.99,3.39-2.54,5.22-.69,2.33.49,4.09,2.63,5.14,1.56.76,4.59-.01,5.86-1.41,2.88-3.18,3.16-6.59.95-10.25-.26-.44-.23-1.35.06-1.77,3.24-4.57,6.56-9.08,9.83-13.64,4.19-5.85,8.3-11.76,10.52-18.73.13-.39,1.01-.94,1.11-.86,4.47,3.51,9.61,3.13,14.78,2.64.25-.03.5-.03.52-.03-1.41,4.38-3.06,8.74-4.22,13.22-2.35,9.1-3.35,18.4-1.57,27.68.76,4.01,2.13,8.09,5.92,10.74,3.93,2.75,6.7,3.1,10.77-.9-.92,4.71-1.57,9.49-2.82,14.11-2.21,8.07-4.79,16.05-7.21,24.07-1.18,3.88-3.54,10.71-4.62,14.62-.11.38.46.14,1.05,0,.35-.08.71-.13.95,0,.18.1.37.09.56,0,.63-.25,1.28-1.26,1.53-1.68.85-1.43,1.42-3.07,1.9-4.68,1.36-4.59,2.66-9.2,3.89-13.83.35-1.32,1.01-1.88,2.33-2.15,2.27-.46,4.54-.99,6.71-1.78,4.12-1.5,5.19-3.31,4.94-7.64-.03-.55,0-1.1,0-1.65.21-.04.42-.09.63-.13.48,1.66,1.07,3.3,1.43,4.99.85,4.01,2.69,4.9,6.07,2.65,1.48-.99,2.72-2.34,4.22-3.66,2.68,3.68,5.72,7.73,8.61,11.89,3.74,5.36,7.36,10.8,11.01,16.22.29.42.38.96.56,1.45h3.6c-2.25-3.5-4.4-7.07-6.78-10.49-5.46-7.84-10.95-15.67-16.58-23.39-3.97-5.43-8.03-10.82-12.34-15.98-4.43-5.31-9.21-10.32-13.83-15.47-.4-.44-.69-1.02-1.16-1.36-.54-.4-1.23-.6-1.86-.89.01.77-.28,1.73.08,2.25,1.29,1.85,2.79,3.56,4.21,5.31.25.31.6.55.79.88.53.93,1.66,2.42,1.39,2.76-1.41,1.77-2.88,4.12-5.53,3.59-2.34-.47-4.15-2.15-5.27-4.42-3.34-6.76-2.95-13.97-2.67-21.2.29-7.54,2.47-14.62,4.79-21.69,1.47-4.46,5.88-5.39,9.62-1.61,3.08,3.1,6.02,6.52,8.23,10.27,6.98,11.82,14.78,23.03,23.32,33.78,3,3.78,5.52,8,7.94,12.2,5.15,8.92,10.08,17.98,15.13,26.96,3.48,6.19,7.02,12.34,10.54,18.5h2.4c-.9-2.03-1.68-4.12-2.73-6.07Zm-571.2-31.29c-.23,3.35-.31,6.7-.43,10.05-.04,1.13-.14,1.65-1.69,1.44-2.62-.36-4.26-1.12-4.04-4.15.1-1.5-.25-3.03-.39-4.49.55-6.44,1.06-12.81,1.68-19.17.04-.42.78-1.05,1.24-1.1,1.3-.12,2.64-.09,3.93.1.38.06.94.88.91,1.31-.36,5.34-.85,10.67-1.21,16.01Zm1.64-20.72c-1.03.07-2.06.03-3.09.03-.03-.18-.06-.37-.09-.55,1.09-.19,2.17-.4,3.27-.54.14-.02.34.3.51.46-.2.21-.39.59-.6.6Zm5.5,25c-.1,2.39-.16,4.78-.45,7.14-.07.58-.94,1.07-1.45,1.59-1.72.01-2.27-.49-2.21-1.85.24-5.25.45-10.5.66-15.76.14-3.36.29-6.73.36-10.09.05-2.06,1.61-3.22,3.43-2.34.32.15.48.95.46,1.45-.24,6.62-.51,13.24-.8,19.86Zm8.01-8.75c-.08,2.04-.35,4.09-.76,6.09-.3,1.48-1.21,2.87-1.38,4.35-.15,1.38.3,2.84.54,4.26.07.4.3.78.46,1.18-.42.12-.83.27-1.26.34-.33.05-.67-.02-1,0-2.98.09-2.77.07-2.6-2.91.39-6.66.45-13.33.77-19.99.09-1.92.5-3.86,1.01-5.72.1-.35,1.39-.37,1.79-.46.16,1.67-.18,4.05.53,4.42,4.19,2.18,2.02,5.52,1.9,8.44Zm3.35-3.73c.08-.55.63-1.03.96-1.54.67.79,2.03,1.77,1.87,2.32-.5,1.73-1.55,3.31-2.43,4.92-.1.17-.45.21-.68.31-.08-.29-.17-.57-.17-.61.16-2.1.21-3.76.45-5.4Zm53.58-57.27c1.18-1,1.89-2.75,4.01-2.06.33.11,1.13-.5,1.36-.95.93-1.78,2.42-1.68,4.05-1.52,1.3.12,2.63.03,4.02.03-1.86,5.25-6.3,7.15-11.13,8.45-.77.21-1.98.15-2.48-.32-1.2-1.1-1.25-2.43.17-3.63Zm-.21-111.13c-1.91.54-3.45.98-5.05,1.43.1-1.61.19-3.11.29-4.73,1.24.86,2.81,1.95,4.76,3.3Zm-74.11,64.1c-.4,1.49-.83,2.03-2.3,1.09-4.25-2.71-8.17-5.73-8.93-11.14-.51-3.66.76-7.05,2.42-10.24.81-1.57,2.13-2.88,2.92-4.45.33-.66.21-2.08-.28-2.52-3.73-3.35-4.62-11.84-2.1-16.15,2.38-4.06,5.11-7.71,8.95-10.38,2.87-1.99,5.92-3.76,9.06-5.3,8.89-4.35,17.54-9.03,24.84-15.88,1.85-1.74,3.85-3.34,5.91-4.85,3.96-2.91,8.47-3.21,13.05-2.07,2.61.66,5.03,2.48,7.63,2.71,3.95.35,8-.06,11.97-.47,1.56-.16,1.64.14,1.14,1.29-1.15,2.66-2.34,5.31-3.59,7.92-.07.16-.8.06-1.22.01-3.76-.48-6.58-2.86-9.67-4.74-1.39-.85-3.04-1.33-4.63-1.76-.54-.15-1.27.37-1.91.59.36.64.55,1.52,1.09,1.88,2.25,1.5,4.63,2.79,6.89,4.26.79.51,1.38,1.31,2.48,2.39-3.11-.97-5.54-2.06-8.08-2.44-2.99-.44-6.08-.41-9.11-.26-.87.05-1.69,1.22-2.53,1.88.73.41,1.52.73,2.17,1.24,1.55,1.18,3.31,2.24,4.46,3.74,1.97,2.56,3.54,5.43,4.79,8.39-2.61-1.38-5.16-2.93-7.86-4.12-4.76-2.1-9.72-3.06-14.89-1.51-.13.04-.27.15-.38.12-3.56-1.13-2.53,1.08-2.4,3.05.37,5.66-1.91,10.57-5,15.09-1.81,2.64-4,5.02-6.3,7.87-.46-2.91-.81-5.2-1.19-7.48-.12-.71-.14-1.56-.55-2.07-.44-.54-1.33-1.09-1.92-1-.44.07-1.01,1.17-1.01,1.8.01,4.22.18,8.44.26,12.66.03,1.82,1.02,2.36,3.1,1.59-.99,10.69.92,19.44,8.38,26.02-.1.18-.19.37-.28.55-2.85-1.46-5.92-2.61-8.51-4.44-7.03-4.95-15.05.27-16.87,7.13Zm15.67,18.1c-5.94-1.39-9.91-5.18-11.98-10.74-1.35-3.62-1.82-7.37,1.33-10.69,3.69-3.9,8.93-3.95,12.45.11,2.07,2.39,9.04,4.29,11.9,3.24,1.88-.7,2.01-3.42.24-4.95-6.72-5.84-8.82-13.52-9.64-22.08-.49-5.17,3.04-7.51,5.44-10.79,4.2-5.76,7.59-11.81,7.42-19.27-.01-.4.98-1.2,1.45-1.16,2.54.2,5.21.21,7.57,1.04,4.53,1.61,9.06,3.4,12.28,7.36.56.69,2.28,1.4,2.66,1.09,1.15-.91,2.68-2.33,2.67-3.54-.03-5.24-2.51-9.58-5.99-13.37-.47-.51-1.25-.73-1.88-1.09.29-.38.58-.77.87-1.15,5.27,1.89,10.53,3.78,15.33,5.5-.81.93-2,2.35-3.22,3.74-2.71,3.12-4.19,6.83-5.06,10.79-.15.68.34,1.5.53,2.25.73-.41,1.75-.64,2.14-1.27,3.21-5.24,7.19-9.59,12.86-12.24.69-.33,1.07-1.32,1.93-2.44,1.99,3,4.06,6.1,6.08,9.24.11.18-.16.81-.42,1-.94.7-1.93,1.33-2.94,1.92-.35.21-.8.23-1.21.34.13-.41.25-.81.39-1.21.46-1.36,1.04-2.7,1.33-4.09.1-.44-.55-1.04-.86-1.57-.46.34-1.11.57-1.36,1.03-.73,1.32-1.08,2.9-1.99,4.05-.94,1.18-2.23,2.25-3.6,2.9-3.89,1.84-6.76,4.7-8.88,8.35-.32.57.03,1.53.07,2.31.68-.26,1.5-.35,2.01-.8,2.06-1.79,4.03-3.7,6.17-5.69,1.4,3.35,2.61,6.39,5.93,7.78,1.81.76,3.35-.11,3.4-2.05.02-.85-.14-1.72-.34-2.55-.22-1.01-1.12-2.03.39-2.84.21-.11.15-.86.09-1.29-.09-.68-.62-1.61-.35-1.97.86-1.15,1.98-2.1,3.07-3.07.07-.07.77.3.9.59,3.58,8.07,5.78,16.51,7.12,25.23,1.24,8.03,1.74,16.08,1.48,24.18-.38,11.56-4.53,20.96-15.59,26.08-3.88,1.79-7.9,3.37-11.99,4.59-5.34,1.59-10.42-.02-15.3-2.22-4.33-1.96-8.75-3.77-12.88-6.11-2.65-1.5-4.93-3.72-7.2-5.81-1.55-1.42-2.48-2.18-4.51-.31-2.87,2.67-6.65,2.51-10.31,1.65Zm15.34,9.55c-1.31-1.4-2.24-.89-3.62-.26-2.7,1.23-5.53,2.2-8.63,3.4,1.22-3.31,2.11-5.81,3.08-8.29.12-.33.55-.6.9-.77.77-.37,1.77-.48,2.35-1.03,1.84-1.77,2.96-.98,4.29.7,1.17,1.5,2.75,2.66,4.06,4.06.41.44.52,1.16.76,1.76-1.09.18-2.76.88-3.19.43Zm6.71,40.56c-.49-1.49-.4-3.19-.36-4.8,0-.14,1.47-.47,2.2-.35,3.49.56,6.98,1.19,10.44,1.92.44.09,1.09.91,1.04,1.32-.35,2.95-.41,6.04-1.42,8.78-1.25,3.4-3.33,6.5-5.29,10.2-1.46-4.64-2.71-8.96-4.22-13.19-.49-1.4-1.93-2.48-2.39-3.88Zm3,65.32c.45-2.47.78-4.44,1.17-6.4.39-1.99.83-3.97,1.26-5.96,3.12,3.4,2.31,8.29-2.43,12.36Zm17.9-31.49c-.12,1.91-.93,3.34-2.63,4.35-3.78,2.27-7.5,4.63-11.47,7.09,1.38-6.41,2.8-12.57,4.01-18.77,1.83-9.38,3.5-18.79,5.29-28.18.08-.41.71-.97,1.13-1.02,1.83-.19,3.67-.27,5.51-.25.33.01.95.74.93,1.09-.47,5.73-1.09,11.45-1.54,17.17-.49,6.17-.83,12.35-1.23,18.52Zm23.72,1.58c.01-2.43,1.26-3.53,3.3-2.48,1.02.53,1.37,2.51,1.84,3.89.23.65.04,1.44.04,2.18.19.02.38.04.57.06-.48,4.26-.84,8.55-1.52,12.79-.23,1.4-1.22,2.7-1.97,3.98-1.34,2.32-2.7,4.63-4.2,6.85-.38.55-1.33.72-2.02,1.07.03-.63-.03-1.28.11-1.89,1.92-8.72,3.8-17.45,3.85-26.45Zm-6.49-2.07c.42-2.22,2.46-.51,3.63-1.05.15.59.51,1.22.42,1.78-.83,5.62-1.67,11.24-2.64,16.83-.72,4.17-1.68,8.3-2.44,12.46-.24,1.29-.71,1.71-2.1,1.65-1.88-.07-.71-1.29-.91-1.95-.15-.49-.03-1.06-.03-1.59-.07-.01-.14-.02-.21-.04.71-4.75,1.41-9.51,2.13-14.27.69-4.61,1.29-9.24,2.15-13.82Zm-12.05-1.68c-.11-.5-.41-.96-.63-1.44.47.08.95.15,1.43.23,2.14.37,4.29.69,6.41,1.14.64.13,1.21.61,1.56.79-1.39,8.88-2.72,17.15-3.95,25.43-.28,1.92-.29,3.89-.28,5.84,0,1.11-.26,1.51-1.35,1.04-1.33-.57-2.7-1.06-3.99-1.7-2.96-1.49-2.89-4.4-2.56-6.91.98-7.49,2.35-14.92,3.52-22.38.1-.66-.02-1.38-.16-2.04Zm-.19-44.19c-.4.55-.14,1.84.22,2.6.87,1.84.3,3-1.55,3.13-3.63.25-7.31.56-10.91.19-5.96-.6-11.96-1.32-17.76-2.74-5.01-1.22-9.79-3.43-14.61-5.34-1.05-.41-1.87-1.39-2.79-2.12,1.1-.62,2.15-1.42,3.33-1.84,2.88-1.02,4.76-2.41,2.75-5.99-.26-.48.11-1.76.59-2.12.95-.7,2.18-1.02,3.3-1.5-.7,1.96-1.28,2.81,1.37,3.33,2.56.49,4.78,2.61,7.34,3.22,4.5,1.07,9.12,1.84,13.74,2.16,3.91.27,7.89-.19,11.83-.5,1.6-.13,3.16-.74,4.74-1.13.02,3,.34,5.98-1.59,8.65Zm1.86-13.36c-.16.52-.88,1.17-1.4,1.23-8.55,1-17.1,2.33-25.7.68-1.88-.36-3.7-1.05-5.49-1.73-.29-.11-.54-1.05-.39-1.44,1.64-4.3,3.37-8.57,5.06-12.84,9.33,3.84,18.52,9.65,29.85,6.67-.67,2.65-1.22,5.06-1.93,7.43Zm2.13,15.44c.03-.43-.06-.9.1-1.27.82-1.88,1.7-3.73,2.55-5.58,1.77,1.93,1.05,5.96-1.4,6.86-.36.13-.83,0-1.25-.01Zm9.03,14.8c-1.03-.57-2.2-.98-3.06-1.74-2.4-2.14-4.61-4.55-3.76-8.11.28-1.14,1.42-2.19,2.41-2.96.24-.19,1.61.72,2.19,1.36,2.07,2.26,2.76,5.05,2.91,8.09-.23,1.12-.46,2.24-.69,3.36Zm50.79,40.33c-2.46,5.69-5.07,11.32-7.51,17.02-1.02,2.39-1.72,4.92-2.44,7.02-1.72-1.65-3.61-3.35-5.33-5.19-.47-.5-.53-1.44-.65-2.2-1.51-9.3-3-18.61-4.46-27.91-.67-4.23-1.05-8.52-1.94-12.7-.67-3.07-2.15-5.96-2.92-9.02-.8-3.17-.85-6.55-1.88-9.63-.66-1.96-2.23-3.86-3.86-5.22-3.92-3.29-9.01-4.06-13.7-5.7-2.53-.88-4.98-2.01-7.41-3.15-.4-.19-.65-1.04-.63-1.58,0-.26.75-.65,1.21-.73,5.5-.88,10.57-2.56,13.7-7.65.57-.94,1.01-2.07,1.13-3.15.25-2.31-1.26-3.29-4.87-3.69,3.63-1.12,7.22-2.45,10.91-3.31,4.76-1.11,9.66-1.61,14.39-2.8,5.19-1.29,10.33-2.88,15.37-4.69,4.36-1.57,8.39-3.88,11.21-7.77,2.62-3.62,5.16-7.3,6.15-11.79.14-.63.81-1.66,1.19-1.64,1.35.08,2.69.52,4.02.87.06.01.04.46,0,.7-1.33,7.92-2.7,15.84-3.91,23.78-.1.68.84,1.52,1.29,2.28.47-.65,1.23-1.26,1.35-1.97,1.05-6.39,1.99-12.81,2.94-19.22.2-1.37.54-2.76.41-4.1-.12-1.1.04-1.3,1.05-1.12,2.06.35,4.14.61,6.19,1.03.36.07.89.76.86,1.12-.46,4.66-.91,9.32-1.58,13.95-.15,1.07-1.34,1.95-1.67,3.03-1.57,5.27-3.18,10.53-4.45,15.88-1.06,4.49-1.62,9.09-2.56,13.62-.16.74-1.01,1.52-1.75,1.92-3.61,1.98-7.38,3.66-10.9,5.78-2.46,1.49-2.67,3.84-2.12,6.57.6,2.98.6,6.1.79,9.16.23,3.6.38,7.22.57,10.83.04.7.21,1.41.19,2.1-.03,1.16-.16,2.31-.25,3.46-1.05-.26-2.09-.7-3.14-.71-.71-.01-1.77.4-2.06.94-1.36,2.56-2.45,5.26-3.73,7.85-1.03,2.06-1.2,3.85.75,5.55.37.33.32,1.55.05,2.18Zm35.21-8.97c.54.03,1.05.58,1.6.9-.95,5.32-1.74,10.15-2.77,14.92-.15.67-1.58,1.63-2.26,1.52-8.58-1.47-16.44-4.95-24.06-9-1.85-.99-3.56-2.32-5.16-3.69-.49-.42-.76-1.61-.56-2.27.58-1.89,1.35-3.75,2.3-5.47.27-.48,1.53-.74,2.21-.58,3.22.75,6.34,2.01,9.58,2.48,4.84.68,9.74.89,14.62,1.22,1.49.1,3.01-.13,4.5-.03Zm1.74-23.92c1.87.19,3.43.36,5.17.54-2.21,2.09-3.52,1.98-5.17-.54Zm12.62-11.31c.11,1,.06,2.18-.4,3.04-.96,1.82-2.22,3.49-3.33,5.17-3.06-4.02.49-6.27,2.06-9,.03-.06,1.63.45,1.67.79Zm-7.32-9.66c.21-.73.61-1.4.92-2.09.83.7,1.93,1.24,2.43,2.13,1.64,2.89-.13,5.37-1.3,7.88-.27.59-.72,1.09-1.1,1.65-3.3-2.92-1.89-6.27-.95-9.57Zm-.7,16.61c.02.05-1.93,1.17-2.31.9-2.01-1.47-3.92-3.12-5.65-4.91-1.5-1.55-2.65-3.43-4.11-5.03-.39-.43-1.76-.69-1.97-.43-.46.54-.86,1.71-.57,2.2.91,1.51.59,2.7-.27,4.03-2.08,3.2-4.12,6.42-6.1,9.68-.27.45-.1,1.17-.13,1.76.79-.03,2,.26,2.29-.14,2.03-2.76,3.85-5.66,5.76-8.5.39-.59.85-1.13,1.28-1.7.25.68.4,1.42.75,2.03,1.11,1.92,2.22,3.85,3.49,5.66.92,1.29,2.17,2.35,3.13,3.62.17.22-.24,1.11-.6,1.46-1.15,1.08-2.41,2.04-3.63,3.05-.99.81-1.52,1.64-1.48,3.13.06,2.35-.32,4.74-.83,7.04-.12.54-1.51.8-1.94,1.01-5.43-.66-10.28-1.21-15.12-1.84-1.3-.17-1.97-.55-2.03-2.41-.28-8.34-.67-16.71-1.68-24.98-.34-2.8-.12-4.26,2.43-5.17,6.3-2.27,12.58-4.61,18.93-6.72,2.23-.74,5.72,2.89,5.42,5.23-.07.56.14,1.46.54,1.72,3.35,2.23,3.29,6.05,4.4,9.31Zm-5.47-22.57c.21-.61.66-1.14,1.01-1.7.63.5,1.42.9,1.85,1.54.38.54.36,1.36.5,2.01-.14.86-.17,1.65-.41,2.38-.29.87-.75,1.69-1.13,2.54-1.43-.86-2.6-1.98-2.57-3.74.01-1.01.4-2.05.75-3.03Zm-2.54-25.95c.55.46,1.07,1.1,1.28,1.77s.05,1.45.05,2.18c.12.02.24.04.36.06-1.07,6.88-2.43,13.72-3.11,20.64-.4,3.93-2.68,4.64-5.74,5.43-1.7.44-2.04.29-1.62-1.29,2.14-7.94,2.19-16.34,5.34-24.05.54-1.32,1.28-2.56,2.06-3.76.3-.46,1.27-1.08,1.38-.98Zm24.98-22.65c-6.41.92-12.84,1.66-19.24,2.45-6.87-.73-13.62-1.47-20.37-2.14-1.27-.13-1.78-.49-1.75-1.91.07-2.51-.19-5.02-.28-7.53-.01-.36.15-.73.22-1.1.24.08.52.11.7.26,4.6,3.93,10.07,5.91,15.95,6.73,5.35.75,10.74,1.42,16.14,1.66,2.64.12,5.31-.84,7.99-1.19.56-.08,1.2.36,1.81.57-.39.76-.69,2.13-1.17,2.2Zm-13.27-5.58c-5.73-.72-11.54-1.63-17.01-3.39-3.61-1.16-7.04-3.59-9.9-6.17-3.38-3.04-6.11-6.82-9.02-10.37-1.36-1.65-2.47-2.71-4.72-1.11-3.21,2.29-6.58.86-9.87-.19-6.05-1.93-10.59-5.67-12.12-11.87-.98-4-1.24-8.35-.88-12.46.49-5.67,8-8.43,12.5-4.92,2.58,2.01,4.96,4.03,6.47,7.24,1.05,2.24,3.75,3.75,5.84,5.43.41.33,1.86.15,2.02-.17.44-.96.89-2.24.59-3.16-.96-2.94-2.3-5.76-3.4-8.66-1.17-3.05-2.27-6.13-3.29-9.23-.18-.55.05-1.31.28-1.9,2.94-7.42,4.32-15.16,4.68-23.09.09-1.95.79-3.12,2.46-4.31,6.2-4.37,12.85-7.87,19.96-10.41,5.99-2.13,12.17-3.3,18.6-3.79,5.26-.39,7.43,3.21,10.42,5.89,1.53,1.36,2.59,3.25,4.16,5.29-4.57-.7-8.67-.96-12.44,1.33-1.01.61-2.05,1.24-2.89,2.06-1.45,1.44.13,2.76.5,4.03.75,2.5,2.1,1.71,3.83.64,3.99-2.5,8.3-4.07,13.15-2.8,1.59.41,3.54,3.39,3.45,5.05-.03.57.18,1.15.31,1.71,2.49,11.08,5.09,22.14,7.43,33.25,1.07,5.11,1.85,10.31,2.39,15.51.62,5.89.09,11.64-3.86,16.54-3.67,4.55-7.79,8.67-13.08,11.19-5.17,2.46-10.85,3.57-16.56,2.84Zm147.27-91.63c2.9,1.07,5.53,1.82,7.96,2.98,6.23,2.99,12.54,5.87,18.48,9.35,4.55,2.66,8.32,6.73,10.44,11.47,1.42,3.18,1.34,7.29,1.05,10.91-.6,7.31-2.64,14.33-5.62,21.05-.4.91-.86,1.81-1.45,2.59-.35.47-1.01.72-1.53,1.06-.3-.57-.79-1.11-.86-1.71-.31-2.67-.42-5.36-.8-8.02-.07-.48-1.04-.83-1.6-1.24-.28.56-.78,1.11-.79,1.67-.08,2.32.04,4.64,0,6.95-.01.5-.44,1-.68,1.49-.14-.5-.42-1.01-.38-1.5.23-2.82-.65-5.19-2.64-7.19-.27-.28-.65-.77-.57-1.03,1.79-5.69-1.09-9.93-4.26-14.12-3.21-4.25-6.68-8.35-8.28-13.61-.11-.36-1.34-.77-1.8-.57-1.28.54-2.44,1.38-4.24,2.47.6-1.89,1-3.1,1.38-4.32.22-.68.6-1.37.57-2.04-.04-.85-.18-2.1-.72-2.41-.54-.31-1.7.18-2.45.58-1.19.65-2.27,1.52-3.39,2.3,2.77-5.36,3.91-10.75,2.19-17.11Zm19.37,58.58c-.72-.11-1.76-.12-2.06-.58-.66-.99-1.18-2.19.08-3.31.91-.81,1.65-1.79,2.7-2.94.43,1.57.79,2.98,1.19,4.38.5,1.72.18,2.79-1.91,2.45Zm-29.49-61.04v.44c-1.83.42-3.73,1.32-5.48,1.09-1.1-.14-1.99-1.95-2.6-3.38,2.69.62,5.38,1.23,8.08,1.85Zm-51.93,19.17c5.28-5.28,8.56-11.72,11.37-18.51,1.63-3.93,5.18-5.48,8.63-6.6-1.73,4.96-3.56,9.8-5.08,14.73-.62,1.99-.56,4.19-.85,6.29-.06.36-.41,1-.57.98-2.99-.3-3.47,2.43-4.95,3.96-.26.27-1,.53-1.17.39-1.92-1.65-3.24-.21-4.37.97-2.49,2.58-4.82,5.33-7.34,8.15.41-3.96,1.53-7.57,4.33-10.36Zm14.86,93.59c-3.23-.81-6.43-1.81-9.57-2.91-4.71-1.65-5.74-5.98-7.21-10.07-1.96-5.47-2.14-11.19-2.65-16.86-.67-7.35-1.49-14.72-1.53-22.08-.03-6.39,1.06-12.77,1.44-19.17.4-6.69,3.91-11.64,8.38-16.16.72-.73,1.05-.86,1.86-.05.86.86,2.08,1.37,3.22,2.07-.96.65-2.41,1.53-3.72,2.59-.4.33-.41,1.16-.6,1.76.65.08,1.36.39,1.94.22,4.68-1.32,9.27-3.02,14.01-4.03,3.57-.76,7.17-.09,10.27,2.25.57.44,1.95.85,2.08.65.51-.72.66-1.69.95-2.61.2.17.52.65.9.69.63.08,1.3-.13,1.95-.22-.12-.66-.02-1.52-.4-1.95-2.94-3.31-6.89-4.48-11.13-4.66-5.47-.24-10.65.78-15.45,4.82,1.12-2.17,1.92-3.84,2.88-5.4.18-.28,1.14-.32,1.62-.14,2.08.78,3.36.43,3.64-1.67.55-4.05,3.75-5.97,6.18-8.55,4.45-4.71,10.49-5.53,16.37-6.77,1.29-.27,2.09.1,2.63,1.42,1.94,4.73,1.91,5.18,8.39,4.11,2.2-.37,4.43-.6,6.65-.78.28-.03.92.62.89.91-.41,3.99-1.41,7.7-4.84,10.33-.81.62-1.21,1.78-1.8,2.69,1.44.34,2.99,1.17,4.29.89,1.87-.41,3.58-1.63,5.73-2.69-.53,1.37-1.1,2.48-1.37,3.65-.21.9-.4,2.37.06,2.74.79.61,2.15.85,3.18.7,1.6-.23,3.39-1.64,4.61-1.2,1.05.38,1.28,2.74,2.13,4.05,2.26,3.47,4.53,6.94,7.03,10.24,3.14,4.16,2.65,9.84-1.42,13.03-1.81,1.41-3.08,2.85-1.59,5.26.27.44.06,1.17.1,1.77.11,1.75,2.29,3.16,3.98,2.61,4.07-1.32,7.94-.03,11.77,1.08,1.49.42,3.03,1.19,4.14,2.24,1.95,1.83,2.15,4.4,1.66,6.86-1.4,7.07-5.78,11.89-11.92,15.32-5.17,2.88-10.61,4.59-16.83,4.01,1.14-2,2.27-3.94,3.36-5.89.25-.45.57-.99.52-1.45-.07-.63-.45-1.22-.7-1.84-.53.33-1.22.53-1.56,1-5.73,7.7-11.25,15.56-17.19,23.1-2.67,3.41-6.99,4.5-11.11,5.38-8.84,1.88-17.58.86-26.22-1.29Zm.78,34.18c-.46,4.24-1.18,8.45-1.94,12.64-.77,4.17-1.73,8.29-2.63,12.59-.92-5.42-1.62-10.7-2.76-15.89-1-4.55-2.06-9.2-5.38-12.79-.76-.83-1.85-1.43-2.88-1.92-.37-.18-1.03.27-1.55.43.2.48.27,1.19.63,1.4,2.57,1.48,3.5,4.05,4.49,6.58.38.99.29,1.64-1.02,2.22-3.41,1.49-6.68,3.32-10.11,5.07.51-5.2.99-10.44,1.58-15.67.07-.61.65-1.32,1.19-1.71,7.05-4.98,13.61-10.77,21.9-13.78.37-.14.78-.21,1.17-.31,0,.38.04.76-.04,1.12-.81,3.84-1.85,7.65-2.4,11.52-.4,2.79.06,5.69-.25,8.5Zm7.26-1.11c-1.3-.48-2.63-.94-3.81-1.65-.47-.28-.55-1.2-.81-1.83-.03-1.41.46-1.49,1.6-1.04,1.15.45,2.45.5,3.59.98.6.25,1.18.95,1.44,1.59.87,2.13-.04,2.68-2.01,1.95Zm6.9.65c-1.33.5-1.95-.26-2.14-1.77-.27-2.16,1.13-2.04,2.35-1.91,1.16.12,3.55-1.51,3.05,1.29.28,3.25-2.11,1.97-3.26,2.39Zm7.44-.75c-.54,0-1.08-.98-1.62-1.5-.12-1.85.68-2.21,1.89-2.14,1.22.06,3.43-.01,3.5.32.47,2.32-.7,3.33-3.77,3.32Zm11.49-2.23c-.96.36-1.99.57-3.01.71-.61.09-1.26-.07-1.89-.12.53-1.04.82-2.41,1.66-3.01.86-.62,2.27-.64,3.43-.63.41,0,.8.88,1.44,1.65-.7.62-1.09,1.19-1.63,1.4Zm-13.93-4.54c-1.64.03-3.26.63-4.9.68-.99.04-1.99-.49-2.99-.73-.43-.1-1.03-.32-1.28-.13-1.89,1.45-3.67.25-5.42-.25-.29-.08-.52-1.38-.34-2,1.37-4.75,2.72-9.5,2.54-14.53-.04-1.35-.01-2.71-.01-4.07,1.35.2,2.7.46,4.07.58,8.88.78,17.43-.28,24.88-5.57,2.51-1.78,4.44-4.42,6.51-6.78,1.92-2.19,3.68-4.52,5.51-6.79-2.65,8.56-4,17.17-4.09,25.99-.02,2.02.08,4.07-.22,6.05-.12.84-.98,1.94-1.77,2.26-7.2,2.96-14.61,5.1-22.49,5.29Zm18.74,3.24c-.14.04-.77-.67-.71-.94.18-.86.35-2.07.95-2.42,1.21-.69,2.69-.89,4.35-1.39-.76,1.53-1.58,2.78-2.03,4.15-.57,1.79-1.73.34-2.56.6Zm16.21,18.17c0,.51-.14,1.01-.29,2.06-1.97-2.48-3.67-4.54-5.27-6.68-2.2-2.9-5.04-3.53-8.17-1.63-1.27.77-2.47,1.66-4.31,2.91,1.46-3.03,2.62-5.43,3.77-7.83,1.69-3.52,2.94-7.34,5.17-10.47,2.9-4.06.94-8.43,1.79-12.56.3-1.47.35-3.02.33-4.54-.02-1.68.77-1.44,1.81-.96,2.65,1.23,4.12,3.39,4.47,6.17.4,3.14.63,6.33.67,9.49.09,8.02.04,16.03.03,24.04Zm73.19-75.43c1.11-3,3.22-5.63,4.93-8.39.22-.36.7-.67,1.12-.78.9-.25,1.85-.36,2.78-.53-.11.81-.16,1.63-.34,2.42-.41,1.85-.88,3.67-1.42,5.89-.49-.94-.67-1.66-1.13-2.06-.53-.45-1.3-.62-1.97-.92-.21.7-.83,1.68-.57,2.06,2.63,3.93,1.68,7.52-.68,11.13-.8,1.23-1.27,2.68-2.08,4.45-1.95-4.69-2.18-9.09-.64-13.27Zm28.88,65.6c-2.23,6.83-5.35,13.24-10.09,18.78.68-2.12,1.5-4.21,1.97-6.37.24-1.08.11-3.14-.36-3.31-1.76-.61-1.77,1.16-2.17,2.28-.09.25-.21.49-.32.74-.12-.1-.23-.16-.3-.25-.52-.7-1.04-1.41-1.56-2.12-.29.99-1.12,2.29-.77,2.91,2.16,3.8-.05,7.07-.91,10.52-.83,3.31-1.7,6.63-2.34,9.98-.64,3.42-1.65,6.95-1.37,10.34.38,4.52-2.83,7.05-4.52,10.37-2.95,5.81-6.41,11.37-9.67,17.03-.48.84-1.04,1.62-1.92,2.97-.37-5.11-.76-9.61-1.01-14.11-.35-6.11-.59-12.23-.88-18.35-.12-2.59-.29-5.18-.39-7.78-.02-.43.08-.93.28-1.31,3.89-7.1,7.64-14.28,11.75-21.25,4.85-8.2,11.79-14.08,20.9-17.19.48-.16,1.17.18,1.71.4.27.11.38.65.64.72,3.34.9,1.92,3.22,1.33,5Zm25.91,31.65c-.57-.09-1.04-.88-1.3-1.12.25-2.47.86-4.13,2.89-4.56.26-.05,1.18,1.51,1.25,2.37.15,1.85-1.35,3.54-2.84,3.31Zm15.34-29.38c-3.83,5.6-8.07,10.92-12.14,16.35-.5.67-1.12,1.25-1.68,1.87-.47-.76-1.04-1.48-1.4-2.29-2.49-5.72-4.97-11.45-7.39-17.2-.69-1.64-1.29-3.34-1.72-5.06-.1-.4.69-1.49.98-1.46,10.99,1.14,20.89-2.55,30.68-6.78.11-.04.25.02,1.34.15-3.03,5.08-5.6,9.92-8.67,14.42Zm8.53-18.51c-8.23,3.77-16.72,6.75-25.69,8.11-1.95.3-3.99.15-5.98.01-.57-.04-1.09-.74-1.63-1.15.54-.5,1.06-1.42,1.62-1.45,7.61-.39,14.25-3.68,20.8-7.06,3.54-1.83,6.83-4.15,10.25-6.25.4,2.18.86,4.54,1.24,6.91.04.26-.32.75-.61.88Zm31.23-32.66c-1.36.33-1.57.99-.92,2.17.18.35.18.93.04,1.31-1.18,2.97-3.1,5.13-6.11,6.54-4.22,1.98-8.43,3.8-13.14,4.18-1.66.13-2.78,0-1.34-1.98.29-.41.51-1,.47-1.48-.04-.55-.41-1.07-.63-1.6-.46.24-1.06.36-1.36.73-2,2.5-3.77,5.21-5.93,7.56-4.18,4.54-8.64,8.87-14.43,11.32-5,2.11-10.01,4.41-15.25,5.68-7.24,1.76-14.52.38-21.56-1.83-8.09-2.54-15.89-5.74-21.87-12.05-5-5.28-7.37-13.27-4.54-20.47,1.77-4.5,4.11-8.79,5.69-13.35,1.8-5.2,2.97-10.61,4.55-15.89,1.8-6,3.39-12.16,7.52-17.06,3.04-3.6,7.01-6.2,11.22-8.34,4.91-2.49,10.03-4.31,15.47-4.92-1.92,2.17-4.17,4.11-5.66,6.52-2.23,3.61-3.46,7.63-1.17,11.77.4.71,1.5,1.02,2.28,1.52.05-.89.36-1.86.1-2.64-.99-2.97-.21-5.7,1.25-8.14,2.04-3.4,4.65-6.38,8.12-8.05-.24,2.29-.63,4.65-.71,7.03-.13,4.43,2.06,7.66,5.72,9.94.48.3,1.18.51,1.69.39.62-.15,1.14-.68,1.71-1.05-.33-.46-.55-1.07-.99-1.36-5.08-3.26-6.6-9.76-3.66-14.54,2.47,3.97,4.68,8.39,7.72,12.14,2.83,3.47,6.3,6.58,9.96,9.17,2.13,1.5,3.69,2.82,4.38,5.37,2.32,8.53,7.12,15.45,14.04,20.93.35.27.44.86.67,1.28.45.8.91,1.6,1.37,2.39.75-.51,1.57-.94,2.24-1.54,2.19-1.93,4.1-4.27,6.53-5.8,2.75-1.73,4.21-1.15,6.06,1.63.74,1.11,1.25,2.48,1.51,3.81.72,3.59.65,3.6-2.63,4.89-.42.17-.97.33-1.19.67-.47.7-.75,1.52-1.11,2.29.83.1,1.65.25,2.49.27.36.01.72-.31,1.1-.35.4-.04.81.07,1.22.12-.31.28-.57.73-.92.82Z"/><path class="cls-2" d="m552.23,276.31c.04.26-.32.75-.61.88-8.23,3.77-16.72,6.75-25.69,8.11-1.95.3-3.99.15-5.98.01-.57-.04-1.09-.74-1.63-1.15.54-.5,1.06-1.42,1.62-1.45,7.61-.39,14.25-3.68,20.8-7.06,3.54-1.83,6.83-4.15,10.25-6.25.4,2.18.86,4.54,1.24,6.91Z"/><path class="cls-2" d="m159.89,280.62c-1.86,5.25-6.3,7.15-11.13,8.45-.77.21-1.98.15-2.48-.32-1.2-1.1-1.25-2.43.17-3.63,1.18-1,1.89-2.75,4.01-2.06.33.11,1.13-.5,1.36-.95.93-1.78,2.42-1.68,4.05-1.52,1.3.12,2.63.03,4.02.03Z"/><path class="cls-2" d="m140.98,295.86c-.36.13-.83,0-1.25-.01.03-.43-.06-.9.1-1.27.82-1.88,1.7-3.73,2.55-5.58,1.77,1.93,1.05,5.96-1.4,6.86Z"/><path class="cls-2" d="m149.45,307.29c-.23,1.12-.46,2.24-.69,3.36-1.03-.57-2.2-.98-3.06-1.74-2.4-2.14-4.61-4.55-3.76-8.11.28-1.14,1.42-2.19,2.41-2.96.24-.19,1.61.72,2.19,1.36,2.07,2.26,2.76,5.05,2.91,8.09Z"/><path class="cls-2" d="m135.74,293.77c1.93-2.67,1.61-5.65,1.59-8.65-1.58.39-3.14,1-4.74,1.13-3.94.31-7.92.77-11.83.5-4.62-.32-9.24-1.09-13.74-2.16-2.56-.61-4.78-2.73-7.34-3.22-2.65-.52-2.07-1.37-1.37-3.33-1.12.48-2.35.8-3.3,1.5-.48.36-.85,1.64-.59,2.12,2.01,3.58.13,4.97-2.75,5.99-1.18.42-2.23,1.22-3.33,1.84.92.73,1.74,1.71,2.79,2.12,4.82,1.91,9.6,4.12,14.61,5.34,5.8,1.42,11.8,2.14,17.76,2.74,3.6.37,7.28.06,10.91-.19,1.85-.13,2.42-1.29,1.55-3.13-.36-.76-.62-2.05-.22-2.6Zm-12.23,2.03c-1.06.06-2.12.01-3.23.01-5.89.7-10.94-1.65-15.84-4.58-1.69-1.01-3.51-1.82-5.11-2.95-.84-.6-1.32-1.69-1.97-2.55,1.02.03,2.16-.23,3.04.14,3.08,1.31,6.1,2.78,9.09,4.3,4.37,2.23,9.08,2.55,13.84,2.7,1.31.05,3.32-.46,3.42,1.37.1,1.95-1.93,1.49-3.24,1.56Zm6.26-4.66c-1.46.29-2.99.3-4.05.39-.57,0-.73.05-.83-.01-.79-.41-1.56-.84-2.34-1.27.83-.38,1.64-.96,2.51-1.11,1.56-.26,3.16-.35,4.74-.3.56.01,1.1.64,1.64.99-.55.45-1.05,1.18-1.67,1.31Z"/><path class="cls-1" d="m427.16,344.17c-2.48-.19-1.68-2.1-1.7-3.39-.02-1.76-.86-3.02-2.43-3.05-2.55-.05-5.14.25-7.65.73-.67.13-1.42,1.38-1.59,2.23-.26,1.26.47,3.32-.15,3.78-.94.68-2.67.28-4.07.34-1.05.04-2.1.13-3.14.08-5.4-.25-10.8-.55-16.2-.82-1.15-.05-2.11.07-2.12,1.64-.04,5.25-.28,10.49-.21,15.74.07,4.93.38,9.86.69,14.78.29,4.4,1.36,8.54,4.74,11.72h7.21c-.67-.51-1.28-1.35-2.01-1.47-3.12-.54-4.52-2.84-5.1-5.42-.86-3.78-1.36-7.66-1.66-11.53-.57-7.25-.84-14.53-1.38-21.78-.08-1.11.04-1.22,1.02-1.09,3.21.42,6.43,1.13,9.64,1.09,7.72-.1,15.44-.57,23.17-.85.31,0,.93.39.92.59-.08,3.8-.12,7.6-.41,11.39-.51,6.56-1.07,13.12-1.85,19.65-.39,3.31-1.84,6.23-5,7.91-.97.51-1.96,1.01-2.93,1.51h7.6c3.41-3.17,4.38-7.26,4.47-11.71.04-1.72.32-3.44.35-5.16.15-8.62.26-17.24.35-25.86,0-.36-.34-1.03-.56-1.05Zm-6.54.01c-.62-.1-1.33.27-1.93.13-.73-.17-1.8-.49-1.99-1.01-.57-1.52.46-1.91,1.79-1.82.33.02.66,0,1,0,.01-.05.02-.11.03-.16.79.19,1.59.37,2.39.56-.29.84,1.34,2.72-1.29,2.3Z"/><path class="cls-2" d="m420.62,344.18c-.62-.1-1.33.27-1.93.13-.73-.17-1.8-.49-1.99-1.01-.57-1.52.46-1.91,1.79-1.82.33.02.66,0,1,0,.01-.05.02-.11.03-.16.79.19,1.59.37,2.39.56-.29.84,1.34,2.72-1.29,2.3Z"/><path class="cls-1" d="m65.57,320.44c-2.16,9.22-1.79,18.69-2.99,28-.77,5.96.46,11.87-.21,17.69-.76,6.59-2.71,13.05-4.16,19.56-.17.76-.46,1.51-.69,2.26h-4c3.02-7.4,4.15-15.18,4.83-23.2-5.7,7.85-11.27,15.53-16.84,23.2h-3.6c3.42-5.07,6.79-10.18,10.28-15.21,3.09-4.46,6.32-8.82,9.45-13.26.27-.38.24-.99.29-1.5.5-4.83.97-9.66,1.47-14.49.34-3.26.75-6.37-.95-9.6-1.45-2.74-2.04-5.97-2.78-9.04-.18-.75.53-1.71.82-2.58.6.73,1.43,1.37,1.75,2.2.79,2.05,1.33,4.2,2.01,6.43,1.15-3.84,2.17-7.41,3.33-10.94.19-.58.99-.96,1.51-1.43.18.64.61,1.34.48,1.91Z"/><path class="cls-1" d="m308.48,387.95c-1.8-5.58-3.55-11.18-5.4-16.74-2.43-7.27-4.63-14.65-7.55-21.72-1.32-3.21-4.13-5.82-6.26-8.7-.51-.69-1.13-1.32-1.51-2.08-.22-.44-.27-1.3,0-1.54.32-.29,1.23-.35,1.58-.1,1.2.9,2.27,1.97,3.54,3.12-.33-1.46-.67-2.8-.93-4.16-.13-.7-.25-1.46-.12-2.14.07-.39.64-.69.99-1.04.35.37.9.67,1.03,1.11.98,3.14,1.8,6.33,2.81,9.46,2.83,8.73,5.7,17.44,8.62,26.14,1.76,5.26,3.65,10.47,5.48,15.7.31.9.61,1.8.92,2.71h-3.2Z"/><path class="cls-1" d="m427.76,387.95c1.36-5.7,2.77-11.39,4.05-17.11,1.49-6.64,2.77-13.34,4.31-19.97,1.36-5.82,2.94-11.59,4.46-17.38.47-1.79.98-3.58,1.64-5.31.24-.62.97-1.05,1.47-1.56.24.71.76,1.46.67,2.12-.27,1.86-.79,3.69-1.37,6.25,1.22-1.29,1.86-2.13,2.67-2.75.62-.47,1.46-.64,2.2-.94-.08.85.11,1.87-.3,2.51-.92,1.43-2,2.84-3.28,3.95-2.26,1.98-3.38,4.46-4.03,7.29-2.08,9.06-4.2,18.11-6.33,27.16-1.23,5.25-2.51,10.49-3.77,15.73h-2.4Z"/><path class="cls-1" d="m111.55,387.95c.28-3.64,1.25-6.92,4.76-8.8,1.81-.97,3.19-.36,3.06,1.61-.16,2.42-.92,4.79-1.42,7.18h-6.4Z"/><path class="cls-1" d="m88.74,387.95c-1.05-2.07-2.17-4.11-3.1-6.23-.19-.43.35-1.17.55-1.76.6.24,1.48.31,1.75.75.84,1.4,1.64,2.88,2.08,4.44.23.82-.3,1.86-.48,2.8h-.8Z"/><path class="cls-1" d="m531.95,335.45c-.52.46-.96,1.06-1.56,1.34-5.66,2.64-11.33,5.25-17.04,7.77-.64.28-1.53,0-2.31-.03.5-.63.87-1.53,1.52-1.84,5.56-2.69,11.17-5.3,16.8-7.85.68-.31,1.59-.13,2.4-.17.06.26.12.52.19.78Z"/><path class="cls-1" d="m531.58,344.89c-3.09,1.15-6.2,2.26-9.34,3.26-.3.1-1.02-.5-1.23-.92-.12-.26.27-1.09.59-1.2,3.06-1.02,6.15-1.94,9.41-2.95.29.17.87.33.97.64.11.32-.14,1.07-.4,1.17Z"/><path class="cls-1" d="m369.35,328.62c-.87,2.84-1.61,5.34-2.4,7.82-2.77,8.7-6.48,16.98-11.03,24.89-.53.91-1.03,1.86-1.72,2.65-.41.47-1.15.67-1.74.98-.07-.72-.43-1.58-.16-2.15,1.75-3.84,3.8-7.55,5.44-11.43,2.94-6.97,5.66-14.02,8.48-21.04.27-.68.52-1.39.93-1.98.29-.42,1.02-1.01,1.22-.91.48.26.77.89.98,1.16Z"/><path class="cls-1" d="m371.25,354.25c-1.22,3.54-2.35,6.86-3.52,10.16-.52,1.49-1.02,3-1.74,4.39-.37.71-1.19,1.18-1.81,1.77-.23-.85-.84-1.81-.63-2.54.94-3.28,2.13-6.48,3.21-9.72.5-1.49.84-3.05,1.45-4.49.25-.58,1.03-.92,1.58-1.37.47.58.93,1.15,1.46,1.8Z"/><path class="cls-1" d="m374.72,234.06c-.25-1.94-1.98-2.57-3.78-2.76-7.8-.84-15.59-1.71-23.4-2.5-.65-.07-1.84.18-1.93.52-.52,1.88-1.75,3.72-.2,5.78,4.18,5.58,10.04,7.78,16.54,8.72.56-.09,1-.16,1.45-.22,4.3-.6,6.9-3.89,9.94-6.43.8-.68,1.5-2.12,1.38-3.11Zm-22.29,3.07c.49-.33.9-.45,1.01-.69,1.5-3.41,4.24-2.96,7.16-2.54,3.39.48,6.82.64,10.21.94-3.72,5.58-7.9,7.36-18.38,2.29Z"/><path class="cls-1" d="m380.96,171.21c5.87.52,11.06,1.33,15.14,5.03,3.6,3.27,6.92,6.86,8.18,11.79.15.58-.25,1.3-.4,1.96-.47-.3-1.1-.5-1.39-.92-2.83-4.05-6.52-7.13-11.09-8.82-4.69-1.73-9.6-2.85-14.4-4.28-.68-.2-1.3-.61-1.95-.92.57-.99.91-2.43,1.75-2.86,1.41-.71,3.15-.77,4.16-.98Z"/><path class="cls-1" d="m348.43,213.48c.83-2.68,1.29-5.55,2.55-8.01,3.79-7.38,7.87-14.61,11.91-21.85.27-.48,1.23-.57,1.86-.84.04.66.32,1.44.07,1.96-3.02,5.99-6.29,11.87-9.11,17.95-1.44,3.1-2.48,6.49-3.03,9.85-.47,2.87,1.49,4.77,4.41,5.65.65.2,1.13.95,1.69,1.44-.78.45-1.58,1.32-2.34,1.29-4.69-.18-7.09-2.62-8-7.45Z"/><path class="cls-1" d="m376.47,192.64c-1.38.14-2.62.4-3.86.33-.62-.04-1.21-.67-1.81-1.03.46-.45.84-1.16,1.38-1.3,7.99-2.11,15.35-1.39,21.33,5.05.93,1.01,1.89,2.03,2.59,3.19.33.54.09,1.43.12,2.16-.72-.12-1.63,0-2.13-.4-1.32-1.05-2.34-2.5-3.7-3.47-1.81-1.29-3.82-2.3-5.78-3.35-.19-.1-.92.32-1,.62-.82,2.9-2.73,4.74-5.56,5.46-.95.24-2.56.1-3.02-.51-.63-.84-.76-2.35-.52-3.44.25-1.12,1.21-2.09,1.97-3.29Z"/><path class="cls-1" d="m343.94,185.96c-2.33.35-4.24.77-6.16.86-1.1.06-2.22-.42-3.34-.65.87-.64,1.65-1.51,2.62-1.9,5.5-2.21,11.07-2.51,16.48.2,1.59.8,2.92,2.2,4.19,3.5.34.34.03,1.31.02,2-.63-.02-1.53.23-1.84-.09-2.41-2.48-4.28-2.53-6.42.51-.82,1.16-2.79,1.69-4.34,2.09-.87.22-2.33-.11-2.84-.74-.51-.62-.35-1.99-.12-2.94.21-.85.93-1.57,1.74-2.84Z"/><path class="cls-1" d="m416.54,211.19c2.1,1.02,4.26,1.94,6.25,3.15.42.26.19,1.58.26,2.41-.73-.02-1.64.22-2.14-.12-2.3-1.56-7.3-.89-8.93.14-.23.14-.37.93-.21,1.1,2.1,2.29,1.19,7.22-.71,9.38-.4.46-1.22.56-1.84.83-.2-.68-.61-1.38-.56-2.04.14-1.74.74-3.47.68-5.19-.07-2.04-.93-2.31-2.61-1.19-.43.28-.87.59-1.35.74-.75.24-1.54.35-2.31.51.13-.79-.02-1.82.42-2.32,3.41-3.8,7.46-6.49,12.75-6.8.1-.2.2-.41.3-.61Z"/><path class="cls-1" d="m335.8,195.42c-.15-.2-.46-.45-.59-.78-.26-.62-.27-1.49-1.28-.59-.16.14-1.09-.17-1.13-.37-.36-1.86,1.25-2.27,2.39-2.91.79-.45,1.65-.77,2.1.7.62,2.04.08,4.08-1.49,3.95Z"/><path class="cls-1" d="m390.58,203.32c-.99.53-1.68,1.07-1.82.94-.83-.69-1.54-1.53-2.29-2.33.44-.28,1.08-.91,1.29-.79.89.5,1.65,1.23,2.82,2.18Z"/><path class="cls-1" d="m384.89,205.15c-.59-1.38-1.05-2.23-1.29-3.15-.06-.22.6-.62.93-.94.56.81,1.21,1.59,1.63,2.47.09.2-.58.76-1.27,1.62Z"/><path class="cls-1" d="m211.33,174.06c1.24-2.29,2.45-4.52,3.65-6.76,3.64-6.82,8.84-11.94,16.21-14.58,1.59-.57,3.32-.81,5.01-1,.33-.04.84.79,1.14,1.29.31.51.35,1.22.73,1.64.39.44,1.05.63,1.6.93-.57.51-1.06,1.21-1.72,1.51-2.22.98-4.56,1.68-6.75,2.72-5.8,2.76-10.89,6.46-14.8,11.63-.91,1.2-1.65,2.54-2.57,3.72-.25.33-1.04.58-1.37.42-.43-.21-.65-.85-1.11-1.54Z"/><path class="cls-1" d="m258.85,191.97c.03,3.91-.7,7.13-3.61,9.18-1.38.97-3.28,1.23-4.99,1.67-.31.08-.96-.5-1.17-.92-.12-.24.25-1.03.55-1.12,6.19-1.97,4.85-6.9,4.48-11.4-.26-3.19-1.73-5.86-3.61-8.41-1.94-2.63-3.98-5.31-5.26-8.28-.95-2.19-.85-4.87-1.03-7.34-.03-.46.87-.98,1.34-1.48.41.45,1.19.91,1.18,1.36-.06,5.56,3.28,9.39,6.75,13.03,3.86,4.03,5.03,8.93,5.38,13.72Z"/><path class="cls-1" d="m231.4,181.43c-1.01-.62-2.25-1.05-2.98-1.92-.95-1.12-1.56-.86-2.36-.04-2.12,2.17-4.2,4.38-6.39,6.48-.49.47-1.37.54-2.08.79.07-.7-.08-1.52.23-2.08,2.76-4.91,6.41-9.08,11.64-11.31,2.93-1.24,6.23-1.62,9.4-2.23.4-.08,1.22.69,1.38,1.21.1.34-.54,1.07-1.01,1.38-.46.3-1.12.31-1.69.43-1.71.34-3.63.2-2.06,3.1,1.08,2.01-.97,3.82-4.09,4.19Z"/><path class="cls-1" d="m263.67,164.96c1.63,1.62,2.86,2.93,1.59,4.68-.99,1.37-4.52,1.17-6.26-.23-.84-.67-1.79-2.14-2.38-1.99-1.61.39-3.06,1.44-4.56,2.25-.58.31-1.08.82-1.68.99-.39.11-1.07-.12-1.33-.44-.24-.3-.32-1.08-.1-1.36,3.37-4.23,11.64-8.68,17.69-6.73.55.18,1.23.39,1.53.82.49.71.73,1.61,1.07,2.43-.85.1-1.71.3-2.56.26-.83-.05-1.65-.35-3.01-.67Z"/><path class="cls-1" d="m197.03,205.05c-1.47,1.4-1.14,3.25-.18,5.26.29.6.15,1.4.21,2.11-.81-.23-1.85-.23-2.4-.74-2.73-2.6-2.42-6.77.48-9.15.36-.3.8-1.11.66-1.31-1.84-2.64-3.66-5.31-5.75-7.73-.63-.73-2.11-.69-3.16-1.1-.53-.2-1.31-.53-1.39-.92-.09-.43.37-1.23.8-1.47,2.43-1.34,5.7-.37,8.01,2.91,2.23,3.18,4.07,6.66,5.81,10.15.49.98.04,2.43.03,3.67-.98-.52-1.96-1.05-3.11-1.66Z"/><path class="cls-1" d="m255.86,216.7c-.3-.61-.43-1.42-.33-2.09.32-2.17-1.02-2.56-2.67-2.71-3.58-.32-6.64.99-9.28,3.23-2.49,2.11-2.11,4.77.82,6.13,1.23.58,2.68.71,3.93,1.02,1.83-.43,3.44-.73,4.99-1.21,2.12-.65,3.86-1.61,2.54-4.37Zm-6.71,2.11c-.03-.08-.06-.15-.08-.22-.47,0-.96.1-1.39-.03-.68-.2-1.32-.55-1.98-.85.87-.61,1.72-1.26,2.63-1.8.18-.11.63.14.91.3.91.54,1.8,1.12,2.7,1.68-.93.31-1.86.61-2.79.92Z"/><path class="cls-1" d="m247.73,229.54c-.96-.75-1.69-1.33-2.43-1.91.78-.43,1.51-1.01,2.34-1.27,2.25-.68,4.54-1.28,6.84-1.79.68-.15,1.46.13,2.19.21-.4.67-.65,1.7-1.23,1.95-2.44,1.04-4.98,1.84-7.71,2.8Z"/><path class="cls-1" d="m261,181.48c-.42-.39-1.03-.94-1.63-1.5.66-.34,1.3-.82,2-.99.95-.24,1.96-.36,2.93-.3.52.03,1.01.55,1.51.84-.34.43-.6,1.11-1.03,1.25-1.05.34-2.19.43-3.78.7Z"/><path class="cls-1" d="m231.63,188.72c-.86-.58-1.49-1-2.12-1.43.94-.45,1.86-1.07,2.85-1.26.45-.09,1.07.68,1.61,1.05-.72.5-1.43,1-2.34,1.63Z"/><path class="cls-1" d="m530.22,248.57c-.49-1.47-2.01-3.44-3.29-3.62-2.44-.34-5.02.48-7.56.74-5.83.58-11.66,1.17-17.51,1.65-2.28.19-4.65-.24-6.87.19-3.2.61-4.92,1.46-4.12,5.55.44,2.29,1.25,4.54,2.13,6.71,3.01,7.47,9.21,10.48,17.55,11.87,2-.57,4.98-.96,7.49-2.25,4.78-2.45,7.93-6.64,10.17-11.46,1.38-2.96,3.14-6.02,2.01-9.38Zm-17.5.91c3.26-.69,6.56-1.18,10.09-1.78-2.53,3.27-5.18,5.59-9.19,6.07-2.51.29-1.91-1.7-2.42-2.81-.11-.24.9-1.36,1.52-1.48Zm-12.27.76c2.14,0,4.42-.44,6.37.17,1.12.35,1.69,2.42,2.51,3.72-.33.09-.72.35-.98.26-2.75-1.01-5.48-2.07-8.21-3.12.1-.34.21-.68.31-1.03Zm9.19,17.84c-.19,0-.41.08-.58.01-1.62-.61-3.23-1.25-4.84-1.88,1.2-1.01,2.31-2.15,3.61-3,4.7-3.08,9.9-5.06,15.32-6.47.55-.14,1.14-.11,1.77-.17-2.37,5.88-7.68,11.64-15.28,11.51Z"/><path class="cls-1" d="m525.41,222.9c-1.88.34-3.16.68-4.46.77-.82.06-1.67-.26-2.51-.41.58-.59,1.15-1.21,1.76-1.77.23-.21.7-.21.85-.44.29-.45.48-.98.63-1.51.22-.79.38-1.59.56-2.39.56.48,1.08,1,1.67,1.44.64.48,1.34.88,2.01,1.31.09-.5.04-1.11.31-1.49.29-.41,1.02-.98,1.3-.86,4.46,1.9,8.97,3.71,13.26,5.96,1.43.75,2.42,2.56,3.31,4.06.4.66.06,1.77.05,2.67-.79-.39-1.87-.57-2.33-1.2-1.73-2.37-3.82-4.17-6.55-5.25-.84-.33-1.04-.19-1.73.56-1.61,1.73-3.56,3.31-5.67,4.34-.96.47-2.99-.08-3.89-.88-1.25-1.12-.36-2.68.54-3.91.14-.2.32-.37.88-1.01Z"/><path class="cls-1" d="m495.11,220.47c-1.69.9-3.17,1.73-4.7,2.46-.54.26-1.21.23-1.82.34-.06-.53-.02-1.11-.22-1.58-.17-.4-.72-.64-.92-1.04-.42-.86-1.25-2.08-.95-2.6.71-1.24,1.5-.29,2.32.38.63.51,1.63.57,2.76.93-.4-.82-.8-1.28-.81-1.74,0-.78.23-1.57.37-2.36.6.42,1.16.94,1.82,1.24.75.34,1.71.88,2.37.67,4.82-1.52,9.11-.33,12.1,3.26.51.61.38,1.76.54,2.66-.78-.23-1.77-.25-2.31-.74-2.78-2.53-3.13-2.5-4.66.87-.82,1.82-2.12,2.95-4.21,2.51-1.34-.28-2.34-3.3-1.68-5.25Z"/><path class="cls-1" d="m515.36,216.42c-.31,4.59-1.26,8.52-5.2,11-1.47.92-3.22,1.39-4.78,2.18-1.34.68-2.7,1.4-3.87,2.33-1.84,1.47-1.87,3.02-.35,4.87.42.51.95.97,1.21,1.55.19.44.22,1.19-.04,1.52-.25.31-1.02.45-1.46.33-3.86-1.09-5.66-7.24-2.61-9.78,2.36-1.97,5.27-3.38,8.11-4.63,3.75-1.66,5.94-4.2,6.1-8.35.01-.38-.04-.8.09-1.14.32-.81.74-1.59,1.11-2.39.56.84,1.13,1.68,1.69,2.51Z"/><path class="cls-1" d="m532.98,204.52c7.1.32,10.62,3.86,13.59,8.15.82,1.19,1.48,2.53,1.93,3.9.21.65-.23,1.52-.38,2.29-.59-.41-1.44-.69-1.72-1.25-1.56-3.11-3.57-5.79-6.4-7.86-4.12-3.01-8.33-2.3-12.64-.53-.66.27-1.52.06-2.28.07.43-.73.69-1.82,1.32-2.11,2.53-1.17,5.17-2.1,6.58-2.65Z"/><path class="cls-1" d="m514.78,206.56c-.28.43-.45.98-.78,1.11-.32.13-.89-.04-1.23-.26-5.72-3.69-10.63-3.33-16.32,1.18-1.17.93-2.43,1.77-3.74,2.5-.45.25-1.17.04-1.76.04.1-.58,0-1.36.34-1.71,3.72-3.8,7.75-7.27,13.31-7.79,3.57-.34,6.92.6,9.41,3.49.33.38.5.9.78,1.44Z"/><path class="cls-1" d="m573.41,241.58c3.04,2.02,3.69,4.74,3.01,7.78-.17.76-1.22,1.33-1.87,1.99-.23-.73-.55-1.45-.68-2.2-.17-.96.01-2.03-.32-2.92-1.03-2.8-2.01-2.89-3.94-.67-.43.49-1.26.62-1.9.92-.03-.71-.36-1.62-.04-2.09,2.73-3.99,5.6-7.96,10.91-8.54,1.19-.13,2.52.69,3.7,1.26.28.14.37,1.11.2,1.57-.12.33-.99.74-1.24.6-3.33-1.81-5.25.8-7.83,2.3Z"/><path class="cls-1" d="m571.57,251.45c-.36,2.8-1.38,4.51-3.17,4.46-1.85-.04-3.58-1.41-3.62-3-.05-2.14,1.72-4.06,3.9-3.65,1.19.22,2.16,1.61,2.88,2.19Z"/><path class="cls-1" d="m152.56,236.88c-.57-1.77-1.83-3.03-3.73-2.87-6.16.48-12.3,1.23-18.46,1.68-1.78.12-3.61-.5-5.44-.66-.61-.05-1.34.11-1.86.42-1.19.71-2.54,1.38-3.36,2.42-.97,1.23-1.53,2.82-2.06,4.32-.09.25.81.9,1.32,1.28.43.32,1.1.39,1.4.78.48.61.68,1.42,1.09,2.09,3.85,6.25,9.91,8.1,16.94,8.92,2.59-.87,5.22-1.61,7.75-2.62,6.09-2.41,7.71-11.77,6.41-15.76Zm-9.72,12.24c-3.5,1.79-6.95.83-10.41.19-3.14-.58-5.87-2.04-7.56-4.84-.68-1.12-1.25-2.58-1.11-3.8.07-.59,1.83-1.16,2.91-1.42,1.14-.29,2.37-.2,3.57-.27,6.71-.34,11.23,2.33,13.46,7.91.43,1.09.4,1.59-.86,2.23Z"/><path class="cls-1" d="m114.73,210.32c-2.92,4.08-5.43,7.66-8.03,11.17-.47.64-1.3,1.01-1.97,1.51-.24-.82-.94-1.89-.65-2.43,1.63-3.09,3.56-6.03,5.26-9.08,1-1.79,1.75-3.73,2.67-5.57.39-.78.92-1.48,1.39-2.21.43.78.88,1.55,1.26,2.36.13.28.08.65.13,1.16,2.12-2.45,2.7-5.19,2.75-8.15,0-.54.44-1.07.67-1.61.44.53,1.25,1.04,1.27,1.58.07,1.81-.07,3.64-.28,5.44-.09.77-.72,1.34.74,1.55.66.09,1.14,1.44,1.72,2.21,1.16,1.53,2.45,2.97,3.49,4.58.85,1.33,1.2,3.08-.22,4.09-1.02.73-2.66,1.09-3.91.89-2.34-.38-3.93-2.05-4.93-4.19-.36-.78-.66-1.59-1.36-3.3Z"/><path class="cls-1" d="m152.78,218.9c-.11,2.65-1.06,5.44-3.32,7.56-.65.61-1.96.51-2.96.73.01-.97-.1-1.96.07-2.91.41-2.37,1.28-4.71,1.28-7.06,0-.97-1.61-2.29-2.77-2.84-4.76-2.27-9.48-4.6-12.39-9.23-1.14-1.82-1.79-4-2.44-6.08-.2-.64.34-1.51.55-2.28.54.57,1.28,1.05,1.57,1.73,1.46,3.38,3.31,6.39,6.6,8.33.86.51,1.25.84,1.61-.45.13-.47.99-.73,1.52-1.09.08.57.36,1.2.2,1.68-.42,1.22-.1,1.76,1.13,2.19,1.85.65,3.64,1.5,5.42,2.33,2.93,1.37,3.98,3.85,3.94,7.37Z"/><path class="cls-1" d="m113.91,190.52c.72.09,1.5.04,2.15.31.69.28,1.27.86,1.89,1.31-.56.3-1.13.61-1.7.9-.11.06-.36.03-.37.08-.91,4.07-5.28,3.4-7.69,5.54-3.66,3.25-7.52,6.19-9.9,10.6-.28.52-.64,1.02-1.05,1.43-.32.31-.79.47-1.19.7-.24-.48-.78-1.04-.69-1.44,1.48-6.15,3.32-12.08,9.13-15.78,4.67-2.97,6.38-3.71,9.41-3.66Z"/><path class="cls-1" d="m83.84,240.26c-.4,0-.85.12-1.18-.03-.47-.22-.85-.64-1.26-.97.35-.4.63-1.01,1.07-1.18,2.62-1,5.24-.83,7.59.7,2.27,1.48,4.43,3.15,6.52,4.87.5.41.56,1.35.82,2.05-.66.13-1.32.22-1.96.4-.4.11-.99.26-1.1.55-.38.96-.49,2.03-.88,2.99-.25.62-.82,1.1-1.25,1.64-.54-.63-1.5-1.22-1.55-1.88-.1-1.33,0-2.83.55-4.02.78-1.72.03-2.44-1.3-3.05-1.94-.88-3.89-1.74-5.83-2.61-.07.18-.15.36-.22.53Z"/><path class="cls-1" d="m108.22,227.78c-.34-.84-.81-1.5-.66-1.69,1.06-1.4,2.23-2.73,3.43-4.01.05-.05.84.6,1.29.93-1.24,1.46-2.49,2.93-4.06,4.77Z"/><path class="cls-1" d="m116.71,223.23c-.59,1-.94,1.59-1.28,2.17-.52-.66-1.39-1.3-1.45-2-.06-.68.73-1.43,1.14-2.15.48.6.97,1.2,1.59,1.98Z"/><path class="cls-1" d="m145.85,203.56c.81,1.23,1.44,2.11,1.95,3.05.05.09-.89.86-.92.83-.72-.66-1.46-1.34-1.98-2.16-.13-.2.47-.88.96-1.72Z"/><path class="cls-1" d="m126.75,294.24c.1,1.95-1.93,1.49-3.24,1.56-1.06.06-2.12.01-3.23.01-5.89.7-10.94-1.65-15.84-4.58-1.69-1.01-3.51-1.82-5.11-2.95-.84-.6-1.32-1.69-1.97-2.55,1.02.03,2.16-.23,3.04.14,3.08,1.31,6.1,2.78,9.09,4.3,4.37,2.23,9.08,2.55,13.84,2.7,1.31.05,3.32-.46,3.42,1.37Z"/><path class="cls-1" d="m131.44,289.83c-.55.45-1.05,1.18-1.67,1.31-1.46.29-2.99.3-4.05.39-.57,0-.73.05-.83-.01-.79-.41-1.56-.84-2.34-1.27.83-.38,1.64-.96,2.51-1.11,1.56-.26,3.16-.35,4.74-.3.56.01,1.1.64,1.64.99Z"/><path class="cls-1" d="m208.48,341.67c2.16-.13,3,.74,3.04,2.36.05,1.85-1.3,3.15-3.29,3.09-1.72-.05-2.85-1.01-2.95-2.74-.09-1.59,1.59-2.73,3.2-2.71Z"/></svg>