<?xml version="1.0" encoding="UTF-8"?><svg id="OBJECTS" xmlns="http://www.w3.org/2000/svg" viewBox="0 0 650 517"><defs><style>.cls-1,.cls-2,.cls-3{stroke-width:0px;}.cls-2{fill:#ffe200;}.cls-3{fill:#fff;}</style></defs><circle class="cls-2" cx="318.73" cy="260.89" r="75.64"/><path class="cls-2" d="m180.18,252.8c-.62,12.49.38,25.34,4.87,37.11,3.92,10.28,10.53,19.49,19.64,25.78,4.87,3.37,10.42,5.77,16.26,6.81l-1.05-1.85c-3.82,9.53-2.69,20.26,1.39,29.5s11.39,16.73,19.64,22.45c4.79,3.32,9.95,6.07,15.27,8.46,1.75.78,3.27-1.8,1.51-2.59-17.29-7.75-34.72-21.01-36.96-41.25-.59-5.37.02-10.75,2.04-15.77.28-.71-.31-1.71-1.05-1.85-10.13-1.81-18.89-7.77-25.33-15.66-7.14-8.74-10.94-19.72-12.51-30.79-.95-6.74-1.07-13.58-.74-20.36.1-1.93-2.9-1.92-3,0h0Z"/><path class="cls-2" d="m250.78,382.8c3.99,1.34,8.28,1.77,12.46,1.22.61-.08,1.13-.31,1.37-.92s.1-1.17-.31-1.64c-2.08-2.36-4.15-4.72-6.23-7.08-.54-.61-1.57-.55-2.12,0-.6.6-.54,1.51,0,2.12,2.08,2.36,4.15,4.72,6.23,7.08l1.06-2.56c-3.94.52-7.89.15-11.66-1.12-.77-.26-1.64.3-1.85,1.05-.23.82.28,1.59,1.05,1.85h0Z"/><path class="cls-2" d="m196.93,148.63c10.06-18.69,26.96-33.51,46.72-41.23,5.57-2.18,11.35-3.79,17.24-4.81,1.9-.33,1.09-3.22-.8-2.89-21.48,3.72-41.42,15.44-55.39,32.13-3.96,4.73-7.45,9.85-10.38,15.28-.91,1.7,1.67,3.22,2.59,1.51h0Z"/><path class="cls-2" d="m253.08,99.43c4.88-.67,9.87-.24,14.59,1.12l-.36-2.74c-3.03,1.39-6.05,2.78-9.08,4.17-.74.34-.92,1.4-.54,2.05.44.76,1.31.88,2.05.54,3.03-1.39,6.05-2.78,9.08-4.17,1.22-.56.79-2.41-.36-2.74-5.27-1.53-10.76-1.87-16.19-1.12-.8.11-1.24,1.14-1.05,1.85.24.87,1.04,1.16,1.85,1.05h0Z"/><path class="cls-2" d="m135.65,294.03c-2.67-13.17-1.34-26.93,3.66-39.39.72-1.79-2.18-2.57-2.89-.8-5.2,12.96-6.43,27.31-3.66,40.98.38,1.89,3.28,1.09,2.89-.8h0Z"/><path class="cls-2" d="m133.95,258.21c3.31-3.32,6.61-6.64,9.92-9.96l-2.51-1.46c-.96,2.34-1.92,4.67-2.87,7.01-.3.73.32,1.68,1.05,1.85.87.2,1.53-.27,1.85-1.05.96-2.34,1.92-4.67,2.87-7.01.25-.6-.17-1.39-.69-1.69-.57-.34-1.35-.24-1.82.23-3.31,3.32-6.61,6.64-9.92,9.96-.57.57-.57,1.55,0,2.12s1.55.58,2.12,0h0Z"/><path class="cls-2" d="m448.3,324.77c-6.12-6.9-8.19-16.29-9.14-25.22-1.08-10.18-1.69-20.86,2.24-30.54,2-4.92,5.04-9.39,8.8-13.12,1.37-1.36-.75-3.48-2.12-2.12-7.43,7.38-11.71,17.12-12.53,27.53-.44,5.61-.06,11.28.47,16.87.46,4.84,1.15,9.69,2.52,14.36,1.54,5.28,3.98,10.24,7.64,14.37,1.28,1.45,3.4-.68,2.12-2.12h0Z"/><path class="cls-2" d="m444.9,254.69c.55-.34,1.12-.65,1.7-.93.27-.13.55-.26.82-.38-.32.14.18-.07.24-.09.14-.05.28-.11.42-.16,1.2-.44,2.43-.75,3.69-.96l-1.69-2.2c-1.42,2.4-2.24,5.06-2.51,7.83-.08.78.74,1.53,1.5,1.5.88-.04,1.42-.66,1.5-1.5.02-.17.02-.34.06-.51-.07.35,0-.03.02-.11.05-.29.1-.59.16-.88.13-.6.29-1.2.48-1.78.09-.28.19-.56.3-.84.05-.14.11-.28.17-.41-.13.32.05-.1.08-.17.26-.56.54-1.1.85-1.63s.25-1.19-.12-1.67c-.39-.51-.96-.64-1.58-.54-2.68.43-5.27,1.41-7.59,2.82-.67.41-.98,1.36-.54,2.05s1.34.97,2.05.54h0Z"/><path class="cls-2" d="m367.78,83.75c3.13,7.6,8.61,14.08,15.71,18.25,7.79,4.58,17.2,6.06,26.05,4.33,4.02-.79,8.35-2.24,11.19-5.35,2.61-2.87,3.9-7.56,1.68-11.04-1.1-1.73-3.12-2.5-5.01-1.53s-2.81,2.79-3.43,4.63c-1.27,3.78-.99,8.05.38,11.77,3.37,9.17,12.41,14.22,21.6,15.94,1.89.35,2.7-2.54.8-2.89-6.69-1.25-13.66-4.24-17.57-10.1-1.83-2.75-2.97-5.99-3.01-9.31-.02-1.69.23-3.38.83-4.97.35-.92,1.73-3.51,2.83-2.03,2.06,2.78-.21,6.82-2.49,8.6-2.81,2.19-6.61,3.12-10.07,3.64-7.41,1.11-15.23-.31-21.75-3.99s-11.94-9.72-14.83-16.75c-.72-1.76-3.63-.99-2.89.8h0Z"/><path class="cls-2" d="m368.31,88.5c-.03-2.59-.5-5.18-1.4-7.6l-2.2,1.69c2.76,2.06,6.23,2.79,9.6,2.33.78-.11,1.27-1.14,1.05-1.85-.28-.86-1.01-1.16-1.85-1.05.33-.05-.24.02-.3.02-.19.01-.37.02-.56.03-.33,0-.65,0-.98-.01-.19-.01-.37-.03-.56-.05-.18-.02-.19-.02-.02,0-.09-.01-.18-.03-.28-.04-.34-.06-.69-.13-1.03-.22s-.67-.19-1-.31c-.05-.02-.57-.23-.29-.11-.15-.06-.3-.13-.44-.2-.65-.32-1.27-.7-1.85-1.13-.47-.35-1.24-.21-1.67.12s-.75,1.02-.54,1.58c.42,1.13.75,2.28.98,3.47.05.28.1.57.14.85.02.11.02.1,0-.01l.02.16c.02.16.04.31.05.47.06.62.09,1.25.1,1.88,0,.78.68,1.54,1.5,1.5s1.51-.66,1.5-1.5h0Z"/><path class="cls-2" d="m373.9,403.17c17.22-.36,34.04-7.26,46.75-18.85,3.63-3.31,6.87-7,9.72-10.99,1.13-1.57-1.48-3.07-2.59-1.51-9.56,13.36-24.15,22.86-40.1,26.62-4.52,1.07-9.13,1.64-13.78,1.74-1.93.04-1.93,3.04,0,3h0Z"/><path class="cls-2" d="m422.81,374.08c2.85-1.21,5.71-2.42,8.56-3.63l-2.2-1.69c-.84,3.04-1.69,6.07-2.53,9.11-.21.76.26,1.67,1.05,1.85s1.62-.24,1.85-1.05c.84-3.04,1.69-6.07,2.53-9.11.16-.58-.07-1.21-.54-1.58-.52-.4-1.09-.36-1.67-.12-2.85,1.21-5.71,2.42-8.56,3.63-.73.31-.94,1.43-.54,2.05.49.75,1.28.87,2.05.54h0Z"/><path class="cls-2" d="m88.71,112.03c4.29,1.05,8.49,2.49,12.51,4.34.74.34,1.62.21,2.05-.54.38-.65.2-1.71-.54-2.05-4.26-1.95-8.67-3.52-13.22-4.64-1.87-.46-2.67,2.43-.8,2.89h0Z"/><path class="cls-2" d="m95.51,88.19c2.4,5.73,4.81,11.47,7.21,17.2.31.75.99,1.28,1.85,1.05.7-.19,1.36-1.09,1.05-1.85-2.4-5.73-4.81-11.47-7.21-17.2-.31-.75-.99-1.28-1.85-1.05-.7.19-1.36,1.09-1.05,1.85h0Z"/><path class="cls-2" d="m112,91.37c.26,2.63.52,5.26.77,7.89.08.78.64,1.54,1.5,1.5.75-.03,1.58-.66,1.5-1.5-.26-2.63-.52-5.26-.77-7.89-.08-.78-.64-1.54-1.5-1.5-.75.03-1.58.66-1.5,1.5h0Z"/><path class="cls-2" d="m276.78,25.1c-5.07,4.96-6.96,12.81-4.62,19.53.63,1.81,3.53,1.03,2.89-.8-2-5.74-.51-12.34,3.85-16.61,1.38-1.35-.74-3.47-2.12-2.12h0Z"/><path class="cls-2" d="m264.29,34.34c-1.05,4.01-1.13,8.2-.27,12.26.17.79,1.1,1.25,1.85,1.05.82-.23,1.22-1.05,1.05-1.85-.75-3.52-.65-7.18.27-10.66.49-1.87-2.4-2.67-2.89-.8h0Z"/><path class="cls-2" d="m528.66,80.69c-1.32,1.82-2.28,3.92-2.84,6.1-.19.76.25,1.66,1.05,1.85s1.64-.23,1.85-1.05c.13-.52.28-1.02.46-1.53.09-.25.19-.5.29-.74.06-.15.05-.12-.03.08.03-.06.05-.12.08-.18.05-.11.1-.21.15-.32.45-.95.98-1.85,1.6-2.7.22-.3.24-.82.15-1.16s-.36-.73-.69-.9c-.78-.41-1.56-.14-2.05.54h0Z"/><path class="cls-2" d="m526.07,92.42l-.37-.74c-.09-.17-.22-.32-.39-.42-.14-.13-.31-.22-.51-.27-.2-.06-.4-.07-.6-.03-.2,0-.39.07-.56.18l-.3.23c-.19.19-.31.41-.39.66l-.05.4c0,.27.07.52.2.76l.37.74c.09.17.22.32.39.42.14.13.31.22.51.27.2.06.4.07.6.03.2,0,.39-.07.56-.18l.3-.23c.19-.19.31-.41.39-.66l.05-.4c0-.27-.07-.52-.2-.76h0Z"/><path class="cls-2" d="m535.61,73.1c-4.19-1-8.47-1.97-12.8-1.34-3.75.55-7.1,2.37-9.31,5.48s-3.02,6.74-3.34,10.33c-.35,3.93.57,7.68,3.24,10.65s6.48,4.72,10.22,5.9l-1.1-1.45c-.08,1.07-.16,2.15-.24,3.22-.1,1.38,1.67,1.86,2.56,1.06s1.86-1.68,2.79-2.51,1.67-1.7,2.97-1.84c1.99-.22,3.79-.42,5.66-1.23,3.33-1.44,6.21-4.13,7.76-7.44,3.27-6.97.27-15.63-6.44-19.33-1.69-.93-3.21,1.66-1.51,2.59,5.87,3.23,8.18,11.03,4.51,16.76-1.76,2.74-4.63,4.74-7.81,5.41-1.82.38-3.63.08-5.24,1.21-1.72,1.21-3.25,2.85-4.81,4.26l2.56,1.06c.08-1.07.16-2.15.24-3.22.05-.67-.5-1.26-1.1-1.45-3.49-1.09-7.19-2.77-9.44-5.78-2.53-3.39-2.15-7.98-1.09-11.85s3.29-7.13,7.2-8.38c4.52-1.45,9.27-.29,13.73.78,1.88.45,2.68-2.44.8-2.89h0Z"/><path class="cls-2" d="m537.86,310.17c2.64,8.46,2.64,17.49,0,25.95-.58,1.85,2.32,2.64,2.89.8,2.78-8.94,2.78-18.61,0-27.55-.57-1.84-3.47-1.05-2.89.8h0Z"/><path class="cls-2" d="m547.5,329.47c-.46,4.76-2.1,9.33-4.68,13.35-1.05,1.63,1.55,3.14,2.59,1.51,2.87-4.48,4.58-9.57,5.09-14.86.08-.81-.74-1.5-1.5-1.5-.88,0-1.42.69-1.5,1.5h0Z"/><path class="cls-2" d="m263.22,431.61c4.54,1.87,9.29,3.05,14.16,3.63.81.1,1.5-.76,1.5-1.5,0-.89-.69-1.4-1.5-1.5-4.59-.54-9.1-1.76-13.37-3.52-.75-.31-1.65.33-1.85,1.05-.24.86.3,1.54,1.05,1.85h0Z"/><path class="cls-2" d="m271.39,440.6c-2.18.54-4.3,1.35-6.3,2.38-.7.36-.96,1.4-.54,2.05.46.71,1.3.92,2.05.54.46-.23.92-.46,1.38-.66.13-.06.27-.12.4-.18-.36.14-.04.02.05-.02.25-.1.51-.2.77-.3.98-.36,1.97-.67,2.99-.92.76-.19,1.29-1.09,1.05-1.85s-1.03-1.25-1.85-1.05h0Z"/><path class="cls-2" d="m274.58,448.35c-.99,1.36-1.98,2.72-2.97,4.09-.22.3-.24.82-.15,1.16s.36.73.69.9c.35.18.77.28,1.16.15s.65-.36.9-.69c.99-1.36,1.98-2.72,2.97-4.09.22-.3.24-.82.15-1.16s-.36-.73-.69-.9c-.35-.18-.77-.28-1.16-.15s-.65.36-.9.69h0Z"/><path class="cls-2" d="m90.35,359.59c-3.59,4.79-8.73,8.29-14.46,9.98-1.34.4-1.51,2.59,0,2.89,2.04.41,4.08.82,6.13,1.23,1.49.3,3.51.41,4.81,1.28,1.43.96.65,2.73-.18,3.85-1.01,1.37-2.3,2.47-3.17,3.96-.79,1.35.75,2.71,2.05,2.05.83-.42,1.67-.82,2.53-1.16.55-.22,1.91-.99,2.48-.87.3.06.15-.13.37.28.14.25.15.62.2.9.15.96.15,1.97.04,2.93-.29,2.53-1.47,5.7,1.63,6.94,1.79.72,2.57-2.18.8-2.89.19.07.02-.24.03-.42.02-.35.03-.68.09-1.02.14-.81.34-1.59.43-2.41.2-1.79.2-4-.66-5.64-.8-1.52-2.31-1.96-3.9-1.52-1.92.53-3.79,1.39-5.56,2.28l2.05,2.05c1.06-1.81,2.84-3.09,3.79-4.97s1.14-4.12-.23-5.81c-1.25-1.54-3.25-1.99-5.1-2.36-2.61-.53-5.23-1.05-7.84-1.58v2.89c6.54-1.93,12.17-5.92,16.25-11.36,1.16-1.55-1.44-3.04-2.59-1.51h0Z"/><path class="cls-3" d="m100.48,176.32c-.51,2.85.5,5.44,1.42,8.01,1.93,5.29,6.02,7.77,11.37,8.44.93.12,1.93-.21,3.13-.37-.09.5-.04,1.01-.27,1.31-.71.99-1.87,1.19-2.93,1.06-5.65-.73-10.45-2.76-12.73-8.57-.95-2.41-1.72-4.86-1.81-7.47-.03-.89.18-1.81.41-2.68.07-.26.61-.45.97-.5.11-.01.48.53.43.77Z"/><path class="cls-3" d="m185.26,138.67c.06,1,.07,2.03-.13,2.99-.85,4.16-2.36,8.06-5.44,11.08-1.21,1.2-1.48,2.47-1.39,4.05.22,3.94.99,7.78,1.89,11.61.83,3.53,1.07,7.09.43,10.68-.61,3.49-2.09,6.51-4.85,8.8-2.11,1.77-4.24,3.53-6.39,5.24-.45.34-1.02.56-1.58.69-.23.06-.67-.18-.81-.41-.13-.22-.14-.69.01-.9.33-.47.78-.86,1.21-1.25,1.69-1.5,3.36-3,5.09-4.46,3.73-3.17,5.11-7.33,5.04-12.05-.03-1.99-.3-4-.63-5.96-.67-4.1-1.42-8.18-1.62-12.37-1.41,7.2-2.84,14.36-4.83,21.38.41-.02.87-.06,1.45-.1.09.41.24.73.2,1.02-.73,4.94-3.24,8.7-7.63,11.14-1.17.65-2.38,1.21-3.61,1.75-.42.18-1.07.33-1.42.13-.96-.52-1.77-.1-2.64.13-.97.24-1.94.49-2.9.77-2.78.81-5.5.39-8.05-.78-2.05-.93-3.96-2.14-5.92-3.25-.5-.28-.95-.62-1.39-.92-3.55,3.53-5.76,4.01-11.09,2.45-.29,1.58-1.47,2.07-2.87,2.19-4.11.37-7.57-1-10.35-4.02-1.96-2.13-3.24-4.66-3.74-7.52-.17-.96-.03-1.98.1-2.96.03-.29.52-.51.81-.77.23.29.69.6.67.88-.14,2.39.83,4.41,1.99,6.37,2.05,3.45,5.05,5.48,9.07,5.96,1.2.14,2.31.08,3.31-.88-.85-1.08-1.71-2.08-2.44-3.18-.63-.97-1.14-2.04-1.62-3.09-.2-.43-.28-.97-.26-1.45.01-.28.29-.67.53-.76.22-.08.68.08.85.29.31.38.46.88.72,1.3.77,1.19,1.52,2.39,2.36,3.54,1.05,1.41,2.53,2.15,4.23,2.46,2.66.47,3.81.08,6.18-2.19-3.18-3.05-6.21-6.19-8.19-10.26-1.9-3.94-3.08-8.08-4.1-12.54-.67,1.27-1.19,2.37-1.81,3.41-.71,1.17-1.6,2.34-3.16,1.96-1.42-.34-1.75-1.69-1.96-2.95-.16-.98-.18-1.99-.27-3.16-.37-.24-.81-.61-1.32-.86-3.19-1.57-5.19-4.06-6.08-7.52-.92-3.56-1.11-7.09-.13-10.65.93-3.38,3.23-5.63,6.33-7,2.29-1.01,4.6-.69,6.59.95.89.73,1.69,1.59,2.62,2.47.04-2.13.01-4.2.16-6.24.11-1.49.36-2.98.73-4.43.23-.86.8-1.64,1.28-2.41.27-.42.68-.81,1.25-.55.6.29.45.81.24,1.29-.12.31-.3.6-.41.91-1.17,3.27-1.39,8.29-.48,11.97,2.65-4.14,5.61-7.95,6.58-12.79-.22-.09-.3-.17-.38-.16-.61.1-1.29.67-1.83-.06-.57-.75-.01-1.41.34-2.06.08-.13.2-.27.32-.38,3.25-2.82,5.37-6.54,7.97-9.86.9-.07,1.07.49.95,1.12-.31,1.58-1.01,3-1.98,4.28-.49.65-.97,1.29-1.65,2.2,1.8-.92,3.24-1.74,4.55-2.85,3.07-2.59,4.41-5.96,4.99-9.78.2-1.3-.67-2.18-1.12-3.41-.71.08-1.46.1-2.16.27-4.95,1.24-9.99,1.72-15.07,2.04-1.41.08-2.82.27-4.22.5-2.53.43-4.77,1.52-6.72,3.17-2.77,2.34-5.06,5.09-6.82,8.27-1.44,2.62-2.13,5.43-2.07,8.41.01,1.35.14,2.67-.58,3.92-.23.4-.19.97-.27,1.46-.47,2.97-.86,5.95-1.45,8.9-.66,3.24-2.33,6.08-4.04,8.85-2.58,4.2-5.32,8.3-7.86,12.52-1.28,2.14-2.49,4.36-3.36,6.7-1.79,4.89-1.44,9.67,1.36,14.18.98,1.58,2.21,2.93,3.94,3.74.3.14.63.28.86.5.22.21.51.61.43.81-.11.34-.49.82-.77.82-.71,0-1.51-.07-2.15-.37-3.27-1.58-5.3-4.32-6.53-7.6-1.83-4.84-1.52-9.67.46-14.41,1.22-2.95,2.96-5.61,4.71-8.26,2.35-3.55,4.75-7.07,7.1-10.63,2.37-3.59,3.98-7.47,4.67-11.77.59-3.72,1.1-7.41,1.29-11.18.26-5.14,2.08-9.76,5.65-13.61,1.77-1.9,3.63-3.69,5.9-5.01,2.9-1.67,6.06-2.37,9.37-2.35,4.7.03,9.34-.56,13.97-1.21,1.4-.2,2.78-.53,4.17-.8,5.37-1.06,10.5-.42,15.23,2.41,3.28,1.96,5.82,4.73,7.9,7.91,3.12,4.79,4.71,10.12,5.51,15.71.07.5.12,1,.21,1.49.03.14.16.28.24.43.14.02.33.13.43.08,3.86-1.91,7.89,2.46,8.1,5.81Z"/><path class="cls-3" d="m98.02,190.73s11.6,4.97,16.37,3.6c4.77-1.37,12.29-2.82,12.29-2.82l1.39-1.89s5.56,1.11,12.24-3.34l21.14,2.23s5.56,5.56,7.79,4.45,7.99-9.22,8.56-10.21,3.81-11.44.42-17.37c-3.39-5.93-.99-11.86-.99-11.86l-2.4-19.91-13.42-24.85-12.29-2.68-19.35,2.26s-14.69,1.55-18.22,12.29c-3.53,10.73-3.11,16.8-3.11,16.8,0,0-2.97,14.97-7.91,19.35-4.94,4.38-11.16,19.63-10.17,22.59s4.54,11.3,7.64,11.37Z"/><path class="cls-1" d="m185.12,141.66c.2-.97.19-1.99.13-2.99-.21-3.35-4.24-7.72-8.1-5.81-.1.06-.29-.06-.43-.08-.09-.16-.21-.29-.24-.43-.09-.49-.14-.99-.21-1.49-.8-5.6-2.39-10.93-5.51-15.71-2.08-3.18-4.62-5.95-7.9-7.91-4.73-2.84-9.86-3.47-15.23-2.41-1.39.27-2.77.6-4.17.8-4.63.66-9.27,1.25-13.97,1.21-3.31-.02-6.47.68-9.37,2.35-2.27,1.31-4.13,3.1-5.9,5.01-3.57,3.85-5.4,8.47-5.65,13.61-.19,3.77-.7,7.47-1.29,11.18-.69,4.31-2.3,8.18-4.67,11.77-2.35,3.56-4.75,7.08-7.1,10.63-1.75,2.65-3.48,5.31-4.71,8.26-1.98,4.74-2.28,9.57-.46,14.41,1.24,3.28,3.26,6.02,6.53,7.6.63.3,1.44.37,2.15.37.28,0,.66-.48.77-.82.08-.2-.21-.6-.43-.81-.22-.22-.56-.36-.86-.5-1.72-.81-2.96-2.16-3.94-3.74-2.79-4.51-3.15-9.29-1.36-14.18.87-2.34,2.08-4.56,3.36-6.7,2.54-4.22,5.27-8.32,7.86-12.52,1.71-2.77,3.38-5.61,4.04-8.85.59-2.95.98-5.93,1.45-8.9.08-.49.03-1.06.27-1.46.72-1.25.59-2.57.58-3.92-.06-2.98.63-5.8,2.07-8.41,1.76-3.18,4.05-5.93,6.82-8.27,1.95-1.65,4.2-2.74,6.72-3.17,1.4-.23,2.8-.42,4.22-.5,5.07-.31,10.12-.8,15.07-2.04.7-.17,1.45-.19,2.16-.27.46,1.22,1.32,2.1,1.12,3.41-.58,3.82-1.91,7.19-4.99,9.78-1.31,1.11-2.75,1.93-4.55,2.85.68-.91,1.16-1.56,1.65-2.2.97-1.28,1.67-2.7,1.98-4.28.12-.63-.04-1.19-.95-1.12-2.59,3.32-4.72,7.04-7.97,9.86-.12.11-.24.24-.32.38-.36.65-.91,1.31-.34,2.06.53.72,1.21.16,1.83.06.08-.01.16.07.38.16-.97,4.84-3.93,8.65-6.58,12.79-.91-3.68-.69-8.7.48-11.97.11-.31.29-.6.41-.91.2-.48.36-1-.24-1.29-.57-.27-.98.12-1.25.55-.48.78-1.05,1.56-1.28,2.41-.38,1.45-.62,2.94-.73,4.43-.14,2.05-.11,4.12-.16,6.24-.92-.88-1.72-1.74-2.62-2.47-1.99-1.64-4.3-1.96-6.59-.95-3.1,1.37-5.4,3.62-6.33,7-.98,3.56-.79,7.09.13,10.65.89,3.46,2.88,5.95,6.08,7.52.51.24.96.61,1.32.86.09,1.17.11,2.18.27,3.16.21,1.26.53,2.6,1.96,2.95,1.56.38,2.45-.79,3.16-1.96.62-1.03,1.15-2.14,1.81-3.41,1.01,4.46,2.19,8.6,4.1,12.54,1.98,4.07,5.01,7.21,8.19,10.26-2.37,2.27-3.52,2.66-6.18,2.19-1.7-.31-3.18-1.05-4.23-2.46-.83-1.15-1.59-2.35-2.36-3.54-.27-.42-.41-.92-.72-1.3-.17-.21-.62-.37-.85-.29-.24.09-.52.48-.53.76-.02.48.06,1.01.26,1.45.49,1.06.99,2.13,1.62,3.09.72,1.1,1.59,2.1,2.44,3.18-.99.96-2.1,1.02-3.31.88-4.02-.49-7.02-2.51-9.07-5.96-1.16-1.96-2.14-3.97-1.99-6.37.02-.28-.43-.59-.67-.88-.29.26-.78.48-.81.77-.13.98-.27,2-.1,2.96.5,2.86,1.78,5.4,3.74,7.52,2.78,3.02,6.24,4.38,10.35,4.02,1.4-.12,2.58-.61,2.87-2.19,5.33,1.56,7.54,1.08,11.09-2.45.45.3.89.65,1.39.92,1.96,1.11,3.87,2.31,5.92,3.25,2.55,1.17,5.26,1.59,8.05.78.97-.28,1.94-.52,2.9-.77.87-.23,1.68-.66,2.64-.13.36.2,1,.04,1.42-.13,1.22-.53,2.44-1.1,3.61-1.75,4.4-2.44,6.9-6.2,7.63-11.14.04-.29-.11-.61-.2-1.02-.58.04-1.03.08-1.45.1,1.99-7.02,3.42-14.18,4.83-21.38.2,4.2.96,8.28,1.62,12.37.33,1.97.6,3.97.63,5.96.07,4.72-1.31,8.88-5.04,12.05-1.72,1.46-3.39,2.96-5.09,4.46-.43.39-.88.78-1.21,1.25-.16.21-.14.68-.01.9.14.23.58.47.81.41.56-.13,1.14-.34,1.58-.69,2.15-1.71,4.27-3.47,6.39-5.24,2.76-2.29,4.24-5.31,4.85-8.8.63-3.59.4-7.16-.43-10.68-.9-3.83-1.67-7.67-1.89-11.61-.09-1.58.18-2.85,1.39-4.05,3.08-3.03,4.6-6.92,5.44-11.08Zm-63.7,24.14c-.92-.53-.58-1.4-.85-2.53.82.18,1.27.27,1.77.37.19.96-.21,1.59-.92,2.16Zm4.07-4.22c-.49-.61-.73-1-1.06-1.31-.28-.29-.65-.5-1.09-.83-.47.34-.91.67-1.64,1.19-3.46-.67-6.38-2.33-7.73-6.17-1.06-2.99-1.21-6.06-.71-9.14.47-2.92,2.29-4.96,4.92-6.23,1.51-.72,2.97-.26,4.25.61.68.46,1.28,1.1,1.76,1.77,1.74,2.47,2.1,5.32,2.01,8.35-.45-.67-.86-1.34-1.32-1.98-1.03-1.42-2.08-2.87-3.76-3.57-.91-.38-1.91-.6-2.89-.7-.36-.04-.97.37-1.14.72-.28.58.29.9.78,1.01,2.06.47,3.62,1.65,4.86,3.31.19.24.31.56.51.91-.63.37-1.22.67-1.77,1.03-1.69,1.14-2.63,2.76-2.92,4.75-.07.4-.08.89.11,1.21.22.39.63.83,1.03.92.59.12.82-.46.88-.98.18-1.54.63-2.93,1.86-3.97.79-.68,1.52-1.28,2.62-.4.26.2.89-.04,1.27-.08-.26,2.97-.53,6.09-.83,9.57Zm44.08,20.68c-.02.07-.04.12-.06.19-.02.01-.03.02-.06.03-.27.52-.53,1.06-.8,1.58-.14-.78.24-1.22.8-1.58.01-.02.02-.04.03-.07.02-.06.04-.1.08-.16.12-.48.26-.98.39-1.46.08.03.17.06.24.09-.21.46-.43.91-.63,1.37Zm3.93-34.52c-.78,8.5-2.2,16.89-4.45,25.14-.88,3.24-1.74,6.51-3.73,9.23-3.51,4.75-8.26,7.46-14.23,7.77-.72.04-1.49-.16-2.18-.41-3.33-1.21-6.37-2.95-9.01-5.32-2.82-2.51-5.52-5.12-7.26-8.54-2.79-5.52-4.62-11.25-4.18-17.55.13-2.08.03-4.17.02-6.25-.01-1.32.01-2.54.89-3.76.8-1.12,1.18-2.58,1.55-3.94.45-1.65,1.09-3.16,1.97-4.6,1.66-2.72,3.04-5.58,3.98-8.61.27-.88.56-1.77.62-2.67.08-.93.42-1.52,1.25-1.99,2.68-1.52,5.36-3.07,7.98-4.71,3.54-2.2,5.93-5.33,7.24-9.29.19-.59.46-1.17.81-2.08.52,1.1.78,1.9,1.24,2.57,2.03,2.94,4.92,4.41,8.39,4.86.9.11,1.81.22,2.73.24.26.01.67-.28.75-.51.07-.22-.12-.69-.34-.82-.7-.45-1.48-.76-2.2-1.18-1.95-1.14-3.06-2.76-2.89-5.11h-.01s-.01-.02-.02-.03c-1.6-.41-2.01-.11-1.87,1.35.04.49.2.97.32,1.46.1.39.21.78.4,1.5-1.58-.63-2.72-1.42-3.43-2.63-.71-1.19-1.2-2.5-1.77-3.72-1.99-.04-3.02.93-3.54,2.62-.45,1.42-1.03,2.77-2.21,4.23.26-1.65.61-2.92.61-4.2s-.36-2.6-.59-4.11c4.42-.33,8.57.38,12.07,3.49.01,0,.02.01.03.01v.02c.98.75,2.04,1.41,2.9,2.28,3.34,3.33,5.26,7.44,6.71,12.21-.7-.16-1.12-.27-1.56-.32-3-.38-5.35.98-7.39,2.96-.58.57-.6,1.37.4,1.99.36-.21.75-.48,1.18-.68,1.28-.59,2.54-1.28,3.88-1.69,1.91-.59,4.04.58,4.46,2.54.38,1.78.43,3.65.57,5.48.07.98-.71,1.47-1.41,1.91-.67.42-1.26.19-1.87-.41.32-.6.69-1.15.91-1.76.2-.53.28-1.12.31-1.69.01-.17-.26-.45-.46-.51-.2-.07-.5,0-.69.11-.2.11-.36.34-.47.56-.95,1.95-2.66,2.93-4.56,3.67-1.54.6-3.09,1.18-4.87,1.85-.14-1.69.41-3.19.59-4.72.07-.58.29-1.15.31-1.71.01-.26-.23-.67-.47-.76-.24-.1-.72,0-.89.2-.37.43-.68.95-.87,1.48-.26.7-.34,1.47-.56,2.18-.9,3.06-.65,5.86,1.31,8.56,1.29,1.77,1.7,3.96,2.04,6.13.22,1.4-.22,2.65-.72,3.89-.27.7-.66,1.35-1,2.03-.33.67-.29,1.34.24,1.84.61.57,1.26.23,1.79-.21,1.28-1.03,2.04-2.4,2.49-3.96.55-1.91.32-3.82-.12-5.7-.2-.81-.43-1.6-.63-2.34,2.58-3.26,2.64-3.37,3.25-6.8,1.28-.34,2.43.01,3.48.76.95.66,1.87,1.36,2.97,2.17.39,1.88-.02,3.96-.2,6.01Zm4.16,3.51c-.26.18-.53.32-1.03.63-.09-1.94-.04-3.62.41-5.37.58.31,1.06.59,1.77.98.13-.6.3-1.02.28-1.46-.01-.3-.23-.62-.43-.88-1.02-1.26-.7-2.48.09-3.67.62-.96,1.31-1.78,2.64-.97.18.11.69-.06.83-.26.16-.21.19-.66.08-.91-.5-1.24-1.57-1.72-2.85-1.21-.75.29-1.4.81-2.25,1.32-.29-1.35-.42-2.49.18-3.59.65-1.16,1.49-1.51,2.7-.96,1.84.83,2.82,2.34,2.85,4.34.04,2.63-.77,5.07-1.93,7.4-.86,1.72-1.74,3.43-3.34,4.61Z"/><path class="cls-1" d="m116.41,192.4c-.09.5-.04,1.01-.27,1.31-.71.99-1.87,1.19-2.93,1.06-5.65-.73-10.45-2.76-12.73-8.57-.95-2.41-1.72-4.86-1.81-7.47-.03-.89.18-1.81.41-2.68.07-.26.61-.45.97-.5.11-.01.48.53.43.77-.51,2.85.5,5.44,1.42,8.01,1.93,5.29,6.02,7.77,11.37,8.44.93.12,1.93-.21,3.13-.37Z"/><path class="cls-1" d="m152.36,138.45c.75-.26,1.5-.51,2.52-.86-.01.59.14,1.13-.07,1.4-.54.72-1.24,1.32-1.92,2.02-2.06-.18-3.9-2.09-6.03-1.05-.34,1.34-.47,2.61-.99,3.7-.45.93-1.23,1.79-2.06,2.43-1.41,1.08-2.85.32-2.92-1.48-.03-.81.15-1.63.24-2.44-.65-.34-1.72.43-1.94-.67-.17-.85.6-1.33,1.2-1.74,2.18-1.5,4.68-2.47,7.27-2.32,2.16.12,3.26-.85,4.24-2.4.22-.35.3-.8.55-1.11.18-.21.6-.4.84-.33.24.07.57.49.54.72-.1.73-.26,1.48-.55,2.14-.26.59-.74,1.09-1.12,1.63.06.12.12.24.18.36Z"/><path class="cls-1" d="m144.92,163.75c-.22.43-.29.69-.46.86-.61.63-1.24.59-1.58-.11-.14-.29-.28-.63-.29-.94-.02-.98.38-1.82,1.18-2.37.91-.64,1.77-1.61,3.25-.83-.2.56-.38,1.08-.57,1.63.13.19.26.41.43.59,2.51,2.68,5.65,3.41,9.15,2.85,1.23-.2,2.43-.6,3.64-.92.4-.1.81-.33,1.2-.3.36.03.81.23,1.03.51.37.47.1.95-.29,1.32-.18.17-.39.32-.61.43-2.85,1.37-5.85,1.97-8.99,1.65-2.05-.21-3.85-1.07-5.29-2.59-.51-.54-1.06-1.05-1.8-1.76Z"/><path class="cls-1" d="m151.9,126.21c.55.18,1.25.28,1.8.63.53.34.98.87,1.29,1.42.15.27,0,.88-.22,1.12-.22.23-.85.38-1.09.23-2.91-1.79-5.77-.97-8.61.11-1.16.44-2.23,1.11-3.36,1.66-.52.25-1.05.53-1.6.66-.25.06-.68-.14-.83-.36-.15-.21-.13-.63-.03-.9.11-.3.35-.58.6-.78,3.24-2.48,6.69-4.38,10.98-3.93.33.03.66.09,1.08.15Z"/><path class="cls-1" d="m150.66,171.11c.58-.21,1.02-.55,1.4-.48,1.14.19,2.26.47,3.44.2.24-.05.79.24.79.37,0,.36-.14.96-.37,1.04-.83.3-1.73.55-2.61.57-1.01.03-1.96-.31-2.65-1.71Z"/><path class="cls-3" d="m540.2,150.76c-.48.11-.98.19-1.48.22-1.21.07-1.52.8-1.47,2.01.4.16.86.3,1.28.51.41.21.79.5,1.28.81-.79,1.32-2.03.76-3.18,1.09-.27.41-.62.97-1,1.5-.71,1.01-1.34,2.14-2.2,3-1.06,1.07-1.34,2.14-1.02,3.59.38,1.79.5,3.63.75,5.44,1.01,7.22-4.43,13.3-11.4,14.1-1.81.21-3.61.3-5.29,1.22-1.15.63-2.39.49-3.51-.42-.39-.32-1.07-.46-1.59-.4-2.82.29-5.62.68-8.44,1.03-.16.02-.32.09-.49.11-1.99.26-2.4-.12-2.41-2.21-17.12,1.14-17.1-.03-29.57-4.18-1.39,2.1-3.1,3.16-5.42,1.57-.99,2.07-1.62,2.48-3.55,2.17-2.14-.36-4.27-.73-6.35-1.32-1.08-.3-2.08-1-3.04-1.65-2.84-1.95-4.8-4.65-5.9-7.87-.97-2.85-.68-5.8.13-8.64,1.14-3.93,2.55-7.76,4.35-11.44.73-1.5,1.26-3.05,1.64-4.7,1.39-5.99,4.43-11.14,8.59-15.59,4.74-5.06,10.43-8.7,16.83-11.43,6.16-2.63,12.63-3.65,19.18-4.32,3.31-.34,6.64-.78,9.97-.31,7.16.99,14.05,2.76,20.2,6.78,3.67,2.39,5.94,5.73,7.07,9.94.93,3.55,1.06,7.07-.16,10.64,1.88,1.89,3.29,4.01,3.72,6.77.83.06,1.59.01,2.29.19.42.1.98.46,1.1.82.19.58-.4.83-.91.95Z"/><path class="cls-1" d="m541.11,149.81c-.12-.37-.68-.72-1.1-.82-.7-.18-1.46-.13-2.29-.19-.42-2.76-1.84-4.87-3.72-6.77,1.21-3.57,1.09-7.09.16-10.64-1.12-4.21-3.39-7.54-7.07-9.94-6.14-4.02-13.04-5.79-20.2-6.78-3.33-.47-6.67-.03-9.97.31-6.55.67-13.02,1.69-19.18,4.32-6.4,2.73-12.09,6.37-16.83,11.43-4.16,4.45-7.2,9.6-8.59,15.59-.38,1.65-.9,3.19-1.64,4.7-1.8,3.68-3.22,7.51-4.35,11.44-.81,2.84-1.1,5.79-.13,8.64,1.1,3.22,3.06,5.92,5.9,7.87.96.65,1.96,1.35,3.04,1.65,2.08.59,4.22.97,6.35,1.32,1.93.31,2.56-.1,3.55-2.17,2.31,1.59,4.03.53,5.42-1.57,12.46,4.15,12.45,5.32,29.57,4.18.01,2.09.42,2.47,2.41,2.21.17-.02.33-.09.49-.11,2.82-.36,5.62-.75,8.44-1.03.52-.06,1.2.08,1.59.4,1.11.91,2.36,1.06,3.51.42,1.68-.92,3.47-1.01,5.29-1.22,6.97-.8,12.41-6.88,11.4-14.1-.24-1.81-.37-3.65-.75-5.44-.31-1.46-.03-2.53,1.02-3.59.87-.87,1.49-1.99,2.2-3,.38-.53.73-1.09,1-1.5,1.16-.33,2.39.23,3.18-1.09-.49-.31-.87-.6-1.28-.81-.42-.21-.88-.36-1.28-.51-.06-1.21.26-1.95,1.47-2.01.5-.03,1-.11,1.48-.22.51-.11,1.1-.37.91-.95Zm-45.02-27.75c2.07.06,4.15.02,6.21.1.8.03,1.59.29,2.39.45-9.06,1.37-18.11,2.18-27.56,2.68,6.7-1.91,13.62-3.38,18.96-3.23Zm39.03,27.29c-.58,1.03-2.33.81-2.05,2.55.57.12,1.17.26,1.76.39-.03.22-.01.46-.1.52-.33.24-.7.45-1.06.63-1.32.71-1.34.87.08,2.14-2.39,4.6-6.47,6.88-11.32,8.26-.4-.55-.76-1.05-1.25-1.71-.43.45-.85.72-1.07,1.1-1.26,2.28-2.85,4.31-4.7,6.13-.7.7-1.51,1.27-2.28,1.9-.38.31-.8.6-1.1.98-1.96,2.43-4.67,3.71-7.39,5-.29.14-.72.1-.93.3-2.44,2.38-5.63,2.27-8.65,2.56-7.22.7-14.07-.9-20.77-3.46-4.42-1.7-8.4-4.11-11.93-7.18-4.27-3.74-6.93-8.57-7.89-14.14-.82-4.75-.16-9.43,1.94-13.88,2.08-4.44,4.82-8.36,8.47-11.64,1.75-1.58,3.75-2.45,6.1-2.37,9.44.31,18.81-.51,28.18-1.45,4.06-.4,8.15-.65,12.14-1.5,1.74-.38,2.72.92,4.08,1.35-.8,5.35-.32,10.35,1.11,15.3.72,2.48,1.01,5.05.62,7.67-.09.63-.03,1.34.13,1.96.09.31.55.69.88.72.32.04.8-.22,1.02-.5.28-.39.36-.92.57-1.37,1.19-2.65,2.89-4.8,5.54-6.19,2.14-1.12,4.17-1.05,6.19.09,2.3,1.3,3.88,3.1,3.66,5.84Z"/><path class="cls-1" d="m501.07,138.98c.4,1.58.74,2.69.94,3.82.23,1.27-.26,2.35-1.36,2.98-1.17.67-2.39.61-3.51-.26-.89-.7-1.54-1.57-1.57-2.72-.03-1.07.12-2.14.2-3.45-.99.18-1.92.41-2.86.5-.34.03-.89-.15-1.03-.4-.27-.5.06-.97.56-1.2,2.15-1.01,4.45-1.35,6.79-1.46,2.27-.1,4.5.17,6.59,1.13,1.28.59,2.51.79,3.79.04.1-.06.3.07.61.15l-.1,1.6c.25.09.51.27.7.22.63-.18,1.22-.5,1.85-.65.33-.08.73.11,1.1.18-.09.38-.07.89-.31,1.1-1.31,1.16-2.81,1.78-4.58,1.11-.86-.32-1.68-.72-2.55-1.02-1.63-.55-3.28-1.06-5.26-1.69Z"/><path class="cls-1" d="m475.1,137.72c.58,1.16.99,1.87,1.3,2.62.6,1.5.37,2.91-.48,3.42-.94.57-2.62.22-3.59-.93-.56-.67-.9-1.54-1.29-2.35-.17-.35-.18-.78-.25-1.09-1.53.4-2.95.78-4.37,1.12-.4.09-.86.16-1.23.04-.34-.11-.78-.44-.84-.75-.05-.27.28-.76.58-.92.5-.26,1.1-.33,1.75-.51.25-.84-1.07-1.64.03-2.59.26.07.65.12.98.29,1.44.75,2.79,1,4.46.39,2.76-1.01,5.68-1.17,8.58-.49.55.13,1.11.36,1.59.65.21.13.39.58.33.83-.06.26-.4.59-.66.63-.56.08-1.15.01-1.73-.02-1.57-.09-3.14-.2-5.15-.33Z"/><path class="cls-1" d="m493.72,132.22c.54-.58.79-1.01,1.17-1.23,5.2-2.92,12.92-1.72,17.02,2.63,1.04,1.1,1.33,1.98.74,2.31-1.01.56-1.52-.36-2.09-.86-3.8-3.4-8.22-4.05-13.03-3.04-.73.15-1.45.4-2.18.48-.42.05-.87-.14-1.64-.29Z"/><path class="cls-1" d="m478.52,147.45c.17-2.22,1.07-3.77,2.5-5.02.69-.6,1.45-1.12,2.14-1.72,1.15-.99,2.09-2.14,2.52-3.63.11-.4.24-.8.45-1.15.1-.17.43-.31.64-.28.2.03.5.25.54.44.08.39.1.83,0,1.22-.43,1.82-1.3,3.4-2.7,4.67-.68.61-1.37,1.22-2.07,1.8-1.74,1.45-2.19,3.28-1.5,5.38.28.86.72,1.68,1.08,2.51.21.47.43.97-.07,1.35-.61.46-1.12.06-1.52-.37-1.43-1.54-1.97-3.43-2.01-5.2Z"/><path class="cls-1" d="m464.11,134.07c1.37-1.9,3.09-2.91,4.81-3.85,3.23-1.76,6.7-2.52,10.37-1.83.96.18,1.9.58,2.78,1.01.27.13.53.74.45,1.03-.08.28-.58.52-.95.62-.29.08-.65-.05-.97-.14-4.37-1.18-8.4-.24-12.24,1.92-.94.53-1.84,1.15-2.82,1.59-.3.14-.81-.18-1.44-.35Z"/><path class="cls-1" d="m481.63,162.62c-1.74-.5-3.49-.99-5.22-1.53-.38-.12-.74-.37-1.05-.62-.38-.31-.16-1.16.33-1.19.65-.04,1.36-.07,1.95.15,4.22,1.54,8.16.78,11.98-1.28.65-.35,1.35-.63,2.05-.87.17-.06.55.07.64.23.15.25.27.65.17.89-.15.36-.45.72-.77.93-3.03,1.99-6.18,3.62-10.06,3.29Z"/><path class="cls-1" d="m526.73,150.46c.63.64,1.24,1.2,1.76,1.84.31.37.49.86.67,1.32.19.48.24,1.02-.27,1.34-.55.34-.93-.07-1.23-.47-.74-.99-1.36-2.1-2.69-2.4-1.35.66-1.31,2.27-2.15,3.21-1.22-.55-1.54-.92-1.31-1.74.2-.7.46-1.49.94-2,1.43-1.49,2.92-2.93,4.52-4.23.59-.48,1.51-.64,2.31-.74.83-.1,1.46.46,1.67,1.2.2.71-.35,1.5-1.01,1.25-1.54-.59-2.28.32-3.21,1.42Z"/><path class="cls-1" d="m527.76,159.54c-.12,1.26-1.12,2.15-2.32,2.07-1.22-.08-2.29-1.21-2.14-2.26.18-1.32,1.4-2.4,2.52-2.23,1.32.2,2.06,1.13,1.94,2.42Z"/><path class="cls-1" d="m485.36,165.81c-.24,1.27-1.27,1.41-2.21,1.57-.84.14-1.64-.05-2.2-.8-.24-.32-.05-.98.33-1,1.14-.09,2.28-.14,3.42-.16.2,0,.41.23.66.39Z"/><path class="cls-3" d="m532.51,308.82c2.17,3.76,2.79,7.86,2.68,12.11-.04,1.44-.22,2.89-.51,4.31-.66,3.26-1.42,6.49-2.25,10.23,1.62,2.74,2,5.92,1.15,9.34-.8,3.25-1.75,6.42-3.48,9.31-.31.51-.55,1.14-.98,1.5-1.87,1.58-2.15,3.71-2.3,5.95-.2,3.06-.57,6.12-.78,9.18-.26,3.84-.48,7.67-.61,11.51-.07,1.88.14,3.76.16,5.64,0,2.47-.96,3.26-3.36,2.68-1.24-.3-2.43-.78-3.63-1.24-5.13-1.94-10.4-3.27-15.91-3.59-2.38-.14-4.77-.33-7.16-.33-1.78,0-3.57.24-5.35.4-1.78.17-3.59.16-5.32.56-4.66,1.06-9.24,2.39-13.62,4.36-3.35,1.49-6.83,2.67-10.28,4.01-.49-.32-.9-.63-1.35-.85-1.17-.56-1.52-1.56-1.56-2.73-.04-1.54-.09-3.08-.04-4.62.18-6.48.31-12.96.61-19.44.12-2.72.6-5.41.92-8.11-1.24,1.95-2.23,4.73-3.51,10.89-.8,3.85-1.29,7.76-1.98,11.62-.68,3.86-.62,7.77-.58,11.6-.97.33-1.4-.1-1.55-.71-.21-.91-.41-1.86-.38-2.78.07-2.47.17-4.95.45-7.41.63-5.51,1.38-10.99,2.88-16.37,1.36-4.86,3-9.61,5.01-14.24.49-1.11.8-2.2.83-3.44.12-4.86.27-9.73.5-14.59.11-2.21.41-4.42.65-6.63.04-.41.13-.85.3-1.24,2.15-4.94,4.34-9.86,7.88-14.01,4.67-5.48,10.23-9.76,17.04-12.31,2.64-.99,5.26-2.01,7.88-3.05,1.77-.7,3.61-1.07,5.49-1.15,4.87-.21,9.74-.33,14.53.75,3.29.76,6.1,2.64,9.1,4.04,1.31.61,2.54,1.42,3.78,2.17,2.14,1.27,3.74,2.96,4.24,5.5.08.41.21.83.41,1.19Z"/><path class="cls-1" d="m532.51,308.82c-.2-.36-.33-.78-.41-1.19-.5-2.54-2.1-4.23-4.24-5.5-1.25-.75-2.47-1.56-3.78-2.17-3-1.4-5.81-3.28-9.1-4.04-4.8-1.08-9.66-.96-14.53-.75-1.88.08-3.72.45-5.49,1.15-2.62,1.03-5.24,2.06-7.88,3.05-6.81,2.55-12.36,6.83-17.04,12.31-3.54,4.15-5.73,9.07-7.88,14.01-.17.39-.26.82-.3,1.24-.23,2.21-.53,4.42-.65,6.63-.23,4.86-.38,9.73-.5,14.59-.03,1.24-.34,2.33-.83,3.44-2,4.63-3.65,9.38-5.01,14.24-1.5,5.37-2.25,10.86-2.88,16.37-.28,2.46-.38,4.94-.45,7.41-.03.92.17,1.87.38,2.78.14.61.58,1.05,1.55.71-.04-3.83-.1-7.73.58-11.6.69-3.86,1.18-7.77,1.98-11.62,1.28-6.16,2.27-8.95,3.51-10.89-.32,2.7-.8,5.4-.92,8.11-.3,6.48-.43,12.96-.61,19.44-.04,1.54,0,3.08.04,4.62.03,1.17.39,2.17,1.56,2.73.45.21.86.52,1.35.85,3.45-1.34,6.93-2.51,10.28-4.01,4.38-1.97,8.96-3.31,13.62-4.36,1.72-.4,3.54-.39,5.32-.56,1.78-.16,3.57-.4,5.35-.4,2.38,0,4.77.19,7.16.33,5.51.32,10.78,1.66,15.91,3.59,1.2.46,2.39.93,3.63,1.24,2.4.58,3.36-.21,3.36-2.68-.01-1.88-.22-3.76-.16-5.64.13-3.84.36-7.67.61-11.51.21-3.06.58-6.12.78-9.18.16-2.25.43-4.37,2.3-5.95.43-.37.67-.99.98-1.5,1.74-2.89,2.68-6.06,3.48-9.31.86-3.42.48-6.6-1.15-9.34.82-3.74,1.59-6.97,2.25-10.23.29-1.41.47-2.87.51-4.31.11-4.25-.51-8.35-2.68-12.11Zm-2,34.45c-.43,3.51-1.67,6.79-3.39,9.86-1.05,1.87-2.44,3.54-4.38,4.56-1.8.96-3.67,1.81-5.54,2.62-.5.22-1.15.11-1.91.16.09-.98.23-1.8.19-2.62-.02-.32-.39-.73-.71-.9-.18-.09-.72.17-.85.39-.39.76-.72,1.55-.97,2.35-.98,3.2-2.35,6.22-4,9.14-3.24,5.73-7.95,9.73-14,12.21-.96.39-1.9.76-2.85,1.17-4.86,2.1-9.36,1.11-13.57-1.74-2.44-1.65-4.28-3.84-5.7-6.47-4.38-8.15-7.16-16.77-8.18-25.96-.04-.42-.1-.86-.12-1.28-.21-4.52-.46-9.04-.62-13.57-.19-4.84,1.25-9.37,3.71-13.4,1.76-2.89,4.57-4.99,7.9-6.2,3.71-1.35,7.48-2.4,11.37-2.99,1.85-.27,3.75-.18,5.63-.29,1.45-.08,2.88-.23,4.33-.34,1.39-.11,2.64-.61,3.83-1.35,2.09-1.28,4.26-2.4,6.65-3.1-2.82,2.3-6.77,3.15-8.59,6.62.04,1,.67,1.45,1.32,1.87.57.38,1.24.63,1.72,1.09,2.33,2.23,5.13,3.61,8.06,4.86,2.62,1.11,4.41,3.02,5.3,5.86.88,2.84,1.12,5.68.96,8.59-.08,1.45.22,2.98-.14,4.33-.38,1.34-1.41,2.48-2.1,3.74-1.8,3.24-2.99,6.7-3.74,10.32-.17.81-.08,1.69.01,2.53.02.23.45.58.7.59.26.02.67-.26.77-.5.21-.55.29-1.15.39-1.72.24-1.44.5-2.85,1.21-4.17.34.63.63,1.19.97,1.83.34-.23.63-.32.72-.51.18-.38.28-.8.36-1.21.13-.76.22-1.51.36-2.27.93-5.04,2.35-7.23,6.44-10.25,1.71-1.27,3.55-1.56,5.56-.95,1.45.42,2.43,1.39,2.68,2.8s.39,2.9.22,4.32Z"/><path class="cls-1" d="m501.73,322.35c3.65-.03,6.81,1.55,9.75,3.7.76.56.7,1.22.13,2.28-.4.75-1,.9-1.71.64-.88-.33-1.74-.69-2.58-1.11-3.99-1.99-8.15-2.24-12.43-1.28-.25.06-.51.25-.72.2-.36-.1-.78-.27-.99-.55-.12-.15.04-.73.25-.87,1.8-1.29,3.58-2.63,5.9-2.81.76-.06,1.53-.13,2.4-.2Z"/><path class="cls-1" d="m479.23,353.19c1,.63,1.84,1.22,2.72,1.7.59.32,1.04.7.83,1.38-.19.63-.76.97-1.41.87-.74-.11-1.53-.25-2.19-.58-3.19-1.6-3.65-3.19-1.51-6.08,3.45-4.64,5.45-9.83,6.3-15.5.05-.34.09-.68.17-1.01.14-.63.09-1.58,1.03-1.43.86.14.75,1.06.71,1.71-.36,4.99-1.33,9.81-3.88,14.2-.89,1.54-1.8,3.07-2.77,4.74Z"/><path class="cls-1" d="m485.68,324.85c-1.12.14-2.28-.1-3.43-.31-1.75-.32-3.5-.67-5.25-1.02-2.35-.47-4.57-.28-6.51,1.31-.25.21-.57.38-.88.46-.21.05-.57-.04-.69-.19-.18-.24-.38-.7-.27-.87.45-.7.89-1.54,1.57-1.92,1.4-.78,2.9-1.42,4.43-1.9,1.73-.55,3.54-.6,5.26.1,1.8.74,3.58,1.52,5.33,2.37.77.37,1.12,1.03.44,1.97Z"/><path class="cls-1" d="m493.72,361.08c1.59,1.81,1.63,1.97,1.11,4.07-1.21-.57-2.2-.02-3.25.61-3.24,1.96-6.79,2.58-10.54,2.17-1.74-.19-3.3-.82-4.53-2.09-.21-.22-.23-.78-.13-1.11.05-.17.57-.25.89-.26.24,0,.48.14.72.24,4.84,1.95,9.35.75,13.7-1.55.76-.4,1.27-1.27,2.03-2.07Z"/><path class="cls-1" d="m496.69,341.05c-1.29.71-2,1.16-2.76,1.51-.45.2-.97.31-1.46.33-.5.02-.92-.69-.64-1.13.35-.56.81-1.05,1.21-1.55-.08-.19-.11-.36-.2-.5-.31-.46-.53-.98-.07-1.38.27-.23.78-.25,1.18-.23.32.01.64.21.96.34,2.94,1.19,5.67.75,8.24-1.02.63-.44,1.24-.92,1.92-1.26.32-.16.89-.16,1.17.03.49.34.39.93.03,1.35-1.23,1.44-2.64,2.7-4.45,3.34-1.46.51-2.91.96-3.8,2.36-.08.13-.26.28-.41.29-.4.03-.84.09-1.18-.07-.18-.08-.25-.58-.24-.88.01-.31.19-.61.52-1.54Z"/><path class="cls-1" d="m476.53,339.48c-1.4.27-2.8.54-4.2.82-1.38.28-1.48.33-2.14-1-.32-.64-.79-.49-1.2-.71-.77-.41-.89-1.3-.16-1.54,1.13-.37,1.57-1.11,1.86-2.16.05-.18.7-.26,1.07-.25.19,0,.4.29.57.48,1.98,2.25,4.48,2.55,7.23,1.98.58-.12,1.16-.27,1.75-.28.63-.02,1.05.81.64,1.31-.36.43-.84.9-1.35,1.03-1.3.34-2.65.5-3.98.74-.03-.14-.05-.28-.08-.42Z"/><path class="cls-1" d="m521.94,345.56c.43,1.79.77,3,1,4.24.09.48.06,1.07-.15,1.5-.18.39-.68.63-1.04.93-.24-.32-.6-.61-.69-.96-.2-.82-.21-1.69-.39-2.51-.08-.39-.38-.73-.63-1.2-.61.48-1.1.95-1.67,1.28-.22.13-.71.07-.92-.1-.21-.17-.32-.59-.3-.88.02-.32.19-.66.39-.92,1.58-2.05,3.52-3.69,5.74-5,.22-.13.46-.23.71-.29.61-.15,1.23-.15,1.59.46.41.71-.12,1.08-.63,1.43-.77.53-1.53,1.07-2.3,1.59-.29.19-.59.35-.71.42Z"/><path class="cls-3" d="m172.85,336.35c5.32,7.97,2.88,16.03-2.53,21.44-2.84,2.85-6.14,5.05-10.06,6.2-.45.14-.92.3-1.46.47-1.01,2.5-2.06,5.01-3.04,7.53-2.52,6.6-7.25,11.12-13.38,14.33-.09.05-.18.09-.26.14-5.17,3.18-10.96,3.73-16.82,3.81-1.44.02-2.93-.2-4.3-.59-7.52-2.16-14.03-5.65-17.25-13.4-.9-2.14-2.07-4.17-3-6.31-1.16-2.63-1.01-5.52-1.37-8.29-.37-2.79-.74-5.58-.78-8.39-.06-3.87.1-7.74.34-11.6.18-3.1.69-6.18.92-9.27.35-4.68,2.04-8.86,4.48-12.78.36-.57.68-1.14,1.01-1.69-.73-1.17-1.47-2.18-2.06-3.28-1.22-2.26-1.44-4.62-.53-7.03.57-1.52,1.38-1.94,2.95-1.57,1.2.28,2.37.98,3.69,0-.19-.81-.39-1.63-.63-2.63.55-.19,1.08-.52,1.55-.47.95.1,1.88.49,2.83.63.85.12,1.76.22,2.58.06,5.81-1.24,11.7-1.81,17.6-2.31,2.51-.22,5.01-.67,7.47-1.21,3.57-.8,7.13-.75,10.71-.29,3.42.44,6.17,2.2,8.7,4.41.8.7,1.62,1.35,2.58,2.15.43-.72.8-1.48,1.3-2.14.7-.92,1.44-1.84,2.27-2.63.6-.58,1.23-.4,1.71.47-.49,1.67-2.38,2.71-2.57,4.82.52-.08.88-.09,1.24-.19.64-.18,1.41-.61,1.71.33.29.85-.61,1.08-1.15,1.44-.32.21-.71.31-1.04.51-.25.14-.45.35-.84.65.35.56.61,1.15,1.03,1.63,1.5,1.71,2.53,3.67,3.28,5.78,1.77,5.08,3.07,10.22,2.45,15.67-.14,1.25-.11,2.45.67,3.62Z"/><path class="cls-1" d="m172.85,336.35c-.78-1.18-.81-2.38-.67-3.62.61-5.45-.69-10.59-2.45-15.67-.75-2.11-1.78-4.07-3.28-5.78-.42-.48-.68-1.08-1.03-1.63.39-.3.59-.51.84-.65.33-.19.72-.3,1.04-.51.53-.36,1.43-.59,1.15-1.44-.3-.94-1.07-.51-1.71-.33-.35.1-.72.12-1.24.19.19-2.12,2.08-3.15,2.57-4.82-.47-.87-1.11-1.05-1.71-.47-.83.79-1.57,1.71-2.27,2.63-.5.66-.87,1.42-1.3,2.14-.95-.79-1.78-1.45-2.58-2.15-2.52-2.21-5.28-3.96-8.7-4.41-3.58-.47-7.14-.52-10.71.29-2.46.55-4.96,1-7.47,1.21-5.9.5-11.79,1.07-17.6,2.31-.82.17-1.73.06-2.58-.06-.94-.14-1.87-.53-2.83-.63-.48-.05-1,.28-1.55.47.24,1,.44,1.82.63,2.63-1.31.99-2.49.29-3.69,0-1.57-.36-2.38.06-2.95,1.57-.91,2.4-.69,4.77.53,7.03.59,1.1,1.32,2.11,2.06,3.28-.33.55-.66,1.13-1.01,1.69-2.44,3.92-4.13,8.1-4.48,12.78-.23,3.09-.74,6.17-.92,9.27-.24,3.86-.4,7.74-.34,11.6.04,2.81.4,5.6.78,8.39.36,2.77.21,5.66,1.37,8.29.93,2.14,2.1,4.17,3,6.31,3.22,7.75,9.73,11.24,17.25,13.4,1.38.4,2.86.62,4.3.59,5.86-.08,11.65-.63,16.82-3.81.08-.05.17-.09.26-.14,6.13-3.21,10.86-7.73,13.38-14.33.97-2.52,2.03-5.03,3.04-7.53.54-.17,1.01-.33,1.46-.47,3.91-1.15,7.22-3.35,10.06-6.2,5.41-5.41,7.85-13.47,2.53-21.44Zm-2.33,17.16c-2.89,4.29-6.96,7.31-12.05,8.66-1.32.35-1.93,1.08-2.41,2.21-1.12,2.68-2.21,5.39-3.49,7.99-2.62,5.35-6.7,9.23-12.12,11.68-1.57.72-3.21,1.33-4.81,2.03-1.2.53-2.28.25-3.31-.4-.89-.57-1.71-1.28-2.62-1.82-.35-.21-.87-.12-1.33-.17-.03.44-.22.94-.07,1.3.26.61.73,1.12,1.2,1.81-1.45.39-2.31-.37-3.03-1.28-.48-.59-.72-1.38-1.18-1.99-.18-.23-.71-.41-.98-.32-.26.09-.6.57-.57.83.08.65.35,1.3.55,1.93.11.32.25.62.62,1.53-2.15-1.85-2.03-4.18-3.22-5.71-1.03-.1-1.36.44-1.26,1.22.14,1.04.39,2.07.63,3.29-1.96-.33-3.43-1.28-4.99-1.98-4.18-1.87-6.91-5.11-9.02-9.11-2.43-4.65-4-9.46-4.05-14.74,0-.96-.19-1.93-.34-2.88-.79-4.74-.65-9.48-.29-14.23.25-3.39.59-6.76.82-10.16.25-3.74,1.11-7.31,2.96-10.56,2.4-4.22,4.83-8.44,9.28-11.05.32.45.52,1.1.94,1.28.45.2,1.13.08,1.65-.08,2.22-.7,4.41-1.49,6.63-2.19,2.2-.68,4.44-.92,6.76-.41-3.08,1.86-7.13,1.54-9.7,4.29.42,1.12,1.02,1.07,1.75.85,2.51-.75,5.03-1.45,7.54-2.2,2.87-.85,5.67-.97,8.57.03,2.38.83,4.87,1.31,7.32,1.89,3.13.75,4.69,2.92,5.33,5.89.18.84.31,1.73.33,2.6.17,4.99,1.25,9.8,2.82,14.52.49,1.47.72,2.71-.48,4.03-.68.75-.98,1.88-1.37,2.87-.18.43-.41,1.08-.22,1.39.67,1.14.37,2.21.17,3.34-.06.33.37.84.71,1.1.12.1.77-.19.91-.44,1.31-2.48,2.96-4.72,3.72-7.52.74-2.76,2.69-4.95,5.07-6.56,2.07-1.4,5.06-.61,6.63,1.71,3.57,5.3,3.5,10.35.03,15.51Z"/><path class="cls-1" d="m150.09,342.34c-2.1-.8-3.59-2.81-6.14-2.72-.02,1.02.04,1.98-.06,2.92-.17,1.63-1.02,2.72-2.07,2.84-1.06.12-2.12-.72-2.68-2.25-.36-.99-.57-2.03-.91-3.26-.67.29-1.28.5-1.84.79-.59.31-1.12.75-1.72,1.04-.18.09-.59-.06-.76-.23-.17-.17-.33-.57-.24-.75.24-.51.53-1.04.93-1.43,3.76-3.67,11.53-3.53,15.18.28.65.68,1.44,1.43.32,2.77Z"/><path class="cls-1" d="m109.95,340.93c1.6-2.55,3.98-3.4,6.47-3.73,3.5-.46,6.67.77,9.58,2.66.31.2.57.82.51,1.19-.11.69-.78.86-1.37.71-1.2-.31-2.37-.74-3.73-1.17-.2.77-.37,1.39-.52,2.01-.13.56-.14,1.18-.37,1.68-.47,1.01-1.21,1.77-2.44,1.74-1.08-.03-2.08-.96-2.25-2.3-.14-1.12-.05-2.28-.06-3.49-1.45-.09-2.48.63-3.58,1.21-.75.39-.76.36-2.23-.5Z"/><path class="cls-1" d="m127.98,368.58c-3.34.32-6.36-.11-9.16-1.69-.42-.24-.92-.43-1.2-.78-.25-.32-.37-.86-.29-1.26.04-.22.62-.5.93-.47.66.06,1.32.28,1.96.47,4.99,1.44,9.76.91,14.29-1.64.84-.47,1.67-.98,2.51-1.45.55-.31,1.23-.4,1.53.2.22.44.18,1.14-.02,1.6-.22.5-.71.92-1.18,1.25-2.86,2.07-5.92,3.67-9.38,3.77Z"/><path class="cls-1" d="m127.63,335.08c.99-.43,1.56.03,1.78.67.34.99.68,2.06.62,3.08-.11,1.92-.48,3.83-.8,5.73-.25,1.52-.63,3.03-.88,4.55-.31,1.87-.13,3.67.94,5.3.21.32.39.67.5,1.03.19.66-.55,1.47-1.18,1.21-.68-.28-1.4-.7-1.86-1.25-1.07-1.31-1.65-2.9-1.53-4.58.12-1.62.45-3.24.81-4.83.34-1.51.92-2.96,1.26-4.47.38-1.7.72-3.41.28-5.18-.1-.42.04-.9.06-1.28Z"/><path class="cls-1" d="m162.79,346.69c-.83,1.95-1.39,3.27-1.95,4.59-.28.65-.62,1.31-1.45,1.08-.81-.22-.94-.98-.77-1.66.88-3.56,2.43-6.77,5.49-8.96,1.32-.94,2.87-1.58,4.34-2.29.4-.19.93-.2,1.4-.17.58.03,1,.93.6,1.32-.54.52-1.17,1-1.84,1.33-1.5.72-2.88,1.57-4.02,3.05.48.68,1.01,1.34,1.44,2.05.39.65.79,1.34.98,2.07.09.34-.21,1.02-.51,1.17-.29.14-.97-.06-1.22-.34-.76-.84-1.4-1.79-2.49-3.23Z"/><path class="cls-1" d="m151.52,333.66c-.91-.33-1.52-.55-2.13-.78-1.98-.76-3.95-1.58-5.95-2.29-2.23-.79-4.53-.98-6.88-.49-.61.13-1.27.04-1.86.06-.32-1.01.1-1.52.74-1.83,1.51-.74,3.11-1.05,4.8-.91,3.45.29,6.58,1.56,9.63,3.06.58.29,1.15.79,1.49,1.33.25.4.11,1.03.16,1.86Z"/><path class="cls-1" d="m123.59,329.4c-.53.35-.8.65-1.11.71-.35.06-.75-.08-1.12-.18-3.61-1-7.06-.52-10.37,1.16-.09.04-.17.1-.25.14-.59.3-1.18.77-1.84.18-.49-.44-.28-1.34.59-1.94,3.93-2.73,8.18-3.2,12.64-1.54.52.2.87.86,1.46,1.47Z"/><path class="cls-3" d="m355.62,407.09c-2.07,3.2-4.75,5.61-8.38,6.91-.38.13-.76.29-1.24.48-.07,2.23-.04,4.4-.23,6.55-.18,1.98-.55,3.96-.9,5.92-1.15,6.16-4.62,11.08-8.58,15.71-1.37,1.59-2.75,3.16-4.22,4.66-3.83,3.94-8.6,6.03-13.95,6.94-1.24.21-2.47.47-3.71.68-6.84,1.16-13.15-.3-19.01-3.96-6.08-3.79-9.67-9.17-10.28-16.38-.3-3.51-.55-7.02-.7-10.53-.13-2.7-.55-5.33-1.18-7.95-.92-3.83-1.96-7.63-2.64-11.51-.78-4.38-1.18-8.84-.66-13.28.89-7.66,4.32-14.03,9.98-19.23,1.24-1.14,2.48-2.26,3.71-3.39,1.81-1.67,3.86-2.95,6.19-3.78,5.21-1.87,10.44-3.65,15.95-4.46,3.82-.56,7.49.18,10.81,1.69,4.74,2.16,9.2,4.92,11.91,9.7.16.29.36.57.55.85.18.28.37.55.67.99.5-.38.91-.87,1.42-1.02,2.3-.75,4.76-.82,6.18,2.13.22.46.38.95.65,1.37,2.01,3.28,2.55,6.71,1.01,10.34-.06.13-.01.32-.01.67.48.29,1.01.66,1.59.96,8,4.24,8.82,13.16,5.09,18.94Z"/><path class="cls-1" d="m350.53,388.15c-.58-.3-1.11-.67-1.59-.96,0-.34-.04-.53.01-.67,1.54-3.63,1-7.06-1.01-10.34-.27-.42-.42-.91-.65-1.37-1.41-2.95-3.87-2.87-6.18-2.13-.51.16-.92.65-1.42,1.02-.3-.45-.49-.71-.67-.99-.19-.28-.39-.56-.55-.85-2.7-4.79-7.17-7.54-11.91-9.7-3.32-1.51-6.99-2.25-10.81-1.69-5.51.81-10.74,2.59-15.95,4.46-2.33.83-4.37,2.11-6.19,3.78-1.22,1.14-2.47,2.26-3.71,3.39-5.66,5.2-9.09,11.57-9.98,19.23-.52,4.44-.12,8.89.66,13.28.68,3.87,1.71,7.68,2.64,11.51.63,2.62,1.05,5.24,1.18,7.95.16,3.51.4,7.02.7,10.53.61,7.21,4.21,12.59,10.28,16.38,5.85,3.66,12.16,5.12,19.01,3.96,1.24-.21,2.47-.47,3.71-.68,5.35-.91,10.13-3,13.95-6.94,1.47-1.5,2.85-3.07,4.22-4.66,3.96-4.63,7.43-9.55,8.58-15.71.36-1.96.72-3.94.9-5.92.19-2.16.17-4.33.23-6.55.48-.19.86-.34,1.24-.48,3.63-1.3,6.31-3.71,8.38-6.91,3.74-5.78,2.92-14.7-5.09-18.94Zm-11.82-11.05c1.39-.06,2.44-.37,3.07-1.69.42-.88,1.26-1.01,2.15-.95.63.04,1.16.26,1.42.86.72,1.59,1.56,3.16,2.13,4.82.6,1.79.48,3.63-.33,5.39-.42.89-.95,1.42-2.05,1.55-1.31.16-2.65.52-3.84,1.08-1.62.75-2.89,1.97-3.59,3.69-.12.29-.33.56-.58.97-2.16-.86-2.39-1.07-1.96-2.7.58-2.11.22-3.95-1.15-5.64-.31-.39-.56-.85-.78-1.29-1.03-2.16-.17-4.46,2.1-5.31,1.09-.4,2.26-.72,3.41-.77Zm16.15,23.11c-.59,5.1-3.58,8.54-8.05,10.82-.21.1-.48.07-.93.12-.06-1.46-.16-2.86-.16-4.25.01-1.39-.65-2.83.22-4.18.11-.18.11-.53.01-.71-.71-1.27.3-1.99.88-3.15.66.65,1.17,1.15,1.69,1.66.3.29.56.66.9.86.24.13.69.14.91,0s.46-.61.38-.82c-.21-.62-.52-1.24-.91-1.76-.5-.67-1.11-1.25-1.65-1.84.24-.92.78-1.35,1.62-1.39.6-.02.95-.33.96-.92.02-.67-.32-1.17-.95-1.32-.47-.1-1.01-.09-1.46.07-.46.14-.9.47-1.25.82-1.74,1.86-3.1,3.96-3.71,6.47-.13.55-.11,1.16-.04,1.74.37,3.25.39,6.49-.04,9.76-.27,2.06-.16,4.16-.22,6.25-.22,6.54-2.18,12.54-5.99,17.86-2.04,2.86-4.21,5.65-6.5,8.31-1.81,2.1-4.07,3.71-6.73,4.96-.91-1.09-1.74-2.13-2.64-3.07-.21-.22-.85-.32-1.08-.17-.24.17-.45.82-.31,1.06.55.92,1.22,1.77,1.98,2.8-.72.62-1.69.73-2.67.96-1.48-.48-2.63-1.4-3.35-2.79-.65-1.24-1.2-2.51-1.76-3.69-1.19.09-1.28.78-1.24,1.47.11,1.47.83,2.72,1.64,3.91.36.55.82,1.02,1.25,1.54-.56.56-1.26.66-1.55.13-.47-.85-1.06-.98-1.87-.8-1.57.33-2.54-.57-3.36-1.7-.95-1.32-1.32-2.88-1.69-4.44-.14-.57-.22-1.2-.98-1.28-.55-.06-.98.59-.93,1.52.14,2.89,1.16,5.39,3.61,7.24-.48.45-.96.12-1.37.06-3.13-.49-3.81-1.12-4.31-4.24-.21-1.32-.14-2.68-.28-4.02-.03-.33-.33-.86-.6-.92-.56-.14-1,.31-1.01.83-.06,1.76-.02,3.51,0,5.26.01.47.14.92.27,1.67-2.79-1.18-5.16-2.55-7.27-4.33-3.79-3.19-5.72-7.4-6.18-12.26-.34-3.58-.48-7.19-.72-10.78-.2-2.94-.73-5.8-1.48-8.66-1.6-6.16-3.2-12.33-3.46-18.76-.31-7.85,1.96-14.76,7.32-20.52,1.7-1.83,3.75-3.33,5.64-4.99.86-.75,1.72-.77,2.78-.34,1.89.73,3.75,1.45,5.32,2.8.46.39,1.1.57,1.76.89q.07-2.08-6.14-5.61c.2-.17.37-.43.56-.45,3.49-.13,6.61.75,8.97,3.52.66.76.69.73,2.01.88.16-1.94-1.3-2.8-2.5-3.72-1.18-.9-2.49-1.61-4.02-2.58,3.23-.87,6.13-.8,8.79.66,1.98,1.08,3.74,2.54,5.61,3.82.55.37,1.1.76,1.7,1.01.22.09.7-.07.87-.27.16-.2.2-.69.07-.9-.31-.49-.71-.97-1.17-1.3-2.09-1.54-4.23-3.02-6.34-4.52-.19-.14-.37-.32-.77-.68,2.64-.75,5.1-.78,7.57-.4,4.12.63,7.44,2.92,10.83,5.13,2.33,1.52,3.74,3.76,5.39,6.08-.56.34-.96.61-1.38.83-.75.38-1.57.65-2.25,1.11-1.32.93-2.19,1.97-2.21,3.89-.02,1.99.31,3.67,1.51,5.15,1.03,1.27,1.25,2.57.46,3.95-1.06,1.82-.38,3.19.98,4.45.42.39.85.79,1.34,1.25-.12.33-.24.63-.34.93-.51,1.46-.46,1.59.66,2.56.87.75,1.89,1.31,2.33,2.54.23.68,1.01.79,1.74.6.89-.23,1.25-.83.96-1.68-.16-.46-.57-.95-.48-1.32.31-1.22.17-2.14-.66-3.23-.91-1.2.29-4.05,1.87-4.96,2.21-1.29,4.55-1.55,7.02-.72,3.34,1.12,7.19,5.24,6.6,10.26Z"/><path class="cls-1" d="m308.63,407.16c-.31,1.78-1.35,3.69-2.54,5.52-1.02,1.58-1.55,3.32-1.77,5.17-.25,2.14.71,3.75,2.3,5,1.53,1.2,2.99,1.18,4.64.08.62-.42,1.15-.97,1.75-1.42.44-.33,1.03-.44,1.36,0,.25.33.19.9.26,1.36.01.07-.04.16-.08.24-1.45,3.13-5.88,4.39-8.82,2.56-1.7-1.06-2.99-2.46-3.7-4.3-.35-.91-.59-1.96-.52-2.91.19-2.53.8-4.96,2.37-7.04,2.64-3.49,3.6-7.49,3.52-11.79-.01-.74.01-1.5.13-2.23.08-.5.96-.65,1.21-.2.27.5.52,1.06.57,1.61.27,2.68.14,5.34-.68,8.36Z"/><path class="cls-1" d="m304.12,390.49c-.79-2.68-2.08-3.65-4.91-3.54-3,.12-5.49,1.34-7.32,3.76-2.1,2.77-3.44,5.91-4.42,9.23-.19.63-.43,1.41.41,1.7.66.22.96-.42,1.31-.9,1.35-1.81,2.7-3.61,4.14-5.35,1.77-2.17,4.08-3.2,6.88-2.65,1.48.29,2.76-.09,4.07-.5.04-.22.13-.39.11-.55-.07-.4-.17-.81-.28-1.2Zm-7.42-.04c1.07-.69,2.16-1.21,3.86-.45-1.51.58-2.7.42-3.86.45Z"/><path class="cls-1" d="m328.63,385.73c-.22-.67-.68-1.37-1.25-1.79-2.14-1.57-4.55-1.91-7.13-1.4-3.85.77-6.85,2.86-9.37,5.88.1.71.21,1.45.31,2.18.11.2.22.4.33.59.34.24.66.52,1.02.72,1.16.63,2.14.52,3.09-.53,1.55-1.7,3.61-2.6,5.76-3.39,2.21-.81,4.38-1.5,6.85-.46.18-.75.52-1.36.37-1.79Zm-15.09,4.85c-.68-.62-.69-1.26-.24-1.69,2.84-2.79,6.18-4.38,10.3-4.04-3.77,1.2-7.48,2.5-10.06,5.73Z"/><path class="cls-1" d="m313.89,399.26c-.72-.61-1.48-.97-1.05-2.14.5.05,1.08-.01,1.56.19,2.87,1.18,5.84,1.46,8.89,1.06,1.91-.25,3.82-.56,5.72-.83.66-.09,1.34-.25,1.99-.19.31.03.75.47.82.79.07.3-.19.84-.46,1.01-.48.3-1.08.48-1.65.57-2.89.45-5.79.95-8.7,1.22-1.21.11-2.48-.28-3.72-.48-.73-.12-1.44-.33-2.32-.53.26,1.48,1.23,2.29,2.16,3.1.5.44,1.13.74,1.6,1.21.31.31.44.8.78,1.46-.66.02-1.09.16-1.41.03-2.07-.88-3.67-2.26-4.64-4.36-.39-.84-.2-1.42.42-2.11Z"/><path class="cls-1" d="m303.79,400.74c1.17,1.23,1.28,2.53.64,4.14-.78,1.97-1.7,3.83-3.05,5.47-.25.31-.63.53-.99.72-.33.17-.92-.34-.81-.7.12-.39.29-.77.5-1.13.6-1.01,1.27-1.98,1.84-3,.34-.61.53-1.29.93-2.27-.58.33-.83.41-1,.57-2.59,2.57-5.99,3.64-9.24,5-.23.1-.53.24-.72.17-.43-.17-.93-.38-1.17-.73-.12-.18.15-.85.43-1.03.69-.46,1.47-.79,2.24-1.13,3.03-1.31,5.86-2.92,8.18-5.32.59-.61,1.25-1.17,2.21-.76Z"/><path class="cls-1" d="m312.85,428.45c1.81.65,3.62,1.29,5.41,1.97.54.21,1.04.54,1.55.83.64.36,1.04.86.8,1.64-.18.56-.8.65-1.73.29-1.64-.64-3.23-1.46-4.93-1.86-2.18-.52-4.44-.79-6.68-.99-1.6-.15-3.15.31-4.57,1.13-.22.13-.43.26-.66.36-.48.22-.99.37-1.3-.21-.29-.53,0-.97.4-1.31,1.03-.87,2.1-1.61,3.46-1.95,2.77-.68,5.48-.52,8.25.1Z"/><path class="cls-1" d="m301.27,423.65c-.52.46-.81.9-1.2,1.05-3.1,1.16-4.26,3.77-5.08,6.65-.09.32-.12.66-.14.99-.04.51-.06,1.06-.69,1.17-.78.13-1.01-.49-1.11-1.06-.1-.56-.16-1.18-.03-1.73.62-2.56,1.78-4.84,3.81-6.6.9-.78,1.96-1.3,3.2-1.09.36.06.68.34,1.25.63Z"/><path class="cls-1" d="m325.92,432.13c-.16.31-.25.55-.38.76-.27.44-1.04.42-1.25-.04-.13-.3-.27-.63-.28-.95-.08-2.7-1.34-4.94-2.71-7.15-.31-.49-.7-.96-.9-1.49-.12-.32-.05-.89.17-1.08.22-.19.73-.07,1.11-.03.13.02.26.19.37.32,2.05,2.49,3.58,5.21,3.83,8.51.03.41.02.82.03,1.15Z"/><path class="cls-1" d="m319.48,419.48c-.28,1.27-.86,2.15-2,2.54-.5.17-1.08.14-1.29-.43-.12-.33.02-.77.1-1.15.03-.13.26-.2.37-.33.99-1.28,1.01-1.44.18-2.87-.33-.57-.89-1.09-.36-1.8.33-.44.97-.12,1.83.77.92.96,1.52,2,1.16,3.25Z"/><path class="cls-1" d="m311.19,390.6c.11.2.23.39.34.59-.76.91-1.26,1.06-1.72.48-.94-1.19-1.21-2.56-.9-4.03.04-.17.36-.37.56-.37.2,0,.51.19.58.36.17.46.18.99.36,1.45.2.53.52,1.01.78,1.51Z"/><path class="cls-1" d="m307.55,434.84c-.64-.15-.89-.19-1.13-.27-.59-.18-1.15-.46-.97-1.2.15-.61.74-.66,1.23-.55.73.16,1.46.36,2.12.7.25.13.4.67.38,1.02,0,.15-.51.39-.8.41-.41.03-.82-.11-.84-.11Z"/><path class="cls-3" d="m355.18,51.93c2.29,2.73,3.32,5.98,3.33,9.45.03,5.66-1.67,10.79-5.27,15.22-1.59,1.96-3.64,3.23-6.01,4.03-1.39.47-2.78.21-4.17-.06-.34-.08-.68-.18-1.05-.27-.16,2.77-.38,5.42-.42,8.07-.09,6.14-2.15,11.61-5.76,16.48-1.81,2.44-3.74,4.8-5.8,7.02-2.62,2.85-5.59,5.3-8.96,7.22-1.98,1.14-4.03,1.87-6.34,1.71-2.28-.16-4.62-.09-6.84-.55-4.28-.88-8.19-2.73-11.02-6.2-2.9-3.56-3.97-7.73-3.36-12.29.53-4.02.19-7.99-.34-11.95-.06-.43-.26-.85-.38-1.25-6.33-1.24-10.59-4.57-12.7-10.47-1.34-3.74-1.58-7.53-.2-11.32.36-.97.87-1.88,1.37-2.78.83-1.57,2.01-2.74,3.93-2.94-.12-1.97-.4-3.88-.34-5.79.18-6.24.95-12.4,3.08-18.32.29-.79.32-1.51.18-2.36-.14-.9-.07-1.95.26-2.82.79-2.18,1.9-4.16,4.12-5.29.49-.24.82-.81,1.2-1.25.49-.56.85-1.3,1.45-1.66,1.3-.78,2.16-1.93,3.09-3.08,2.26-2.8,7.58-5.01,12.37-3.44.83.28,1.67.55,2.38.78.29-.17.45-.21.53-.31,2.4-2.73,5.73-3.35,9.2-1.49,1.55.82,2.9,2,4.5,3.12-.1.01.08.04.18-.03,2.46-1.65,5.13-1.22,7.73.99,1.31,1.11,2.38,2.44,2.93,4.23.59,0,1.19.11,1.72-.02,3.67-.9,6.64,1.74,7.53,4.63.52,1.74.53,3.51.23,5.29-.13.8-.34,1.58-.55,2.5.45.18.91.38,1.38.55,1.57.58,2.33,1.75,2.47,3.36.12,1.49.06,2.97-.58,4.36-.27.61-.52,1.22-.77,1.85-.26.67-.24,1.3.27,1.93.52.17,1.08.37,1.65.52,1.56.45,2.76,1.4,3.78,2.6Z"/><path class="cls-1" d="m355.18,51.93c-1.02-1.2-2.23-2.16-3.78-2.6-.57-.16-1.12-.36-1.65-.52-.51-.62-.52-1.26-.27-1.93.24-.62.5-1.24.77-1.85.63-1.39.7-2.87.58-4.36-.14-1.61-.9-2.78-2.47-3.36-.47-.17-.93-.37-1.38-.55.2-.92.41-1.7.55-2.5.3-1.78.29-3.55-.23-5.29-.89-2.89-3.86-5.53-7.53-4.63-.53.13-1.14.02-1.72.02-.55-1.79-1.61-3.12-2.93-4.23-2.6-2.21-5.27-2.64-7.73-.99-.1.08-.28.04-.18.03-1.59-1.11-2.95-2.29-4.5-3.12-3.47-1.86-6.8-1.24-9.2,1.49-.09.1-.24.14-.53.31-.71-.23-1.55-.5-2.38-.78-4.8-1.57-10.12.63-12.37,3.44-.93,1.16-1.79,2.3-3.09,3.08-.6.36-.96,1.1-1.45,1.66-.38.43-.71,1-1.2,1.25-2.21,1.12-3.33,3.1-4.12,5.29-.32.87-.4,1.91-.26,2.82.14.85.11,1.57-.18,2.36-2.14,5.92-2.9,12.07-3.08,18.32-.06,1.9.22,3.82.34,5.79-1.91.2-3.09,1.37-3.93,2.94-.5.9-1.01,1.81-1.37,2.78-1.38,3.78-1.14,7.58.2,11.32,2.1,5.9,6.37,9.24,12.7,10.47.12.4.32.81.38,1.25.53,3.96.88,7.93.34,11.95-.61,4.55.46,8.72,3.36,12.29,2.83,3.47,6.73,5.32,11.02,6.2,2.23.46,4.56.39,6.84.55,2.31.16,4.36-.58,6.34-1.71,3.37-1.93,6.34-4.37,8.96-7.22,2.06-2.23,3.98-4.58,5.8-7.02,3.62-4.87,5.68-10.34,5.76-16.48.04-2.65.27-5.3.42-8.07.37.09.7.19,1.05.27,1.39.27,2.78.52,4.17.06,2.37-.8,4.42-2.07,6.01-4.03,3.61-4.43,5.31-9.56,5.27-15.22-.01-3.47-1.03-6.72-3.33-9.45Zm-63.98,33.9c-1.86-.75-3.65-1.68-5.12-3.04-3.04-2.79-4.53-6.31-4.71-10.43-.13-2.9.46-5.59,2.09-8.01.38-.57.76-1.12,1.71-.89.16,1.81,1.94,3.13,1.76,5.27-.75-.33-1.39-.67-2.06-.92-.53-.21-1.03-.07-1.39.4-.4.52-.17.99.24,1.37.69.65,1.27,1.37,2.24,1.76,1.45.59,1.82,1.9,1.44,3.49-.32,1.28-.53,2.59-.68,3.91-.09.83.23,1.64.9,2.17.22.19.7.18,1,.08.17-.06.3-.5.29-.76-.06-.58-.26-1.16-.28-1.74-.01-.29.23-.59.4-.98.31.26.56.36.61.52.92,2.49,1.81,4.99,2.78,7.69-.58.06-.96.21-1.24.1Zm58.19-8.46c-2.35,1.69-4.79,2.27-7.44.88-.73-1.01.2-2.66-1.49-3.39-.22.36-.53.68-.63,1.06-.14.57-.16,1.17-.19,1.76-.19,4.14-.36,8.29-.57,12.43-.18,3.71-1.34,7.16-3.18,10.32-2.78,4.75-6.19,9.05-10.37,12.66-1.9,1.65-3.93,3.12-6.18,4.32-1.72.93-3.38,1.48-5.26.32-.93.87-2.05.73-3.16.68-4.47-.26-8.38-1.9-11.58-4.99-2.51-2.43-3.58-5.58-3.64-9.04-.02-1.32.17-2.65.3-3.97.36-3.57.14-7.13-.52-10.63-.49-2.54-1.27-5.02-1.93-7.52-.13-.48-.27-.97-.43-1.57,3.56.8,6.99-.12,10.57-.09.78,3.31.63,6.88,2.29,10.14-2.17,1.03-3.47,2.85-4.14,5.15-.28.92-.42,1.88-.14,2.85.34,1.17,1,1.52,2.16,1.09,1.03-.39,2.05-.78,3.16-.23.53.28,1.01.06,1.4-.33.32-.31.61-.63.96-.99,1.26.22,2.56.71,3.82.62,1.27-.08,2.5-.71,3.97-1.18.12.03.49.09.83.21,1.55.53,3.04.91,4.04-.93.09-.16.4-.17.59-.28,1.28-.79,1.5-1.64.51-2.66-1.24-1.28-2.59-2.44-3.91-3.63-.93-.85-2.05-1.03-3.05-.29-1.55,1.16-2.98.55-4.32-.2-.63-.36-1.17-.49-1.84-.53-1.79-.11-2.2-.46-2.53-2.18-.37-1.89-.62-3.81-1-5.69-.32-1.69.14-3.18,1.34-4.26,1.05-.95,1.52-1.95,1.25-3.24.67-.63,1.26-1.01,2.23-.77.26,1.58,1.03,2.96,2.43,3.94.17.12.31.33.37.53.57,1.87,2.14,2.26,3.71,2.23,3.04-.08,6.08-.28,9.08-.66,1.11-.14,2.17-.89,3.18-1.47.27-.16.41-.78.36-1.15-.07-.52-.61-.56-1.07-.53-.21.01-.45.07-.65.14-2.3.95-4.75,1.01-7.19,1.18-1.18.08-2.36.24-3.54.3-1.2.07-1.84-.4-2.06-1.55-.28-1.4-.33-2.79.37-4.13.51-.97,1.24-1.68,2.29-1.97,3.45-.97,6.97-1.35,10.55-1.02.21.02.42.13.67.2.79,1.06.85,2.33.9,3.57.02.67-.04,1.34-.04,2,0,1,.29,1.51.85,1.6.6.09,1.03-.34,1.22-1.3.12-.58.3-1.18.23-1.75-.18-1.47-.37-2.95-.77-4.36-.34-1.22-1.28-1.96-2.66-1.95-3.17.04-6.37-.23-9.48.69-.42.12-.86.23-1.29.28-1.74.21-3.1,1-3.97,2.51-.53.93-1.45,1.29-2.25.98-1.39-.51-2.6-.1-4.16.46.24-.52.32-.77.47-.98,1.31-2.04,1.54-4.34,1.37-6.63-.23-3.17-.71-6.33-1.09-9.49-.03-.29-.01-.61-.14-.86-.12-.22-.43-.5-.62-.48-.22.02-.53.33-.58.56-.09.58-.1,1.18-.06,1.77.11,1.48.22,2.96.43,4.43.33,2.3.08,4.57-.17,6.87-.13,1.24-.77,2.19-1.54,2.89-1.14-.28-2.1-.67-3.09-.73-2.2-.17-4.44-.31-6.64-.19-2.55.13-4.48,1.41-5.58,3.81-.06.13-.13.27-.21.39-.03.04-.11.08-.17.11-.11-.07-.3-.12-.32-.21-1.08-4.23-2.24-8.45-3.18-12.71-.86-3.87-.78-7.81-.12-11.72.51-2.99,1.15-5.96,1.78-8.92.22-1,.65-1.97,1-3.03,2.88-.73,4.56-2.85,6-5.39,3.38.14,6.09-1.46,8.58-3.72,2.75,1.69,5.4,1,8.01-.29.71-.36,1.45-.69,2.26-1.06.23.34.46.62.65.93,1.42,2.4,3.63,3.18,6.25,2.83.99-.12,1.85-.17,2.78.28,1.29.63,2.74.6,4.15.49.72-.06,1.46-.16,2.33-.24.13,2.07.46,4.01,1.78,5.64,1.31,1.64,3.28,2.17,5.03,3.04q-1.59,5.16-.14,9.04c-.29.66-.67,1.45-.98,2.27-.79,2.07-1.03,4.17-.14,6.27.2.46.5,1.01.9,1.21.95.47,1.2,1.21,1.24,2.16.01.29-.04.65.09.87.17.29.47.57.77.66.21.07.61-.11.75-.31.29-.41.47-.91.68-1.38,1.05-2.29,2.07-4.6,3.55-6.65.5-.7,1-1.27,1.89-1.38.22-.03.45-.1.62-.22,1.07-.72,2.2-.8,3.39-.38,1.27.45,2.47.98,3.38,2.63-2.23-.53-3.66.43-4.94,1.56-2.96,2.63-4.95,5.86-5.81,9.76-.02.14-.08.29-.1.43-.09.62-.03,1.2.61,1.51.46.21.83-.17,1.11-1.05.16-.49.33-.96.57-1.62.46.37.81.58,1.07.89.33.39.58.86.87,1.29.32.47.48,1.17,1.26,1.02.56-.11.7-1.08.13-1.96-.7-1.11-1.58-2.13-2.47-3.31,1.11-2.35,2.92-4.28,4.94-6.02.72-.62,1.49-.83,2.41-.21.57.39.92-.18,1.3-.7,1.08,1.89,1.45,3.91,1.45,5.96.01,3.69-.82,7.19-2.59,10.46-1.08,1.98-2.28,3.81-4.14,5.14Zm-52.59-6.08c1.91-.22,3.84-.34,5.76-.42,1.59-.07,2.55,1.15,2.28,2.76-.02.14-.04.29-.08.43-.31,1.21-.62,2.43-.97,3.74-.8.17-1.58.41-2.37.49-1.69.19-3.39.31-5.1.42-1.69.11-2.45-.42-2.96-2.03-.92-2.85.45-5.05,3.43-5.4Z"/><path class="cls-1" d="m316.32,48.63c-.35-.2-.61-.33-.85-.5-.36-.25-.7-.53-1.16-.89.2-.47.31-.99.6-1.36,1.17-1.5,2.77-2.44,4.51-3.13,2.21-.88,4.51-1.48,6.89-1.58,1.24-.05,2.5.17,3.73.4.9.17,1.7.65,1.9,1.65.14.67.66.92,1.08,1.33.21.2.35.7.24.94-.12.27-.55.56-.85.56-.96,0-1.92-.1-2.87-.19-1.4-.12-2.79-.31-4.19-.37-2.76-.11-5.25.72-7.52,2.26-.48.32-1,.58-1.5.87Z"/><path class="cls-1" d="m306.08,45.93c-.04.25-.03.33-.06.39-.42.68-.84,1.36-1.23,1.99-.96.28-1.69-.15-2.44-.42-3.54-1.28-6.83-.75-9.93,1.29-.43.28-.82.64-1.28.88-.82.44-1.43,0-1.41-.97.02-.85.25-1.61.87-2.22,3.76-3.72,9.17-5.38,14.56-1.97.41.26.67.73.93,1.02Z"/><path class="cls-1" d="m327.49,60.61c-.21.81-.38,1.75-.72,2.63-.2.52-.61,1.01-1.03,1.4-.78.72-1.72,1.25-2.8.75-.99-.46-1.16-1.45-1.2-2.44-.07-2.02.75-3.75,1.95-5.27,1-1.27,2.76-.92,3.34.62.25.67.29,1.43.45,2.3Z"/><path class="cls-1" d="m324.97,53.42c3.2.21,5.11,1.97,6.64,4.27.26.39.27.93-.21,1.15-.26.13-.76.06-1-.12-.76-.59-1.44-1.27-2.16-1.91-1.87-1.66-3.95-1.65-5.96-.46-1.19.7-2.2,1.73-3.21,2.7-1.01.96-1.43,1.21-1.78.74-.53-.73.04-1.29.41-1.78,1.49-2.01,3.32-3.58,5.78-4.29.56-.16,1.15-.24,1.5-.31Z"/><path class="cls-1" d="m305.43,63.23c-.21,1.7-.69,3.02-1.58,4.13-.78.99-1.78.97-2.68.09-1.93-1.9-1.2-5.88,1.27-6.98.91-.4,1.81-.19,2.28.71.37.7.53,1.51.7,2.05Z"/><path class="cls-1" d="m306.63,59.84c-.18.14-.41.44-.71.52-.24.07-.59-.08-.82-.23-1.46-.91-3.1-.91-4.72-.93-2.75-.04-4.47,1.65-5.96,3.68-.26.35-.37.82-.64,1.16-.2.24-.57.52-.84.49-.55-.05-.61-.58-.55-1.03.05-.36.18-.72.35-1.04,2.77-5.11,7.07-6.67,12.5-4.38.95.4,1.33.92,1.39,1.76Z"/><path class="cls-1" d="m329.44,52.02c-.98.13-1.4.24-1.83.24-.81,0-1.63-.06-2.44-.11-2.57-.15-4.8.68-6.77,2.31-.34.28-.7.55-1.08.76-.14.08-.46,0-.58-.11-.13-.12-.23-.43-.17-.58.19-.39.41-.8.72-1.09,3.13-2.93,6.79-3.76,10.89-2.58.34.1.58.52,1.25,1.16Z"/><path class="cls-1" d="m300.53,54.43c.32.1.56.12.72.25.15.12.25.34.3.53.02.11-.08.32-.18.37-.33.16-.67.3-1.02.38-2.58.61-4.83,1.79-6.57,3.85-.14.17-.3.38-.49.43-.26.08-.62.12-.81,0-.18-.12-.25-.48-.25-.74,0-.2.14-.42.27-.6,2.03-2.71,4.88-3.92,8.03-4.47Z"/><path class="cls-1" d="m311.35,103.23c.85.07,1.74.13,2.62.24.36.05.74.16,1.04.35.21.14.41.48.39.71-.02.23-.31.58-.52.61-2.01.27-3.99.14-5.9-.57-.21-.08-.47-.55-.41-.68.14-.28.46-.6.75-.64.65-.09,1.33-.03,2.03-.03Z"/><path class="cls-1" d="m315.37,112.43c-.06.8-.41,1.14-.98,1.17-.49.02-.82-.28-.88-.77-.07-.56.52-1.18,1.09-1.05.33.07.58.48.77.66Z"/><path class="cls-1" d="m308.86,110.63c-.39.44-.6.84-.93.99-.42.19-.98-.36-.96-.9.02-.48.26-.91.79-.81.34.06.63.4,1.1.72Z"/><path class="cls-1" d="m322.81,111.38c.05.75-.37,1.25-.85,1.19-.46-.06-.8-.3-.79-.83.01-.59.44-1.14.86-1,.34.11.6.48.78.64Z"/><path class="cls-1" d="m318,116.37c-.42-.43-.69-.71-.96-.99.26-.21.52-.57.78-.57.25,0,.66.33.71.57.05.23-.28.54-.54,1Z"/><path class="cls-1" d="m309.49,116.74c-.38-.26-.81-.47-1.13-.8-.12-.12-.07-.67.05-.73.27-.13.78-.23.92-.08.29.32.41.79.6,1.21-.15.13-.3.27-.45.4Z"/></svg>