<?xml version="1.0" encoding="UTF-8"?><svg id="OBJECTS" xmlns="http://www.w3.org/2000/svg" viewBox="0 0 650 517"><defs><style>.cls-1,.cls-2{stroke-width:0px;}.cls-2{fill:#fff;}</style></defs><path class="cls-2" d="m37.72,269.65c-2.01-.17-4-.13-5.98,1.42-2.47,1.94-5.16.43-5.77-2.82s-1.12-6.5-1.19-9.86c-.15-7.91-.21-15.85-1.02-23.71-.92-8.89-2.15-17.75-1.87-26.7.18-6.05.55-12.1,1.01-18.14.29-3.79,2.33-5.51,6.19-5.67,5.04-.21,10.08-.4,15.2-.6,1.03-1.56,1.16-3.44,1.87-5.09,1.67-3.87,3.98-7.06,8.24-8.69,6.44-2.47,14.12,3.92,15.02,10.04.17,1.13.22,2.27.31,3.24,1.75,1.55,3.71.05,5.5,1.34,1.87-8.44-.71-16.88,2.34-25.2,2.8,1.74,5.48,1.46,8.25.88,2.91-.61,5.89-.99,8.88-.83,3.86.21,7.66-.53,11.34-1.31,4.96-1.05,9.85-.56,14.63-.81,1.02,1.56,1.52,2.72,1.29,4.41-1,7.55-1.71,15.14-2.64,22.69-.32,2.64-.86,5.25-1.46,7.84-.95,4.13-2.63,5.52-6.89,5.68-2.96.11-5.93.02-9.05.02-.67,3.71-2.01,6.96-1.02,10.88,5.49-1.39,11.07-1.6,16.66-1.45,3.28.09,5.01,1.84,5.4,5.06.39,3.23.32,6.46-.11,9.63-.79,5.88-.19,11.83-1.29,17.69-.78,4.13-1.52,5.09-5.7,5.19-3.8.09-7.62.18-11.36-.58-2.18-.44-4.5,1.2-6.7-1.24-.87,4.5-1.9,8.32-2.25,12.2-.29,3.16-1.61,5.95-2.38,8.92-.75,2.92-3.53,3.68-6.37,3.76-5.34.15-10.69.37-16.03.44-9.05.12-18.08.3-27.09,1.24-1.94.2-3.94.31-5.96.13Z"/><path class="cls-2" d="m502.13,193.24c-.16-4.59,2.49-7.55,5.92-10.07.98-.71,2.08-.96,3.28-.85,4.45.4,7.99,3.8,8.96,8.6.78,3.89-1.47,7.66-5.76,9.67-.28.13-.55.27-.83.4-6.57,3.01-11.69-.43-11.57-7.75Z"/><path class="cls-2" d="m564.34,356.28c-.1,1.33-1.15,1.55-2.15,1.56-2.6.03-4.73-1.04-6.69-2.76-4.69-4.11-7.23-9.38-8.72-15.28-.8-3.16-1.59-6.33-2.66-10.61-2.47,9.92-2.14,18.57,1.08,27.02.84,2.22.78,4.1-.4,6.41-5.54,2.7-11.7,2.63-18.41,2.54-2.36,4.92-3.63,10.52-5.74,16.29,4.15-.79,7.01-3.15,10.25-4.61,2.71-1.21,5.18-2.94,7.73-4.49,2.74-1.67,5.11-.66,5.48,2.63.81,7.21,2.47,14.28,3.51,21.46,1.17,8.11,2.49,16.26,5,24.14,1.69,5.34,2.5,10.91,3.24,16.47.24,1.77-.68,2.65-2.18,3.37-6.06,2.91-12.46,4.94-18.83,6.96-1.22,3.59.25,6.82.99,9.89,3.3,13.78,7.08,27.45,10.53,41.2,1.05,4.18,2.5,8.26,3.14,12.53h-193.64c1.57-7.3.64-14.73.96-22.09.05-1.25.47-2.65-.76-3.93-7.29,5.02-15.49,5.63-23.95,4.14-1.25,4.48-2.77,8.55-3.43,12.75-.5,3.1-2.34,5.93-2.15,9.13h-28.65c.29-2.13-.87-4.13-.95-6.27-.2-5.21-1.27-10.38-1.98-15.51-2.29-.59-4.19-.67-6.33.06,0,4.27-.38,8.42.12,12.46.39,3.14.18,6.18-.03,9.26h-30.17c-.2-1.14-.74-2.17-1.21-3.19-5.03-10.98-9.08-22.25-10.43-34.34-.18-1.6-1.13-2.28-2.67-2.35-5.4-.27-10.8-.79-16.2-.78-13.53.02-27.02,1.46-40.57,1.12-.98-.03-1.94.19-3.17,1.38.11,12.43.22,25.29.34,38.16h-19.87c.31-3.59-.45-7.16-.68-10.69-.7-10.6-1.36-21.17-1.16-31.79.17-8.62.37-17.23.58-25.84.02-.74-.19-1.29-.65-1.71-.62-.53-1.28-.49-1.94-.36-2.11.43-3.13-.68-3.52-2.55-.94-4.44-.5-8.93-.43-13.41.01-.31.14-.7.35-.9,2.27-2.16,3.93-4.97,6.95-6.31,1.81-.81,3.63-1.64,5.32-2.68,7.08-4.37,20.42-12.95,28-16.65-.07-4.92.32-9.85.73-14.75.26-3.19-.28-5.86-2.05-8.33-1.55-2.15-3.35-4.12-4.88-6.29-1.24-1.76-2.75-2.28-4.74-1.68-.35.4-.7.66-1.03,0-3.16-.39-5.81-1.64-8.51-3.52-3.01-2.1-5.49-5.13-9.68-6.62.7,6.53-.37,12.58.8,18.6.15.81.25,1.65.26,2.47.03,3.19-.58,3.82-3.69,3.92-5.21.18-10.23-.5-14.59-3.47-2.14,2.5.09,5.61-1.16,7.9-2.32,1.89-5.43.02-7.53,2.31,1.87,3.79.85,7.79,1.1,11.7.75,11.64.23,23.27-.09,34.92-.29,10.73-.51,21.46-.95,32.19-.14,3.37-.2,6.74-.2,10.11,0,11.15.65,22.29,1.22,33.43h-40.88c.11-1.01.24-2.03-.01-2.94-.78-2.79-.85-5.53-.56-8.36.14-1.29-.2-2.62-.35-3.93-1.02-8.86-1.85-17.73-2.01-26.65-.04-2.57-.49-5.07-1.72-8.11-2.27,5.53-4.59,10.29-6.21,15.28-2.84,8.8-6.35,17.35-9.45,26.04-1.06,3.01-2.24,6-4.04,8.67h-40.62c1.09-10.54,3.33-20.87,5.36-31.26,2.87-14.64,7.76-28.68,11.64-43.02,2.59-9.57,5.76-18.97,8.49-28.5,2.99-10.45,5.32-21.08,8.07-31.6.8-3.03,1.91-6.01,3.13-8.9,1.85-4.37,1.51-5.61-2.81-8.21-.14-.08-.23-.24-.56-.59-1.14-4.13,1.23-7.84,2.74-11.52,2.96-7.2,6.6-14.13,9.77-21.25,4.44-9.98,10.17-19.28,15.33-28.87,3.9-7.25,8.75-14,13.34-20.86,3.77-5.62,7.43-11.37,11.79-16.5,5.65-6.64,10.51-13.97,16.94-19.94.1-.1.11-.31.25-.74-1.76-3.16-4.67-5.7-6.67-8.94-3.26-5.25-6.31-10.47-6.93-16.78-.1-.97-.52-1.92-.82-2.87-1.37-4.4-.37-6.24,4.2-7.61,2.36-.71,4.63-1.75,7.13-2.07.76-.1,1.46-.72,2.48-1.25.05-6.98,4.38-11.75,9.33-16.06,1.56-1.35,2.71-2.77,3.53-4.66,4.06-9.33,11.05-16.11,19.48-21.45,4.53-2.87,9.77-4.06,15.08-4.35,9.02-.51,17.92.42,26.54,3.29,5.89,1.95,10.74,5.13,12.99,11.29.78,2.13,2.47,3.5,4.02,5,6.01,5.83,8.26,13.12,7.65,21.24-.41,5.62-2.25,10.99-4.23,16.27-2.03,5.42-4.06,10.85-5.87,16.35-2.64,8.04-3.93,16.36-4.09,24.82-.07,3.51.65,6.91,2.99,9.75.62.75,1.43,1.45,1.26,2.71-.95,1.36-2.23,1.19-3.35.29-2.92-2.35-4.34-5.65-4.96-9.2-.37-2.1-.36-4.38.03-6.47,1.02-5.36,1-10.9,2.69-16.15.08-.24-.19-.59-.4-1.19-4.52,2.07-5.09,6.7-6.93,10.39-2.09,4.19-2.9,8.81-3.87,13.33-.94,4.39-.21,8.81.96,13.35-7.9,2.14-15.4,5.33-23.88,3.33,0,3.45-.28,6.62.05,9.71.87,8.06,1.89,16.1,3.75,24.01.54,2.29.92,4.1,3.92,4.05,1.56-.02,2.55,1.49,2.99,2.97,1.18,3.93,2.28,7.88,3.34,11.85.48,1.82,1.27,3.41,2.61,4.73,3.83,3.78,5.81,8.81,8.85,13.12.63.88.43,1.92.49,2.9-.29-.01-.58.02-.86.09.24.82.55.88.97.03.57.28.93.89,1.7.85,15.44-.74,30.85.04,46.26.88,1.58.09,3.16.01,5.03.01,1.99-6.06,7.89-9.49,10.88-15.37-7.19-4.11-8.64-11.08-8.76-18.56-.16-9.83,3.44-18.83,6.5-27.93,1.43-4.22,2.93-8.41,4.4-12.62.85-2.41,1.27-4.78-.58-6.75.84-2.59,3.22-3.51,4.62-5.34-.38-2.11-2.45-3.07-3.3-4.9-1.38-2.94-1.02-4.09,2.07-5.17,2.32-.81,4.65-1.61,7.15-2.47-4.51-3.64-3.12-9.21-4.85-13.85-2.4.39-3.98,1.96-5.89,2.81-5.22,2.34-8.3,1.16-10.02-4.27-1.99-6.27-3.78-12.6-5.17-19.06-1.2-5.62-3.12-11.1-4.96-16.56-2.92-8.63-4.59-17.55-6.39-26.44-.47-2.33,1.32-4.04.71-6.28,7.49-3.73,15.27-6.13,22.99-8.41,5.89-1.74,11.51-4.09,17.3-6.03,4.48-1.51,8.79-3.62,13.52-4.32,1.98-.3,3.03-1.18,2.97-3.23-.02-.5-.02-1.01.06-1.5.41-2.54.94-3.06,3.44-3.42,1.97-.29,3.94-.59,5.92-.78,6.21-.6,12.36-1.49,18.46-2.9,2.38-.54,4.97-.43,7.44-.27,3.09.2,4.19,1.25,4.3,4.38.15,4.28.03,8.5-.91,12.8-.95,4.39-.5,9.06-.1,13.36,2.15.85,3.34-.6,4.87-.51,2.42.13,3.65,1.03,3.65,3.57-.01,4.6.26,9.16,1.14,13.7.54,2.75-.21,3.94-2.78,5.09-.9.4-1.85.75-2.81.95-.78.17-1.66-.45-2.88.95-.37,1.04-.6,2.72.66,4.42,2.69.79,5.13-.79,7.75-.76,3,.04,4.13.6,4.32,3.42.15,2.29.09,4.65-.23,6.92-.28,2.01-1.98,2.83-3.85,3.08-2.58.35-5.23.15-7.91,1.15-.5,2.13-.07,4.56-1.59,6.96-2.06.11-4.02,1.37-6.04,2.45-4.44,2.37-9.24,3.63-14.12,4.56-1.92.37-2.9,1.15-3.12,3.18-.46,4.21-1.14,8.4-1.8,13.12,8.17-.25,16.11.2,22.53,5.87,3.82-2.48,7.49-4.26,11.53-5.18,1.78-.41,2.81.23,3.38,2.21-3.05,2.03-7.28,1.88-9.77,4.91,1.54,1.03,3.71.29,5.56,1.07.77.32,1.63.4,2.38.74.63.29.98.94.86,1.65-.11.69-.58,1.08-1.31,1.28-1.52.41-2.86-.64-4.68-.43-.04,1.36.53,2.16,1.85,2.32.81.09,1.67,0,2.47-.16,4.52-.9,9.03-1.84,13.85-2.83.83-2.43.44-5.11.89-7.67.8-4.58,1.71-9.07,5.34-12.5,2.12-2,4.39-3.63,7.3-3.91,1.78-.17,2.77-.97,3.27-2.54,1.06-3.29,2.47-6.45.74-10.08-1.23-2.58-.07-5.49-.17-8.25-.1-2.66.06-5.33-.03-7.99-.09-2.51-.94-4.17-3.85-4.94-4.56-1.19-7.48-4.41-9.33-8.9-3.25-7.84-4.05-15.67-.66-23.57,2.11-4.93,5.48-8.63,11.37-9,.64-.04,1.27-.31,1.76-.43,1.18-9.27,5.53-16.25,13.56-20.8,3.3-1.87,6.54-3.86,10.59-3.81,2.76.04,5.44.11,8.01,1.9.24-3.53-.53-6.3-1.52-9.1-1.07-3.03-5.06-3.33-5.78-6.54,2.54-1.91,4.54-.72,6.39,1.01,2.62,2.45,4.24,5.46,4.83,9.35,2.12-1.88,1.94-4.2,2.05-6.4.04-.65-.18-1.31-.13-1.96.07-.81,1.53-1.4,1.89-.76.85,1.5,2.3,2.7,1.93,4.83-.42,2.46-.52,4.97-2.31,7.19,19.42-1.02,34.96,5.54,46.11,21.42.63.34.84.95,1.02,1.58.95,3.5,1.89,7.01,2.89,10.73-2.38,1.11-3.32,2.88-3.68,5.41-.39,2.73-1.68,5.33-2.52,8-.2.65-.29,1.37-.96,1.65-3.21,1.34-3.1,4.02-3.06,6.87.08,6.31-1.9,11.8-7.47,15.31-2.54,1.61-4.17,3.86-5.28,6.39-2.67,6.07-5.86,11.81-9.76,17.16-3.4,4.65-7.35,8.47-13.39,9.49-1.73.29-3.36,1.24-5.1,1.91,5.21,2,5.32,6.8,6.01,11.05.47,2.9.03,5.94.63,8.88.16.79.43,1.56.67,2.42,3.71,1.15,7.32,2.27,11.2,3.48,3.29-4.05,5.3-9.15,9.99-12.33-1.12-3.04-.04-5.47,1.56-7.95,2.96-4.57,6.24-8.47,11.85-9.94,5.69-1.49,11.12-.78,16.49,1.17.75.27,1.38.89,2.25.96,8.44.63,16.49,3.36,24.79,4.72,2.6.43,5.28.42,7.84,1.59,2.49-3.07,5.35-5.27,8.28-7.4,2.88-2.09,6.26-2.92,9.61-3.77.77-.2,1.67-.07,2.47.08.87.17,1.53.78,1.49,1.73-.05.99-.86,1.48-1.72,1.46-4.71-.11-8.44,1.91-12.34,5.41,4.45.67,8.1-.5,11.79-.55,1.66-.03,3.32-.32,4.96.04,1.23.27,2.18.88,1.88,2.56-5.3,2.8-11.62.64-17.48,3.09.7,1.57,2.1,2.09,3.17,2.96,7.47,6.11,11.34,14.13,12.84,23.56,1.64,10.26.77,20.53.65,30.79-.04,3.57-.82,7.13-.93,10.76-.24,7.67.98,15.19,1.76,22.75.74,7.1,3.09,13.93,6.01,20.41,1.64,3.62,4.68,6.49,8.65,7.85,1.15.39,1.72.85,1.63,2.03Z"/><path class="cls-2" d="m618.17,223.71c.47,6.22.12,12.51.07,18.76-.05,5.83-.1,11.66-.28,17.48-.09,2.63-.4,5.27-.82,7.87-.34,2.11-1.65,3.56-3.86,3.93-8.77,1.48-17.53,2.43-26.48,1.52-7.09-.72-14.13-1.73-21.21-2.49-4.74-.51-8.33-2.47-8.6-9.03-.29-6.92-.6-13.9.51-20.82.34-2.12.35-4.31.31-6.47-.14-7.46,1.15-14.81,1.58-22.3-1.37-.52-2.82-.62-4.32-.51-6.64.5-13.22-.34-19.81-.86-4.41-.36-6.04-1.81-6.43-6.07-.47-5.22-.11-10.47.38-15.68.51-5.24,1.1-10.47,1.68-15.95-2.77-.79-5.33-1.04-7.92-1.22-4.78-.33-6.95-2.39-7.06-7.1-.09-3.96.47-7.92.7-11.86.31-5.29,1.48-10.51,1.33-15.83-.02-.82.05-1.66.78-2.56,2.29-1.16,5.09-.7,7.56-.63,8.96.24,17.89.82,26.81-.48,2.28-.33,3.82,1.02,4.16,3.89.32,2.64.23,5.32.3,7.98.03,1.46-.38,2.96.49,4.76,7.71-.12,15.38,2.27,23.29,1.19.82-.11,1.66-.08,2.5-.07,4.24.04,5.21,1.02,5.61,5.14.64,6.58.01,13.1-.67,19.63-.12,1.15-.52,2.28.22,3.95,4.61.64,8.96-.74,13.37-.98,2.46-.13,4.9-.56,7.35-.79,5.1-.48,6.42.47,6.69,5.36.33,6.04.28,12.09.6,18.13.4,7.37.62,14.74,1.17,22.11Z"/><path class="cls-2" d="m628.16,162.42c-.01,1.38-.77,2.87-1.53,4.1-3.58,5.82-11.78,8.39-18.22,5.92-4.08-1.56-7.75-3.46-9.67-7.8-.84-1.9-.51-3.94-1.31-5.81.52-4.12,2.37-7.78,4.66-11.18,1.67-2.47,4.54-2.92,7.23-3.75,1.64-.5,2.96.04,4.31.36,7.11,1.67,14.57,10.96,14.53,18.16Z"/><path class="cls-1" d="m562.71,354.25c-3.97-1.36-7.01-4.23-8.65-7.85-2.92-6.48-5.27-13.31-6.01-20.41-.78-7.56-2-15.08-1.76-22.75.11-3.63.89-7.19.93-10.76.12-10.26.99-20.53-.65-30.79-1.5-9.43-5.37-17.45-12.84-23.56-1.07-.87-2.47-1.39-3.17-2.96,5.86-2.45,12.18-.29,17.48-3.09.3-1.68-.65-2.29-1.88-2.56-1.64-.36-3.3-.07-4.96-.04-3.69.05-7.34,1.22-11.79.55,3.9-3.5,7.63-5.52,12.34-5.41.86.02,1.67-.47,1.72-1.46.04-.95-.62-1.56-1.49-1.73-.8-.15-1.7-.28-2.47-.08-3.35.85-6.73,1.68-9.61,3.77-2.93,2.13-5.79,4.33-8.28,7.4-2.56-1.17-5.24-1.16-7.84-1.59-8.3-1.36-16.35-4.09-24.79-4.72-.87-.07-1.5-.69-2.25-.96-5.37-1.95-10.8-2.66-16.49-1.17-5.61,1.47-8.89,5.37-11.85,9.94-1.6,2.48-2.68,4.91-1.56,7.95-4.69,3.18-6.7,8.28-9.99,12.33-3.88-1.21-7.49-2.33-11.2-3.48-.24-.86-.51-1.63-.67-2.42-.6-2.94-.16-5.98-.63-8.88-.69-4.25-.8-9.05-6.01-11.05,1.74-.67,3.37-1.62,5.1-1.91,6.04-1.02,9.99-4.84,13.39-9.49,3.9-5.35,7.09-11.09,9.76-17.16,1.11-2.53,2.74-4.78,5.28-6.39,5.57-3.51,7.55-9,7.47-15.31-.04-2.85-.15-5.53,3.06-6.87.67-.28.76-1,.96-1.65.84-2.67,2.13-5.27,2.52-8,.36-2.53,1.3-4.3,3.68-5.41-1-3.72-1.94-7.23-2.89-10.73-.18-.63-.39-1.24-1.02-1.58-11.15-15.88-26.69-22.44-46.11-21.42,1.79-2.22,1.89-4.73,2.31-7.19.37-2.13-1.08-3.33-1.93-4.83-.36-.64-1.82-.05-1.89.76-.05.65.17,1.31.13,1.96-.11,2.2.07,4.52-2.05,6.4-.59-3.89-2.21-6.9-4.83-9.35-1.85-1.73-3.85-2.92-6.39-1.01.72,3.21,4.71,3.51,5.78,6.54.99,2.8,1.76,5.57,1.52,9.1-2.57-1.79-5.25-1.86-8.01-1.9-4.05-.05-7.29,1.94-10.59,3.81-8.03,4.55-12.38,11.53-13.56,20.8-.49.12-1.12.39-1.76.43-5.89.37-9.26,4.07-11.37,9-3.39,7.9-2.59,15.73.66,23.57,1.85,4.49,4.77,7.71,9.33,8.9,2.91.77,3.76,2.43,3.85,4.94.09,2.66-.07,5.33.03,7.99.1,2.76-1.06,5.67.17,8.25,1.73,3.63.32,6.79-.74,10.08-.5,1.57-1.49,2.37-3.27,2.54-2.91.28-5.18,1.91-7.3,3.91-3.63,3.43-4.54,7.92-5.34,12.5-.45,2.56-.06,5.24-.89,7.67-4.82.99-9.33,1.93-13.85,2.83-.8.16-1.66.25-2.47.16-1.32-.16-1.89-.96-1.85-2.32,1.82-.21,3.16.84,4.68.43.73-.2,1.2-.59,1.31-1.28.12-.71-.23-1.36-.86-1.65-.75-.34-1.61-.42-2.38-.74-1.85-.78-4.02-.04-5.56-1.07,2.49-3.03,6.72-2.88,9.77-4.91-.57-1.98-1.6-2.62-3.38-2.21-4.04.92-7.71,2.7-11.53,5.18-6.42-5.67-14.36-6.12-22.53-5.87.66-4.72,1.34-8.91,1.8-13.12.22-2.03,1.2-2.81,3.12-3.18,4.88-.93,9.68-2.19,14.12-4.56,2.02-1.08,3.98-2.34,6.04-2.45,1.52-2.4,1.09-4.83,1.59-6.96,2.68-1,5.33-.8,7.91-1.15,1.87-.25,3.57-1.07,3.85-3.08.32-2.27.38-4.63.23-6.92-.19-2.82-1.32-3.38-4.32-3.42-2.62-.03-5.06,1.55-7.75.76-1.26-1.7-1.03-3.38-.66-4.42,1.22-1.4,2.1-.78,2.88-.95.96-.2,1.91-.55,2.81-.95,2.57-1.15,3.32-2.34,2.78-5.09-.88-4.54-1.15-9.1-1.14-13.7,0-2.54-1.23-3.44-3.65-3.57-1.53-.09-2.72,1.36-4.87.51-.4-4.3-.85-8.97.1-13.36.94-4.3,1.06-8.52.91-12.8-.11-3.13-1.21-4.18-4.3-4.38-2.47-.16-5.06-.27-7.44.27-6.1,1.41-12.25,2.3-18.46,2.9-1.98.19-3.95.49-5.92.78-2.5.36-3.03.88-3.44,3.42-.08.49-.08,1-.06,1.5.06,2.05-.99,2.93-2.97,3.23-4.73.7-9.04,2.81-13.52,4.32-5.79,1.94-11.41,4.29-17.3,6.03-7.72,2.28-15.5,4.68-22.99,8.41.61,2.24-1.18,3.95-.71,6.28,1.8,8.89,3.47,17.81,6.39,26.44,1.84,5.46,3.76,10.94,4.96,16.56,1.39,6.46,3.18,12.79,5.17,19.06,1.72,5.43,4.8,6.61,10.02,4.27,1.91-.85,3.49-2.42,5.89-2.81,1.73,4.64.34,10.21,4.85,13.85-2.5.86-4.83,1.66-7.15,2.47-3.09,1.08-3.45,2.23-2.07,5.17.85,1.83,2.92,2.79,3.3,4.9-1.4,1.83-3.78,2.75-4.62,5.34,1.85,1.97,1.43,4.34.58,6.75-1.47,4.21-2.97,8.4-4.4,12.62-3.06,9.1-6.66,18.1-6.5,27.93.12,7.48,1.57,14.45,8.76,18.56-2.99,5.88-8.89,9.31-10.88,15.37-1.87,0-3.45.08-5.03-.01-15.41-.84-30.82-1.62-46.26-.88-.77.04-1.13-.57-1.7-.85-.42.85-.73.79-.97-.03.28-.07.57-.1.86-.09-.06-.98.14-2.02-.49-2.9-3.04-4.31-5.02-9.34-8.85-13.12-1.34-1.32-2.13-2.91-2.61-4.73-1.06-3.97-2.16-7.92-3.34-11.85-.44-1.48-1.43-2.99-2.99-2.97-3,.05-3.38-1.76-3.92-4.05-1.86-7.91-2.88-15.95-3.75-24.01-.33-3.09-.05-6.26-.05-9.71,8.48,2,15.98-1.19,23.88-3.33-1.17-4.54-1.9-8.96-.96-13.35.97-4.52,1.78-9.14,3.87-13.33,1.84-3.69,2.41-8.32,6.93-10.39.21.6.48.95.4,1.19-1.69,5.25-1.67,10.79-2.69,16.15-.39,2.09-.4,4.37-.03,6.47.62,3.55,2.04,6.85,4.96,9.2,1.12.9,2.4,1.07,3.35-.29.17-1.26-.64-1.96-1.26-2.71-2.34-2.84-3.06-6.24-2.99-9.75.16-8.46,1.45-16.78,4.09-24.82,1.81-5.5,3.84-10.93,5.87-16.35,1.98-5.28,3.82-10.65,4.23-16.27.61-8.12-1.64-15.41-7.65-21.24-1.55-1.5-3.24-2.87-4.02-5-2.25-6.16-7.1-9.34-12.99-11.29-8.62-2.87-17.52-3.8-26.54-3.29-5.31.29-10.55,1.48-15.08,4.35-8.43,5.34-15.42,12.12-19.48,21.45-.82,1.89-1.97,3.31-3.53,4.66-4.95,4.31-9.28,9.08-9.33,16.06-1.02.53-1.72,1.15-2.48,1.25-2.5.32-4.77,1.36-7.13,2.07-4.57,1.37-5.57,3.21-4.2,7.61.3.95.72,1.9.82,2.87.62,6.31,3.67,11.53,6.93,16.78,2,3.24,4.91,5.78,6.67,8.94-.14.43-.15.64-.25.74-6.43,5.97-11.29,13.3-16.94,19.94-4.36,5.13-8.02,10.88-11.79,16.5-4.59,6.86-9.44,13.61-13.34,20.86-5.16,9.59-10.89,18.89-15.33,28.87-3.17,7.12-6.81,14.05-9.77,21.25-1.51,3.68-3.88,7.39-2.74,11.52.33.35.42.51.56.59,4.32,2.6,4.66,3.84,2.81,8.21-1.22,2.89-2.33,5.87-3.13,8.9-2.75,10.52-5.08,21.15-8.07,31.6-2.73,9.53-5.9,18.93-8.49,28.5-3.88,14.34-8.77,28.38-11.64,43.02-2.03,10.39-4.27,20.72-5.36,31.26-.04.33-.07.67-.1,1h4.01c.06-.33.13-.67.19-1,.85-4.36,1.69-8.69,2.56-13.04,1.75-8.73,3.29-17.52,5.31-26.17,2.5-10.75,6.15-21.23,9.23-31.85,2.2-7.62,4.24-15.29,6.42-22.93,1.76-6.18,3.75-12.29,5.37-18.5,1.44-5.53,2.43-11.17,3.78-16.72,1.13-4.63,2.12-9.33,4.17-13.88,3.55,2.71,6.8,5.18,9.95,7.59-.05,4.66-2.2,8.85-1.74,13.43.17,1.66.05,3.36,1.03,4.8,1.16,1.73.86,3.25.07,5.12-4.6,10.78-7.46,22.15-11.04,33.28-2.1,6.55-4.59,13.03-6.53,19.65-2.96,10.11-6.14,20.16-9.08,30.27-2.71,9.31-5.74,18.52-8.51,27.8-.12.42-.28.8-.48,1.15-.19.36-.43.69-.71,1h5c-.14-.35-.16-.67-.12-1,.05-.45.23-.89.39-1.38,3.97-11.73,7.58-23.58,11.22-35.41,3.79-12.33,7.48-24.72,11.41-37,2.4-7.54,4.99-15.06,7.26-22.63,1.39-4.62,3.31-8.99,4.78-13.53-.1-.1-.31-.21-.3-.29.03-.29.2-.24.42.16,2.71-6.68,4.85-13.58,8.02-20.24,7.82,1.93,15.28,3.76,22.89,5.63-3.44,8.4-6.61,16.74-10.19,24.92-2.85,6.5-5.12,13.26-7.67,19.89-6.43,16.79-12.9,33.57-19.31,50.37-3.47,9.11-6.81,18.27-10.25,27.39-.28.73-.65,1.42-1.02,2.12-.18.33-.36.66-.53,1h4c.25-.33.49-.66.72-1,1.8-2.67,2.98-5.66,4.04-8.67,3.1-8.69,6.61-17.24,9.45-26.04,1.62-4.99,3.94-9.75,6.21-15.28,1.23,3.04,1.68,5.54,1.72,8.11.16,8.92.99,17.79,2.01,26.65.15,1.31.49,2.64.35,3.93-.29,2.83-.22,5.57.56,8.36.25.91.12,1.93.01,2.94-.03.33-.06.67-.07,1h4c.23-.33.4-.66.52-1,.5-1.4.21-2.9.04-4.33-1.29-10.49-1.89-21.05-2.83-31.58-.64-7.07-1.46-14.14-2.51-21.17-.28-1.93-.12-3.48.58-5.24,2.96-7.5,5.77-15.06,8.68-22.59,1.36-3.52,2.67-7.06,4.04-10.58h0c.9-2.34,1.82-4.66,2.81-6.95.37-.87.76-1.74,1.15-2.6,2.21-4.86,2.97-10.15,5.14-14.99.48-1.08.91-2.11,1.95-3.13,4.15,1.32,8.6.95,13.13,1.13.93,2.38.71,4.73.71,6.98-.02,8.93-.04,17.87-.39,26.79-.43,11.06-.44,22.14-1.09,33.17-.55,9.51-.77,19.03-.48,28.49.26,8.86.28,17.77,1.42,26.6.04.33.08.67.13,1h4c-.02-.33-.03-.67-.05-1-.57-11.14-1.22-22.28-1.22-33.43,0-3.37.06-6.74.2-10.11.44-10.73.66-21.46.95-32.19.32-11.65.84-23.28.09-34.92-.25-3.91.77-7.91-1.1-11.7,2.1-2.29,5.21-.42,7.53-2.31,1.25-2.29-.98-5.4,1.16-7.9,4.36,2.97,9.38,3.65,14.59,3.47,3.11-.1,3.72-.73,3.69-3.92-.01-.82-.11-1.66-.26-2.47-1.17-6.02-.1-12.07-.8-18.6,4.19,1.49,6.67,4.52,9.68,6.62,2.7,1.88,5.35,3.13,8.51,3.52.01.01.03.01.04.01.04-.04.07-.08.1-.12.28-.29.54-.36.81,0,.03.03.05.06.07.1h.01c1.99-.6,3.5-.08,4.74,1.68,1.53,2.17,3.33,4.14,4.88,6.29,1.77,2.47,2.31,5.14,2.05,8.33-.41,4.9-.8,9.83-.73,14.75-7.58,3.7-20.92,12.28-28,16.65-1.69,1.04-3.51,1.87-5.32,2.68-3.02,1.34-4.68,4.15-6.95,6.31-.21.2-.34.59-.35.9-.07,4.48-.51,8.97.43,13.41.39,1.87,1.41,2.98,3.52,2.55.66-.13,1.32-.17,1.94.36.46.42.67.97.65,1.71-.21,8.61-.41,17.22-.58,25.84-.2,10.62.46,21.19,1.16,31.79.23,3.53.99,7.1.68,10.69-.03.33-.07.67-.12,1h4c-.05-.33-.09-.67-.13-1-1.06-8.49-.94-17.06-1.51-25.58-.61-9.24.3-18.48.23-27.71-.03-4.27.45-8.58-.45-12.83-.24-1.13-.36-2.28.09-3.42.88-1.06,2.1-.76,3.23-.74,13.88.16,27.7-1.12,41.56-1.41,6.83-.14,13.67,0,20.49.23,7.56.26,15.11.2,22.66,1.11,4.7.57,9.52.21,14.28.33,5.88.15,11.75.45,17.63.55,7.25.13,14.5.03,21.75.2,3.91.09,7.81.56,11.71.78,2.48.14,4.97.26,7.45.15,2.6-.12,5.17-.12,7.77.07,6.88.5,13.77.12,20.66.09,4.12-.01,8.26.14,12.38.4,5.86.36,11.73.45,17.56.01,2.02-.16,3.91.3,5.88.27,8.71-.14,17.38-.83,26.09-.98,4.4-.08,8.85.66,13.65-.54-.39,4.97-.66,9.71-1.17,14.43-.29,2.64-.44,5.27-.53,7.93-.4,11.21-1.05,22.41-1.41,33.63-.14,4.33-.68,8.69-.04,13.03.05.33.11.67.17,1h4c-.17-.33-.32-.66-.44-1-1.17-3.01-.66-6.21-.38-9.27.62-6.77.37-13.57.82-20.34.33-5.04.69-10.07.99-15.11.43-7.03.9-14.06,1.14-21.1.06-1.73.3-3.33,2.06-3.25,4.48.22,8.79-1.78,13.19-.98,1.9,2.22.46,4.64.33,6.71-.34,5.63-.1,11.27-.55,16.87-1.23,15.17-1.38,30.33-.02,45.49.03.32.01.65-.03.98-.04.34-.09.67-.11,1h100c-.04-.33-.09-.67-.14-1-.64-4.27-2.09-8.35-3.14-12.53-3.45-13.75-7.23-27.42-10.53-41.2-.74-3.07-2.21-6.3-.99-9.89,6.37-2.02,12.77-4.05,18.83-6.96,1.5-.72,2.42-1.6,2.18-3.37-.74-5.56-1.55-11.13-3.24-16.47-2.51-7.88-3.83-16.03-5-24.14-1.04-7.18-2.7-14.25-3.51-21.46-.37-3.29-2.74-4.3-5.48-2.63-2.55,1.55-5.02,3.28-7.73,4.49-3.24,1.46-6.1,3.82-10.25,4.61,2.11-5.77,3.38-11.37,5.74-16.29,6.71.09,12.87.16,18.41-2.54,1.18-2.31,1.24-4.19.4-6.41-3.22-8.45-3.55-17.1-1.08-27.02,1.07,4.28,1.86,7.45,2.66,10.61,1.49,5.9,4.03,11.17,8.72,15.28,1.96,1.72,4.09,2.79,6.69,2.76,1-.01,2.05-.23,2.15-1.56.09-1.18-.48-1.64-1.63-2.03Zm-87.36-210.06s.07-.05.11-.06c-.08.1-.16.2-.24.3.04-.08.06-.19.13-.24Zm-123.87,52.41c2.03-1.69,4.35-1.86,6.85-1.54.75,1.63.46,3.02-.02,4.74-2.23.17-4.17,1.65-7.1,1.17.1-1.67.18-2.97.27-4.37Zm-2.07-25.84c.05-2.6.28-2.68,4.1-2.57.8,4-.11,8.16.97,12.45-1.78.61-2.89,1.38-4.35,1.33-.19-.42-.54-.85-.55-1.29-.1-3.3-.23-6.61-.17-9.92Zm105.47,78.58c1.99-3.14,4.62-6.01,8.22-8.22,1.61,3.71,4.51,4.9,8.06,4.86,1.67-.01,2.87-.63,3.18-2.48.58-3.44,3.1-5.81,4.88-8.59.41-.64,1.18-1.19,2.43-.4-1.55,5-4.06,10.08-1.28,15.87,4.6.04,7.47,4.64,12.39,5.22.44,8.49,1.83,16.56,6.92,23.37-.46,2.07-2.62,3.24-2.29,5.46.35,2.29,2.32,3.46,3.33,6.33,1.96-3.42,4.09-5.36,6.22-7.21,2.99-2.59,6.36-4.63,10.73-3.82,4.23.77,6.61,3.29,6.09,7.53-1.4,11.36-11.96,17.21-20.49,15.74-6.04-1.04-6.02-1.15-9.4-5.44-1.63-.05-2.66,1.07-3.82,1.99-6.87,5.39-14.88,8.11-23.4,8.28-5.33.11-10.87-.73-15.44-4.46-4.68-3.83-8.05-8.56-9.4-14.32-1.21-5.21-.32-10.54,1.4-15.65,2.85-8.52,6.9-16.5,11.67-24.06Zm2.41,120.45c-2.33-7.65-2.13-14.72,3.61-21.12,2.74-3.06,5.33-6.32,7.58-9.84,1.31-2.05,3.21-3.58,5.57-4.71,2.77-1.34,5.82-2.55,7.51-6.02,9.4,3.1,18.78,4.91,27.88-2.44,2.82,4.04,7.05,5.56,10,9.13-8.56,2.06-13.2,8.05-16.87,15.01-3.15,6-5.39,12.38-7.74,18.74-2.4,6.46-4.8,12.95-7.41,19.64-5.1-1.29-10.11-.52-15-1.17-4.56-.61-9.36,1.19-13.98-1.29,1.71-5.56.42-10.76-1.15-15.93Zm-6.01-4.79c.59,3.77.97,6.96-1.9,10.16-1.82,2.02-2.96,4.81-3.91,7.44-1.42,3.93-4.46,4.84-8.05,5.19-1.77.16-3.64.1-5.19,1.63.98,3.75,3.86,1.89,6.29,2.11,2.11,2.17,3.82,5.11,6.92,6.6,3.99,1.93,7.54,4.69,11.97,5.8,3.02.76,5.42,3.13,9.75,3.4-10.53,2.81-19.73,2.27-28.76-1.36-2.3-.93-4.6-1.91-6.97-2.63-1.5-.46-2.84-1.21-3.82-2.26-2.58-2.75-4.84-5.19-3.57-9.96,1.9-7.11,4.85-13.74,7.48-20.51,2.1-5.4,4.7-10.61,7.56-15.67,3.68-6.52,7.78-12.7,13.76-17.39,4.29-3.36,8.92-5.89,14.59-5.78.24-.09.47-.18.71-.27-.09.23-.17.47-.25.7-.4,2.97-2.2,5.18-4.08,7.29-2.08,2.33-4.56,4.34-6.48,6.79-4.28,5.46-7.18,11.6-6.05,18.72Zm2.33,21.72c-1.38-.15-2.85-.3-4.6-.49.43-2.9,1.59-5.09,3.31-7.65.72,2.93,2.56,5.08,1.29,8.14Zm26.58,25.09c1.9.01,4.59,2.49,4.62,5.05.04,3.42,1.99,5.9,3.17,8.75,1.36,3.27.82,4.71-2.65,5.24-6.42.97-12.92.77-19.3-.13-3.37-.47-7.02.05-10.61-2.3.53-5.04,1.06-10.03,1.6-15.26,7.71-.94,15.43-1.39,23.17-1.35Zm-99.89-81.6c-.78-1.18-2.09-2.29-3.39-2.78-2.64-.99-2.84-2.81-2.64-5.16.5-5.75-.06-11.51.68-17.31.74-5.84.24-11.82.48-17.74.38-9.37,1.08-18.71,3.38-28.6,4.64,4.19,7.45,9.31,12.33,12.04,5.87-1.97,8.49-6.9,12.2-11.09-.67,4.94-1.27,9.89-2.06,14.81-.21,1.32-.4,2.62-.41,3.95-.04,4.13.14,8.26-.65,12.38-.36,1.89-.3,3.94,0,5.85.86,5.56.11,11.1-.01,16.65-.06,2.42.08,4.85.33,7.26.73,6.91-.19,13.88.63,20.75.96,8.07.5,16.15.88,24.16h-13.92c-1.71-5.54-1.68-10.94-1.54-16.25.19-7.15-2.51-13.21-6.29-18.92Zm-3.3,40.94c-1.14-10.27-3.67-20.11-8.81-29.13-1.47-2.57-3.3-4.95-5.13-7.27-1.73-2.19-3.68-4.19-5.62-6.37-.09.16.06-.32.19-.32,4.71.12,9.38-.07,13.77,2.5,2.17,1.27,4.87,1.36,6.23,4.15,2.12,4.34,3.81,8.68,3.84,13.62.04,8.51-.37,17.1.64,25.51.9,7.41.91,14.73.76,22.11-.04,2.03-.14,3.99-1.68,5.71-1.52-.08-3.08-.16-4.52-.24-.86-1.25.07-2,.36-2.9.84-2.65.86-5.35.91-8.15.12-6.44-.23-12.82-.94-19.22Zm-48.28,28c6.15.01,11.8-2.85,18-2.63,1.41.05,2.51-.92,2.63-2.49.38-4.94.84-9.87,1.01-14.82.16-4.94,0-9.9-1.56-14.76-1.95-.62-2.53.51-2.77,2.27-.32,2.32.59,4.51.54,6.85-.05,2.03-.1,4.05-.27,6.08-.23,2.79-.33,5.59-.44,8.39-.16,4.41-.6,5.12-4.98,5.91-3.42.62-6.92.83-10.37,1.26-5.93.74-11.73,2-17.39,3.95-.99.34-1.87.63-2.29,1.67.12.24.25.47.37.71-.24-.12-.47-.24-.71-.36-.64-.02-1.28-.05-1.86-.08-1.87-6.17-.32-12.19.04-18.15.2-3.26.55-6.55.7-9.83.34-7.27,1.61-14.42,2.65-21.6.66-4.59.92-9.24,1.41-13.85.36-3.37.81-6.72,1.28-10.56,4.46,2.87,5.5,8.83,11.25,9.45,5.83-4.04,2.52-11.06,4.97-16.23.28-.13.63-.43.85-.36,8.7,2.91,16.62,7.2,23.77,13.01,4.83,3.92,7.34,9.37,10.08,14.61,2.69,5.12,4.39,10.69,5.17,16.46,1.54,11.37,2.45,22.78,1.72,34.27-.16,2.4-.82,2.92-3.62,2.92-8.65.01-17.29-.03-25.94-.07-3.82-.01-7.64-.06-11.46-.09-1.18,0-2.4.03-2.78-1.93Zm.15,14.49c-2.26,1.77-3.93.24-6.16.57,1.26-3.43.06-6.71,1.32-10.2,4.09,2.18,3.29,6.39,4.84,9.63Zm-9.43,1.62c-4.08-1.95-7.98.14-11.54-2.59,2.4-3.93,6.45-5.58,10.34-8.36.8,3.75,1.24,6.84,1.2,10.95Zm6.63-87.8c.16,1.4-.37,2.98-1.59,3.44-3.63-3.43-7.09-6.69-10.86-10.24,4.44-1.48,8.99-1.65,12.52-4.47,1.1,1.28.71,2.62.53,3.89-.34,2.45-.91,4.84-.6,7.38Zm100.88-12.19c-.04,12.43-.02,24.86-.06,37.29-.01,2.6.7,5.2.08,7.79-6.26,3.06-12.6,5.24-19.72,5.57-1.37-2.95-.9-6.06-.82-9.11.17-6.58-.31-13.16-.46-19.72-.18-7.85-1.28-15.7-.67-23.58.16-1.96-.24-3.95-.29-5.93-.18-7.22-.55-14.46-.41-21.68.16-8.26.79-16.5,2.1-24.68.05-.27.35-.5.63-.88,1.89.74,2.36,2.69,3.26,4.16.69,1.13,1.25,2.34,2.12,3.34,1.99,2.28,4.81,2.99,7.51,1.62,3.19-1.63,6.25-3.5,9.24-5.2.77.57.59,1.11.49,1.56-1.73,7.68-.56,15.55-1.44,23.27-.53,4.58-.52,9.2-1.24,13.79-.63,4.05-.31,8.26-.32,12.39Zm-15.01,55.51c1.27,3.81-.7,7.25.92,10.47-2.05.72-10.81,1.83-12.14,1.49-1.46-.38-2.77-.96-3.34-2.62-1.02-3.02-1.54-6.02-.48-9.34h15.04Zm-24.4-.33c1.5-.91,3.09-.23,4.91-.27.88,3.79-.37,7.7,1.38,11.19-1.83,1.26-3.22-.35-4.67-.16-1.07-2.78-1.76-7.44-1.62-10.76Zm1.14,14.53c10.77,3.04,21.06,1.8,32.14.64-1.27,5.29-2.73,10.3.95,14.97-9.27.35-18.15,2.34-27.2,1.64-1.96-.15-3.95-.02-5.89-.02v-17.23Zm30.35-2.95c-1.68-.04-2.49-1.02-2.49-2.47,0-1.99-.66-3.87-.51-5.9.28-3.79.18-3.81,3.88-5.02,1.26-.41,2.41-1.12,3.66-1.53,1.24-.42,1.94-1.88,3.96-1.76.19,6.61-3.89,11.59-5.76,17.35-1.2-.31-1.96-.65-2.74-.67Zm66.6-71.32c-.45-1.63.72-2.83,1.91-3.76,1.69-1.33,3.46-2.55,5.52-4.05,3.04,2.77,7.18,3.31,11,4.76.07,4.93,1.3,9.5,2.95,13.95-7.03,5.52-14.27,5.83-22.2,3.66,1.38-4.76,2.22-9.6.82-14.56Zm-53.49-12.99c.54-1.67.36-3.62.27-5.44-.4-7.8.9-15.51,1.12-23.28.13-4.42,1.68-8.64,3.16-13.19,2.95.83,5.39,1.3,7.81,2.63-.14,1.98-1.3,3.61-2.16,5.33-3.67,7.36-5.97,14.96-5.62,23.38.16,3.69,1.51,6.79,2.91,9.88,1.3,2.87,2.46,6.1,5.78,7.52,4.53,5.82,10.83,7.83,17.85,8.27.85.05,1.63.29,2.69,1.46-1.09,3.97-2.19,8.35-3.55,12.64-.45,1.42-1.84,2.34-3.26,2.93-11.26,4.7-18,13.98-24.11,23.86-1.02,1.64-1.46,3.62-3.38,5.51-.02-6.51-.36-12.43-.32-18.39.07-10.29.21-20.58-.15-30.88-.14-3.98-.36-8.2.96-12.23Zm-2.49-60.78c.34,2.2.76,4.42.34,6.76-.61,3.42-.05,6.93.5,10.32.36,2.19-.39,3.39-1.81,4.73-3.37,3.18-7.51,5.23-11.56,8.24-2.72-3.98-5.2-7.62-7.78-11.39,2.75-2.66,6.55-3.73,8.72-6.73,2.03-2.8,4.75-5.11,6.34-8.65-2.78-1.88-1.69-4.42-1.18-6.87,4.66-.99,5.81-.44,6.43,3.59Zm-4.21-8.68c.11-.04.27,0,.38.07.05.02.04.17.06.27-.12.04-.26.13-.36.1-.41-.11-.44-.29-.08-.44Zm31.83-38.33c-.36.73-.87,1.43-1.45,2-2.13,2.1-6.34,2.94-8.22,1.7-2.6-1.72-3.8-6.3-2.33-9.3,2-4.11,4.73-7.49,9.1-9.39,4.24-1.84,6.74-1.04,9.18,3.28-1.52,4.21-4.3,7.74-6.28,11.71Zm-33.84-39.14c.29-.39.58-.78.87-1.17,1.87-2.86,4.66-5.08,5.72-8.51,6.24,1.21,12.28,2.71,18.4,3.86,4.5.85,9.02,2.49,12.75,5.08,3.22,2.24,6.67,4.98,6.72,9.72.34.22.83.52.44.91-.41.41-.69-.11-.9-.45-3.05-.75-6.12-1.27-9.28-.98-1.28.12-1.27.14-2.85,2.25,1.03,1.97,2.93,1.16,4.46,1.27,3.69.26,6.7,1.62,8.8,4.79-.51,1.84-1.04,3.55-2.59,4.64-1.97-.22-2.5-2.38-4.9-2.64-4.21.31-8.69,1.77-12.81,4.51-2.62,1.75-4.31.81-4.61-2.28-.12-1.16-.03-2.35-.28-3.47-.56-2.49-1.43-4.81-4.27-5.6-.47-.14-.94-.37-1.35-.64-5.88-3.94-11.68-2.61-17.39.37-1.59.84-2.84,2.31-4.7,2.69-.32.06-.74.11-.98-.04-1.65-1.08-3.27-2.21-5.31-3.6,5.37-3.11,9.31-7.41,14.06-10.71Zm15,22.12c-1.71,6.27-6.16,10.44-11.85,13.31-3.21,1.61-5.95.02-8.05-2.05-4.39-4.33-4.95-7.4-1.83-12.77,2.51-4.32,9.55-8.6,13.94-8.56,5.12.93,9.61,3.36,7.79,10.07Zm-56.26,8.46c-2.73-4.51-3.45-9.54-3.07-14.62.27-3.72.65-7.56,3.17-10.76,1.85-2.35,5.6-3.93,8.29-3.39,2.4.48,3.8,1.69,4.37,4.09,1.27,5.38,2.13,10.84,2.17,16.35.01,2.08.72,3.78,1.19,5.6,3.65.06,5.04-.66,5.34-3.54.23-2.25.78-4.17,2.23-5.85,4.83,1.73,5.15,2.37,4.64,7.01-.7,6.38,1.86,10.85,7.76,14.14,4.67,2.61,9.5,1.95,14.02-1.21,1.66-1.17,2.86-3.32,5.33-3.13,0-.02,0-.05,0-.07.04-.06.07-.11.11-.17.12-.92-.06-1.95,1.5-2.26-.5.75-1,1.51-1.5,2.26,0,.08-.02.16-.03.24h-.09c-.45,3.25-3.15,4.85-5.23,6.84-1.53,1.47-2.7,2.81-1.61,5.01q4.34-.54,9.76-5.48c2.94,3.18,5.48,7.16,10.59,6.49.8,1.58-.28,2.45-.73,3.38-2.38,4.94-5.49,9.43-8.89,13.73-1.48,1.87-3.21,3.29-5.49,3.94-1.23-.3-1.15-1.57-1.82-2.27-.75-.78-1.5.31-2.21-.07-.78-.78.1-1.59-.08-2.33-.34-1.43-1.29-2.68-2.77-2.19-2.32.77-4.02-.08-5.74-1.4-2.54.88-3.42,3.31-5.06,5.07-1.6-1.14-.06-2.37-.13-3.52-.09-1.65-.57-3.22-2.6-2.67-2.13.58-3.07-1.75-4.89-1.64.01.04.01.07.02.11-.05.02-.12.03-.19.03-.11.18-.22.38-.32.57-.41-.62,0-.56.32-.57.03-.05.05-.09.08-.14.03,0,.06-.01.09,0-.02-.13-.03-.26-.07-.38-.44-1.37,1.69-3.6-1.01-4.09-2.25-.41-2.34,1.98-2.97,3.37-1.21,2.65-2.18,5.41-3.31,8.25-4.45-2.13-7.2-5.03-6.91-10.09.36-6.4-.91-12.77-.22-19.06-1.05-.9-1.98-1.48-3.27-1.2-4.98,1.09-8.29-.26-10.78-4.38Zm9.26,48.51c1.57-3.13,2.82-6.35,3.2-9.85.08-.74.44-1.23,1.43-1.54,7.06,5.01,15.27,7.77,24.09,9.59-.76,4.21-1.1,8.5-2.36,12.5-1.34,4.27-4.94,6.89-8.83,8.95-1.07.57-2.02-.15-2.71-.72-4.61-3.77-9.24-7.54-13.67-11.53-2.84-2.56-2.91-3.87-1.15-7.4Zm-12.17,6.85c.83-4.3,3.44-6.99,6.38-9.66.2-.17.63-.11.95-.11.15,0,.29.13.67.31.06,1.25-.6,2.3-1.24,3.43-1.81,3.18-1.66,3.26.48,6.08,3.21,4.24,6.89,7.99,11.13,11.21,1.43,1.1,2.7,2.42,4.29,3.86-3.15,5.45-5.16,10.83-10.68,14.16-4.53-4.89-8.98-9.69-13.43-14.5.85-4.93.5-9.88,1.45-14.78Zm-6.61,14.95c1.27,1.56,2.5,3.06,4.04,4.95-.73,2.68-2.5,5.74-2.91,9.21-.56,4.61-1.56,9.19-1.72,13.8-.25,7.44-1.24,14.81-1.24,22.28s-.75,15.17-1.17,22.8c-6.01-.14-11.71-.3-17.4-.41-1.69-.03-3.11-.52-4.65-1.35-4.93-2.67-10.15-4.73-15.65-5.95-.69-.15-1.25-.4-1.72-1.37-.32-.83.39-1.58,1.11-2.27.6-.58,1.39-.98,1.89-1.62,2.57-3.31,5.57-5.08,9.77-3,8.43.16,15.76-1.8,20.07-10,2.68-5.11,2.12-13.86-1.72-18.17-1.65-1.86-1.82-3.39-1.43-5.79,1.03-6.17,1.78-12.46-1.08-18.46-.19-.41-.1-.95-.17-1.86,4.46-1.64,9.43-.69,13.98-2.79Zm-49.14-54.51c-2.68-.15-4.89,1.52-6.23,4.8-.81,1.98-1.7,3.96-2.24,6.03-.5,1.86-1.59,2.74-3.31,3.29-2.52.79-4.98,1.74-7.61,2.68-2.67-1.89-2.06-5.11-2.49-7.63-.56-3.39-1.05-6.84-1.64-10.24-.3-1.76-.12-2.92,1.68-3.49,9.42-2.97,18.69-6.44,28.34-8.69.27-.06.61.18.92.28.72.8.89,1.83.82,2.79-.31,4,.06,7.92.91,11.82.21.96.11,1.99.26,2.97.34,2.34-.66,3.8-2.84,4.56-1-.92-.51-2.19-.75-3.28-.8-3.57-2.92-5.72-5.82-5.89Zm-28.9-44.13l8.72-2.68c.97-.3,3.57-1.52,4.53-1,1.72.92-1.06,1.66-1.73,1.75-3.1.41-6.15,1.25-9.02,2.49-1.56.67-3.21,1.48-4.87,1.15.29-.98,1.4-1.41,2.37-1.71Zm-32.07,10.47c3.25-1.9,6.96-2.86,10.62-3.79,1.3-.33,9.17-3.2,9.4-1.18.23,2.11-5.75,3.4-7.16,3.76-3.6.9-7.2,1.8-10.8,2.71-1.42.35-2.85.71-4.3.92.27-1.1,1.26-1.85,2.24-2.42Zm1.45,5.41c.92-.15,1.79.22,1.75,1.2-.19,4.95,1.72,9.75.97,14.72-.04.28-.36.52-.88,1.24-.35-5.44-1.62-10.28-3.24-15.04-.38-1.12.21-1.92,1.4-2.12Zm2.32,18.5l-.17.26-.09-.3.26.04Zm-.66,10.58c-1-3-2-6,0-6,.79,0,2,0,3,3s4,25,4,25c0,0-6-19-7-22Zm9.55,21.64l-.21-.16.25-.09-.04.25Zm-.11-28.7c-.5,8.17-.21,16.38-.26,24.57-2.24-8-2.89-16.04-3.49-24.11-.58-7.91-.98-15.85-2.51-23.47,1.76-2.49,4.17-2.09,6.77-2.34.63,8.58,0,16.95-.51,25.35Zm7.24,39.21c-.27.08-.64-.1-1.57-.25-.46-4.91-1.12-9.61-1.28-14.33-.42-11.9-.06-23.81.2-35.71.08-3.93.03-7.83-.23-11.75-.3-4.47.43-5.23,4.9-6.47,9.7-2.68,19.38-5.45,29.06-8.21.94-.27,1.83-.73,2.96-1.2-.82-3.23-1.11-6.48-.82-9.68,5.48-1.58,26.97-4.82,29.79-4.51,1,2.01.88,4.31.39,6.29-1.41,5.73-.78,11.55-.94,17.3-.11,3.74-.57,7.47-.45,11.27.25,7.36.62,14.73,1.12,22.07.34,4.82-.03,9.59.44,14.44-2.77,1.66-5.57,2.62-8.36,3.57-2.81.95-5.65,1.82-8.48,2.73-1.16-3.86-1.15-3.9,2.09-5.01,1.1-.37,2.25-.6,3.32-1.05,2.49-1.04,3.83-2.94,3.89-5.69.07-3.5-1.11-6.81-1.49-10.24-.36-3.27-.47-6.57-.82-9.85-.43-4.14-1.69-5.19-5.68-4.34-3.04.65-6.03,1.66-8.98,2.68-6.87,2.4-13.69,4.92-20.56,7.34-1.07.38-2.24.5-3.32.73-1.62,3.21-.74,6.54-.55,9.76.18,3.29.94,6.55,1.41,9.84.46,3.27.55,6.66,3.39,9.41,3.63.01,6.55-3.22,10.61-3.35-.2,1.61-.44,2.64-1.96,3.22-9.38,3.61-18.49,7.9-28.08,10.99Zm7.43,2.81c.21-.28.28-.49.41-.53,6.76-2.15,12.91-5.84,19.74-7.81,5.41-1.56,8.16-4.82,8.93-10.53.57-4.23,1.83-8.25,3.94-12.03,1.79.21,2.46.99,2.26,2.63-.62,4.92-.85,9.89-1.53,14.76-.53,3.87-.91,7.76-1.34,11.63-.43,3.89-.3,3.96-4.3,4.46-2.91.37-5.78.64-8.68,1.34-5.52,1.34-9.96,4.28-14.25,7.69-.52.41-1.05.8-1.59,1.17-.12.08-.31.06-.82.14-2.6-4.17-1.92-8.76-2.77-12.92Zm-3.71,48.71c.69-2.95,1.72-5.71,3.05-8.34,4.44-8.82,10.04-16.72,18.38-22.34,5.07-3.42,10.57-5.55,16.78-5.37,5.59.16,11.26-.32,16.92,1.67-3.99,3.68-3.52,8.61-4.43,13.06-.32,1.59-.38,3.26-.62,4.9-1.01,6.66.73,12.83,3.97,18.59,1.92,3.39,4.95,3.79,7.64,1.04,1.42-1.45,2.92-2.73,4.68-3.66,1.25-.67,2.47-.5,3.69.46,5.94,4.7,5.85,15.9-.98,20.13-3.58,2.21-7.43,3.54-11.71,3.45-1.18-.03-2.31,0-3.33-.74-2.74-2.03-4.99-.93-6.98,1.21-3.97,4.25-8.95,6.84-14.39,8.53-6.76,2.08-13.54,2.31-20.48.4-7.8-2.15-11.34-7.75-12.57-15-1.01-5.94-1.01-11.98.38-17.99Zm22.71,39.53c-3.07,3.21-5.79,6.06-8.85,9.28-1.46-3.46-1.96-6.63-1.06-10.65,3.27,1.37,6.3.56,9.91,1.37Zm-28.6-35.56c.47.33.52.8.32,1.28-.2.46-.51.46-.69.01-.18-.49-.15-.98.37-1.29Zm-5.06,33.85c-1.34-6.12-1.74-12.04.18-18.06,1.28-4,2.41-8.04,3.57-11.97,1.03.13,1.63.48,1.53.92-.86,3.84.69,7.45,1.09,11.16.69,6.43,4.08,11.4,9.4,15.05,1.22.84,2.65,1.41,4.01,3.29-5.16,1.88-8.16,6.38-12.83,8.82-3.32-2.35-6-4.85-6.95-9.21Zm18.92,4.89c1.26.45,1.03,1.68,1,2.51-.11,2.24.73,4.21,1.47,6.2,1.23,3.28,3.49,3.8,5.95,1.15,2.72-2.91,5.18-6.06,7.71-9.13.42-.5.66-1.15,1.49-1.19.99.04,1.7.94,1.39,1.6-3.34,7.2-3.28,15.09-4.68,22.67-1.26,6.82-2.27,13.69-3.2,20.57-.59,4.37-.79,8.79-1.23,13.19-.63,6.21-1.4,12.41-1.12,18.86-6.07,1.48-11.88,1.86-18.13.99.93-4.07.64-7.85.84-11.62.49-9.36,1.41-18.67,3.41-27.87.7-3.18,1.63-6.4,1.52-9.73-.13-3.83-1.09-4.92-4.89-5.16-4.1-.25-8.22-.32-12.36-.48,1.22-4.91,12.73-16.9,20.83-22.56Zm1.14,82.03q6.45-1.46,9.88,3.28c-2.06,1.87-4.09,2.07-7.02.68-.28.34-.65.77-1.06.36-.42-.4-.02-.79.33-1.09-.29-1.28-1.18-2.22-2.13-3.23Zm-3.51,6.62c-2.06.11-4.25.9-6.69-.07-.66-1.79.15-2.97,1.94-2.78,1.49.15,2.91-.32,4.66-.09.4,1.09.78,1.84.09,2.94Zm-60.34-63.14c10.4.4,20.8.94,31.2,1.56,6.1.37,12.2.55,18.31.5,1.96-.02,3.98-.57,5.75.77.62,2.14-.5,3.98-1,5.84-2.75,10.23-4.43,20.65-5.56,31.16-.47,4.45-.18,8.97-.39,13.46-.17,3.47-.58,6.93-.91,10.66-3.84,1.31-7.79,1.23-11.67,1.33-6.28.17-12.62-.33-18.86.27-9.26.88-18.53.73-27.79.91-5.71.11-11.5.22-17.06-1.25-.26-.33-.59-.55-.66-.84-.97-4.13-.83-4.36,3.05-4.53,5.89-.25,11.78-.65,17.66-.63,9.9.04,19.8.07,29.7.54,6.58.31,13.18-.03,19.78-.08.49-.01,9.06.06,9.44-.16,1.08-.64-.83-.67-.65-2.4.14-1.35,2.08-2.65.1-2.83-.63-.05-9.28.21-9.93.24-9.51.32-19.03.45-28.55.53-10.08.09-20.22-.45-30.29.94-3.09.43-6.26.89-9.95.04-1.09-18.69-.18-37.05,1.64-55.48,1.72-1.29,3.83-.85,5.73-.86,6.97-.04,13.94.03,20.91.31Zm-31.31-22.05c2.74,2.99,4.94,6.37,6.97,9.92,1.52,2.67,2.68,5.7,5.68,7.24.34-.52.64-.55.9-.04-.3.01-.6.02-.9.04-2.91,1.9-11.44,1.91-13.73-.01-.63-.53-1.36-1.04-1.78-1.72-1.69-2.68-4.08-4.73-6.22-6.92,1.71-2.97,4.08-5.19,9.08-8.51Zm-6.37-13.9c1,3.63,1.98,7.16,3.01,10.88-2.9,2.7-5.79,5.4-8.92,8.33-2.33-2.36-4.55-4.55-7.08-6.37-1.4-1.01-2.17-2.49-2.89-3.98-.36-.74-.38-1.84-.94-2.24-2.96-2.12-2.5-6.33-5.35-8.47-.87-.66-.88-1.78-.87-2.77.09-10.01-.03-19.98,2.29-29.9.98-4.21,1.38-8.71,1.99-13.09.9-6.5,4.15-12.07,7.53-18.1-.28.49.17,2.25.22,2.84.09,1.15.17,2.31.25,3.46.16,2.19.3,4.39.45,6.59.3,4.47.58,8.95.89,13.42s.64,8.93,1.04,13.38,1.41,8.89,1.36,13.2c-1.23-.11-2.49-.22-3.71.06-1.16.27-2.28.91-2.88,1.94-.16.28-.29.61-.19.92.16.52.8.69,1.34.76,2.09.26,5.28-.46,7,.83-2.48,2.45-6.48,3.54-7.8,7.03.6.95,1.17,1.52,2.03,1.72,1.91-.38,2.66-2.53,4.9-3.07,1.42,1.81,3.65,2.5,6.33,2.62Zm-33.01-79.14c3.48,5.53,6.22,10.53,8.67,15.68,2.47,5.18,2.48,10.45-.14,16.91-.87-4.48-1.68-7.84-2.15-11.24-.51-3.78-2.62-7-3.36-10.66-.68-3.37-3.68-6.09-3.02-10.69Zm-7.42,1.7c-3.21,1.89-5.84,1.83-8.52-.66-.72-.67-1.73-1.05-2.24-2.78,6.58-3.82,12.09-8.71,16.78-15.45.87,3.95,1.33,7.3,2.57,10.44.3.78-.09,1.7-.87,2.17-2.87,1.72-4.78,4.55-7.72,6.28Zm10.71-3.18c.42-.43.76.03,1.03.38,1.58.9,2.23,2.53,3.14,3.96,2.91,2.21,6.29,3.51,9.61,4.94,2.25.97,2.5,1.47,1.42,3.63-1.16,2.36-2.48,4.63-3.88,7.22-2.42-2.1-2.64-5.27-4.22-7.66-1.52-2.3-3.19-4.64-3.65-7.51-1.54-.91-2.65-2.15-3.05-3.93-.35-.27-.8-.63-.4-1.03Zm20.06,13.04c-.07-1.23.67-1.47,1.5-1.34,1.34.22,1.27,1.12.84,2.14-.79-.27-1.58-.54-2.34-.8Zm3.95,22.44c.02-.1.19-.16.3-.24.07.12.14.24.22.36-.06.13-.08.35-.17.38-.3.1-.45-.1-.35-.5Zm7.56-18.88c-1.09,5.89-.95,11.77-.05,17.68-1.02.83-2.12.66-3.5.2-2.91-6.4-.97-13.43-2.14-19.83.5-.92,1.02-1.28,1.69-1.47,2.98-.82,4.55.46,4,3.42Zm13.32-.66c-1.12,4.6-2.43,9.18-1.73,14.03.25,1.74-.79,2.73-2.59,2.95-1.46.17-2.9.5-4.31.76-1.46-1.93-1.13-4.14-1.13-6.19,0-4.07.27-8.13.44-12.19.05-1.31.79-2.38,1.97-2.58,3.27-.55,5.79-2.78,9.53-4.04-.88,2.9-1.64,5.05-2.18,7.26Zm13.18-82.44c-2.53.61-5.12.39-7.65.61-4.08.36-7.62,1.63-10.9,4.07-2.18,1.64-4.59,3.05-7.05,4.25-5.34,2.61-10.1,6.28-15.82,8.22-4.67,1.59-9.35,3.1-14.16,4.18-.4.09-.9-.27-1.78-.57,3.8-3.03,6.75-6.56,11.05-8.49,2.72-1.22,5.02-3.19,7.62-4.68,7.98-4.55,16.67-7.17,25.42-9.57,4.56-1.26,8.99-.02,13.27,1.98Zm-8.94,7.53c-1.81,2.03-4.38,2.94-6.53,4.47-6.92,4.92-14.47,8.59-22.63,10.97-2.24.65-2.26.59-6.64-.23,8.59-3.4,16.18-7,23.3-11.46,2.77-1.74,5.6-3.38,8.33-5.2.81-.54,1.69-1.01,2.59-1.39.82-.34,1.66-.26,2.13.65.44.86.07,1.5-.55,2.19Zm-37.93-13.46c1.38-.87,2.94-1.53,4.5-2,6.55-2.01,13.36-2.25,20.07-1.82,4.16.26,8.22,2,12.32,3.08-14.35,3.33-29.62,7.58-49.2,24.02-1.51-1.76-3.79-2.37-5.82-3.54,3.95-8.57,10.34-14.82,18.13-19.74Zm-26.63,29.26c1.61-1.6,2.71-3.69,5.09-4.61,3.73-1.43,6.3-.6,8.08,3.08.58,1.19,1.12,2.41,1.83,3.95,3.01-.54,5.87.89,8.87,1.5,6.76,1.4,12.98.68,19.38-2.06,10.8-4.63,20.11-11.38,29.25-19.09,4.73,2.54,8.29,5.79,10.17,11.3,2.05,6.02,1.82,11.58-.11,17.48-2.94,9.03-6.75,17.62-12.51,25.16-3.3,4.33-7.44,7.99-11.66,11.45-3.08,2.53-7.02,3.04-10.82,3.09-7.22.09-14.15-1.58-20.64-4.71-8.1-3.89-15.34-16.01-10.4-26.61-1.13-1.07-1.93-1.84-3.31-1.32-1.38.53-2.82.94-4.26,1.28-4.76,1.11-9.13-.07-11.63-5.81-2.4-5.5-1.65-9.77,2.67-14.08Zm-16.09,28.63c-1.18-3.58-2.02-7.28-3.04-11.05,3.35-2.38,7.12-2.84,10.7-4.05,2.5,3.42,3.24,7.94,8.01,9.86-3.15,3.38-6.02,5.86-9.37,7.71-3.56,1.97-5.02,1.43-6.3-2.47Zm6.62,11.44c-.77-1.24-1.55-2.48-2.31-3.69.54-1.76,2.29-1.83,3.54-2.44,3.7-1.8,7.29-3.63,9.76-7.11,1.13-1.61,2.72-1.64,4.35-.62q-3.5,6.19-15.34,13.86Zm-48.04,157.84c-.9-3.69.8-6.68.71-9.75,1.54-.44,2.42.35,4,1.18-2.36,2.46-2.43,5.85-4.71,8.57Zm72.1-11.11c-4.46.67-8.54.04-12.44-2.47-.66-5.08,1.01-9.86,2.06-14.58.96-4.35,1.22-9.01,3.29-13.68,4.44,2.6,7.63,5.07,7.78,10.39.13,4.56-.6,9.04-.65,13.57-.02,2.1,1.18,4.16-.04,6.77Zm.68-30.84c-.12.11-.22.22-.35.3-.03,0-.19-.15-.19-.18.09-.12.19-.23.3-.35-4.82-2.99-9.22-6.35-12.33-11.28-1.43-2.26-2.62-4.59-3.52-7.05-3.42-9.32-6.73-18.68-10.11-28.02-.39-1.08-.95-2.1-1.38-3.05-1.5-.28-2.37.48-2,1.55,1.06,3.12.97,6.43,2.42,9.55,1.95,4.18,2.89,8.81,4.45,13.18,1.5,4.21,3.24,8.33,4.85,12.5.85,2.18,2.06,4.11,3.65,5.85,2.01,2.19,2.67,4.49,1.77,7.69-2.23,7.93-4.55,15.85-5.81,24.05-.55,3.59-.21,7.24-.95,11.04-3.23.46-6.32.86-9.4,1.35-3.05.48-6.05.06-8.79-1.11-5.25-2.25-10.89-2.61-16.34-3.86-11.61-2.69-22.61-6.33-30.84-15.72-3.6-4.12-5.08-8.05-2.37-13.35,3.84-7.48,7.16-15.23,10.71-22.85,4.33-9.3,9.62-18.1,14.36-27.18,1.84-3.52,4.54-6.58,6.27-10.07,3.27-6.59,7.53-12.5,11.74-18.39,6.65-9.28,13.34-18.56,21.03-27.07,1.82-2.01,3.24-3.13,5.79-1.47,1.79,1.16,3.48.11,5.21-.49,1.75-.6,2.74-2.49,4.98-2.65,1.45,1.5,2.46,3.49,2.64,5.55.31,3.48,1.64,6.81,1.39,10.37-.06.97-.14,2.08.57,2.88,3.36,3.77,3.09,8.46,3.37,13.03.84,13.45,1.19,26.9,1.02,40.37-.02,1.61.49,3.22.79,5.01-1.69,1.09-3.95.88-5.52,2.2-1.18.99-1.97,4.4.63,3.79.87-.2,1.83-1.43,2.69-1.84,1.22-.58,2.5-.93,3.85-.65.21,1.43-.56,2.38-1.4,3.1-.79.67-1.49,1.36-1.81,2.31-.32.92-.63,2.03.57,2.59.83.39,1.65.05,2.2-.68,1.19-1.54,1.8-3.65,4.68-4.14.19.29.74.8.88,1.41.51,2.13,1.8,3.02,3.81,3.99,3.27,1.58,5.03,5.08,7.62,7.84-4.15,6.08-7.83,12.29-12.66,18.18-3.06-2.98-5.77-5.6-8.47-8.23Zm24.14,17.82c-4.55-2.07-8.61-3.82-12.24-7.13,3.98-6.03,8.49-11.61,12.1-18.01,3.73,4.35,6.84,8.59,11.59,11.78-3.3,5.22-6.86,9.6-11.45,13.36Zm7.98,3.2c-.78-.84-1.51-1.73-2.35-2.69,1.98-2.3,3.9-4.51,5.81-6.73.17-.53.37-1.52.9-1.24.9.5.34,1.28-.24,1.85-.14,3.78-.34,7.55-1.52,11.31-1.65-.05-1.79-1.65-2.6-2.5Zm1.83,34.1c.14,2.58.44,5.15.94,7.72.17.87.05,1.62-.3,2.39-.67,1.45-.25,2.93-.05,4.4.4,3.09.94,3.47,3.92,4.06,8.25,1.64,16.58.97,24.88,1,8.07.04,16.17.51,24.19-.86,2.61-.44,5.19,1.62,7.79.04,4.57,1.18,9.05-.91,13.6-.39,1.29.14,2.29-.4,3.3-.91,1.73-.87,3.27-2.31,5.42-.84.37.25,1.3-.08,1.86-.36,1.91-.97,3.91-1.03,5.8-.29,1.91.75,3.6.1,5.36-.27.66-.14,1.17-.49,1.63-1.04,2-2.42,4.14-3.08,6.15-1.14,2.15,2.07,4.72,2.32,7.23,2.69,5.38.8,10.8,1.34,16.22,1.79,2.85.24,5.05-1.75,7.49-2.85.91-.41.54-1.32.51-2.16-.13-3.02-1.24-5.82-1.8-8.76.89-1.08,2.16-.7,3.23-.65,11.73.49,23.45,1.12,35.17,1.58,6.58.27,13.18.08,19.75.48,10.96.66,21.82-.82,32.73-1.17,3.71-.12,7,.69,10.48,2.28,5.84,2.66,11.92,5.1,18.61,4.9,1.14-.04,2.29.23,3.62.37-2.97,2.27-2.02,6.05-3.73,8.49-.51.19-.83.45-1.11.41-7.25-1.06-14.4-.21-21.56.91-1.95.3-3.98.18-5.98.19-6.93.03-13.88.57-20.78.39-8.29-.22-16.57-.28-24.86-.23-7.74.05-15.48.01-23.25.5-7.22.46-14.56.63-21.82-.2-1.79-.2-3.61-.31-5.4-.25-9.01.26-18.02-.16-27,.05-7.47.17-14.98.31-22.39.15-8.45-.19-16.96.23-25.38-.79-6.79-.83-13.58-.67-20.39-.48-4.62.12-9.24-.01-13.86.17-4.1.16-8.19.06-12.3.01-7.79-.09-15.59.61-23.38.4-5.89-.16-11.78.21-18.51-.08,9.35-6.39,23.98-15.2,33.97-21.65Zm223.3,37.09c-5.76.1-11.53.48-17.29.58-7.97.13-15.95.24-23.92.15-11.43-.13-22.86-.5-34.29-.06-6.14.24-12.19-1.12-18.35-.83-4.11.2-8.24-.08-12.36-.28-12.16-.59-24.33-.76-36.5-.66-11.18.1-22.35-.29-33.48-1.12-13.54-1-27.06-.88-40.6-.46-9.84.3-19.67,1.03-29.51,1.45-4.14.17-8.29.03-12.77.03-1.01-3.61-1.78-6.79-1.31-10.16,3.33-1.68,6.91-1.56,10.27-1.27,4.74.41,9.48.73,14.22.79,11.93.17,23.88.53,35.79.16,11.7-.36,23.4-.39,35.04.41,19.26,1.33,38.52.36,57.77.81,8.04.18,16.08.6,24.11.42,4.12-.09,8.27.23,12.33-.05,13.8-.94,27.6-.43,41.4-.33,10.35.07,20.71.19,31.04-.23,9.4-.39,18.77-1.5,28.63-2.33,1.44,3.5-1.27,7,.19,10.5-10.66,2-20.53,2.31-30.41,2.48Zm118.36-61.41c2.06,10,2.83,20.14,4.63,30.11,1.82,10.07,4.73,19.92,6.47,30.66-7.86,1.3-14.53,4.9-21.68,7.12-7.57,2.35-14.69,5.97-22.32,8.17-.95.27-1.86.72-3.33.36-2.49-6.66-4.9-13.63-7.68-20.44-2.73-6.69-5.85-13.21-9.04-20.36,2.79.13,5.19.16,7.57.4,1.07.1,1.72.98,1.81,2.08.09,1.16.15,2.33.09,3.49-.16,3.34.53,6.54,1.3,9.78.44,1.86,1.29,3.08,2.92,3.51,1.74.46,3.23-.15,4-2.04.76-1.85,2.18-2.88,4.23-2.95.5-.02,1.17.04,1.45-.25,4.65-4.78,11.9-7.46,11.9-15.96,0-4.25.87-8.53.81-12.82-.04-3.58-.8-6.92-4.47-8.68,2.11-2.9,12.92-9.1,21.34-12.18Zm-40.79,35.72c1.52-1.09,2.91-1.91,4.78-2.19,1.79,5.57-.87,10.56-2.06,15.77-1.75-4.4-1.58-9.12-2.72-13.58Zm9.17,5.94c.79-3.22.99-6.44.13-9.73-.5-1.9-.85-3.98,1.69-4.95.11-.1.21-.21.33-.29.04,0,.19.15.19.17-.08.13-.19.24-.28.35,1.08,1.42.98,3.1,1.08,4.76.22,3.68-.64,7.23-1.1,10.83-.15,1.17-.6,2.28-2.12,2.31-.15.14-.31.29-.46.44.14-.16.29-.32.43-.47-.24-1.15-.17-2.26.11-3.42Zm9.19-15.15c.13,3.68.52,7.52-1.31,11.1.28-5.27-1.32-10.2-2.78-15.52,3.2.28,4.03,2.71,4.09,4.42Zm-2.02-8.74c.51-1.1.56-2.23,2.07-2.5,1.99,1.03,2.24,2.77,1.54,5.23-1.85-.27-2.58-1.75-3.61-2.73Zm9.84-37.97c-2.44,7.39-4.76,14.81-7.25,22.18-3.14,9.3-8.21,17.58-13.9,25.5-.55.77-1.43,1.45-2.31,1.82-3.78,1.59-7.77,2.97-11.85,2.08-6.78-1.49-13.74-1.96-20.39-4.06-8.41-2.64-16.55-5.87-24.04-10.59-1.01-.64-.99-.67-2.12-3.11,1.62-1.31,3.64-.86,5.24-.52,4.45.97,8.92.47,13.37.76,7.14.48,14.3.38,21.4,1.78,3.34.66,6.95.87,10.64-1.71-2.01-2.98-.05-5.44,1-8.19,2.79-7.37,5.19-14.9,7.91-22.3,1.94-5.29,4.14-10.49,7.53-15.06,2.63-3.55,5.75-6.39,10.4-7,2.88-.37,4,.27,4.77,3.31,1.27,5.06,1.26,10.1-.4,15.11Z"/><path class="cls-1" d="m343.53,90.83c-.38,6.62-5.74,14.08-13.03,15.49-8.93,1.73-17.77,3.56-26.91,3.46-12.25-.12-24.34-1.4-36.22-4.5-2.7-.7-5.36-1.6-8.07-2.13-2.68-.52-3.87-2.23-4.06-4.36-.34-3.74-.35-7.44.41-11.29,2.1-10.62,8.25-18.77,15.01-26.59,5.29-6.1,10.61-12.13,13.79-19.68.23.09.45.18.68.26-.11-.21-.21-.43-.31-.64,5.56-8.89,5.8-18.85,5.83-28.85h8c1.21,3.52.88,7.22.65,10.76-.67,10.2,4.21,17.38,11.68,23.41,4.9,3.96,10.37,7.02,15.68,10.35,4.62,2.89,8.14,7.29,10.84,12.08,3.87,6.86,6.51,14.05,6.03,22.23Z"/><path class="cls-1" d="m404.65,512h4c-.03-.33-.06-.67-.1-1-.26-2.29-.73-4.6-.46-6.83,1.05-8.61.03-17.22.22-25.82.08-3.69-.78-4.43-4.76-4.83-2.65-.26-5.35-.04-7.97-.44-8.45-1.27-16.94-2.08-25.46-2.5-8.95-.44-17.92-.37-26.89-.58-3.4-.08-6.87-.83-10.18-.36-10.07,1.42-20.04-.59-30.06-.37-7.46.16-14.9-.43-22.35-.92-6.78-.45-13.63.05-20.4-.48-9.01-.7-18.03-.63-27.04-.99-13.36-.52-26.76.19-40.08,1.54-2.21.23-4.29-.21-6.43-.11-4.08.2-5.72,1.84-5.73,5.89-.01,5.15.08,10.29.04,15.44-.07,7.12-.22,14.24-.33,21.36-.01.33-.01.67-.02,1h4c0-.33-.01-.67-.01-1-.12-12.87-.23-25.73-.34-38.16,1.23-1.19,2.19-1.41,3.17-1.38,13.55.34,27.04-1.1,40.57-1.12,5.4-.01,10.8.51,16.2.78,1.54.07,2.49.75,2.67,2.35,1.35,12.09,5.4,23.36,10.43,34.34.47,1.02,1.01,2.05,1.21,3.19.07.32.1.66.1,1h30c.02-.33.05-.67.07-1,.21-3.08.42-6.12.03-9.26-.5-4.04-.12-8.19-.12-12.46,2.14-.73,4.04-.65,6.33-.06.71,5.13,1.78,10.3,1.98,15.51.08,2.14,1.24,4.14.95,6.27-.04.33-.12.66-.24,1h29c-.06-.34-.1-.67-.11-1-.19-3.2,1.65-6.03,2.15-9.13.66-4.2,2.18-8.27,3.43-12.75,8.46,1.49,16.66.88,23.95-4.14,1.23,1.28.81,2.68.76,3.93-.32,7.36.61,14.79-.96,22.09-.06.34-.14.67-.22,1h5c-.01-.34-.02-.67-.02-1-.08-5.26.86-10.47.64-15.76-.24-5.88-.04-11.78-.13-17.67-.01-.85-.13-1.62.93-2.66,8.23-.6,16.72.67,25.17,1.69,1.2,4.76-.34,8.97-.17,13.24.28,6.92-.6,13.88.16,20.82.01.11-.01.22-.05.34-.11.32-.37.66-.53,1h5c-.07-.33-.12-.67-.17-1-.35-2.44-.25-4.91-.23-7.37.07-7.95.13-15.9.19-23.86.01-.81-.16-1.66.54-2.51,4.02,1,8.34-.56,12.83,1.16.18,10.85.22,21.71-.13,32.58-.01.33-.02.67-.03,1Zm-110.06-28.66c-.24.27-.45.7-.69.72-5.29.53-5.33.53-6.09-4.6-.3-1.95-.4-3.93-.63-6.39,1.09-.07,1.72-.12,2.36-.14,4.05-.14,5.29.8,4.96,4.65-.18,1.99.9,3.89.09,5.76Zm53.43,1.24c-5.12,1.49-10.14,2.26-16.03.6,2.04-2.78,1.36-5.47,1.82-8,.44-2.45,1.33-3.07,3.37-3.2,2.29-.14,4.55.23,6.87.14,4.17-.15,8.37.28,13.56.51-2.85,4.59-4.71,8.54-9.59,9.95Z"/><path class="cls-1" d="m123.65,512c.71-4.07-.39-8.06-1.04-11.96-.51-3.04-1.23-6.15-1.55-9.19-1.56-14.9-3-29.83-4.03-44.78-.55-8.03-3.4-29.08-3-37.14,2.96-.93,3.21-.88,3.35,1.28.39,6.28,2.72,25.57,3.01,31.85.53,11.66,1.56,23.28,2.56,34.91.68,7.91,2.18,15.71,2.58,23.65.19,3.78,1.2,7.53,1.12,11.37h-3Z"/><path class="cls-1" d="m618.17,223.71c-.55-7.37-.77-14.74-1.17-22.11-.32-6.04-.27-12.09-.6-18.13-.27-4.89-1.59-5.84-6.69-5.36-2.45.23-4.89.66-7.35.79-4.41.24-8.76,1.62-13.37.98-.74-1.67-.34-2.8-.22-3.95.68-6.53,1.31-13.05.67-19.63-.4-4.12-1.37-5.1-5.61-5.14-.84-.01-1.68-.04-2.5.07-7.91,1.08-15.58-1.31-23.29-1.19-.87-1.8-.46-3.3-.49-4.76-.07-2.66.02-5.34-.3-7.98-.34-2.87-1.88-4.22-4.16-3.89-8.92,1.3-17.85.72-26.81.48-2.47-.07-5.27-.53-7.56.63-.73.9-.8,1.74-.78,2.56.15,5.32-1.02,10.54-1.33,15.83-.23,3.94-.79,7.9-.7,11.86.11,4.71,2.28,6.77,7.06,7.1,2.59.18,5.15.43,7.92,1.22-.58,5.48-1.17,10.71-1.68,15.95-.49,5.21-.85,10.46-.38,15.68.39,4.26,2.02,5.71,6.43,6.07,6.59.52,13.17,1.36,19.81.86,1.5-.11,2.95,0,4.32.51-.43,7.49-1.72,14.84-1.58,22.3.04,2.16.03,4.35-.31,6.47-1.11,6.92-.8,13.9-.51,20.82.27,6.56,3.86,8.52,8.6,9.03,7.08.76,14.12,1.77,21.21,2.49,8.95.91,17.71-.04,26.48-1.52,2.21-.37,3.52-1.82,3.86-3.93.42-2.6.73-5.24.82-7.87.18-5.82.23-11.65.28-17.48.05-6.25.4-12.54-.07-18.76Zm-90.69-57.18c-1.76-.36-3.58-.4-6.02-.65-.34-8.14.41-18.96,1.19-26.88,4.85-.73,9.18,1.28,14,0,4.76-1.27,10,0,14.55.25.9.99,1.5,2.06,1.19,3.24-.99,3.79-.31,7.61-.45,11.41-.11,2.83-.61,5.6-.84,8.38-.25,3.13-1.92,4.02-4.39,4.32-6.4.78-12.81,1.25-19.23-.07Zm29.93,39.43c-4.04.4-8.19-.31-12.29-.5-2.47-.12-4.95-.14-7.42-.27-3.24-.17-4.11-.93-4.21-4.21-.1-3.82-.32-7.69.21-11.45.63-4.48.6-8.93.74-13.41.02-.81.18-1.62.34-2.89,4.13-.88,8.05.09,11.72-1.2.92-.32,1.96-.3,2.91-.55,6.32-1.64,5.51-1.84,6.88-8.1.52-2.37.25-4.92,1.4-7.34,2.04-.72,4.36-.37,6.27.11,4.09,1.03,8.3.21,12.36,1.39,1.4.4,3.15-.44,4.75-.64,2.2-.28,3.2.33,3.46,2.49.22,1.79.17,3.64,0,5.44-.85,8.97-1.85,17.93-3.46,26.82-.73,4.04-.96,8.18-2.31,11.89-2.66,1.53-5.32,1.66-7.97,1.71-4.47.09-8.91.26-13.38.71Zm54.25,59.5c-7.44,4.35-39.37,2.02-48.77-1.87-1.34-8.19-.34-42.07,1.05-51.49,4.65-.27,9.24-1.55,14.02-1.65,3.94-.07,5.7-1.48,6.47-5.33.88-4.36,1.65-8.77,2.11-13.19.23-2.17,1.01-4.12,1.27-6.51,4.04.96,7.69-.73,11.49-.57,3.78.17,7.47-1.57,11.87-.7.47,27.18,3.15,54.21.49,81.31Z"/><path class="cls-1" d="m122.96,212.27c-.39-3.22-2.12-4.97-5.4-5.06-5.59-.15-11.17.06-16.66,1.45-.99-3.92.35-7.17,1.02-10.88,3.12,0,6.09.09,9.05-.02,4.26-.16,5.94-1.55,6.89-5.68.6-2.59,1.14-5.2,1.46-7.84.93-7.55,1.64-15.14,2.64-22.69.23-1.69-.27-2.85-1.29-4.41-4.78.25-9.67-.24-14.63.81-3.68.78-7.48,1.52-11.34,1.31-2.99-.16-5.97.22-8.88.83-2.77.58-5.45.86-8.25-.88-3.05,8.32-.47,16.76-2.34,25.2-1.79-1.29-3.75.21-5.5-1.34-.09-.97-.14-2.11-.31-3.24-.9-6.12-8.58-12.51-15.02-10.04-4.26,1.63-6.57,4.82-8.24,8.69-.71,1.65-.84,3.53-1.87,5.09-5.12.2-10.16.39-15.2.6-3.86.16-5.9,1.88-6.19,5.67-.46,6.04-.83,12.09-1.01,18.14-.28,8.95.95,17.81,1.87,26.7.81,7.86.87,15.8,1.02,23.71.07,3.36.58,6.61,1.19,9.86s3.3,4.76,5.77,2.82c1.98-1.55,3.97-1.59,5.98-1.42,2.02.18,4.02.07,5.96-.13,9.01-.94,18.04-1.12,27.09-1.24,5.34-.07,10.69-.29,16.03-.44,2.84-.08,5.62-.84,6.37-3.76.77-2.97,2.09-5.76,2.38-8.92.35-3.88,1.38-7.7,2.25-12.2,2.2,2.44,4.52.8,6.7,1.24,3.74.76,7.56.67,11.36.58,4.18-.1,4.92-1.06,5.7-5.19,1.1-5.86.5-11.81,1.29-17.69.43-3.17.5-6.4.11-9.63Zm-42.73-48.08c12.18-1.19,23.93-2.33,35.75-3.49.83,2.03.91,3.29.56,4.63-1.43,5.59-2.25,11.26-2.44,17.03-.05,1.48-.29,2.99-.72,4.4-.53,1.71-.24,3.74-1.76,5.07-1.42,1.24-3.16.46-4.75.57-1.16.08-2.18.99-3.97.12.31.24-.14.06-.16-.15-.37-4.38-2.5-6.74-7.04-7.54-3.77-.66-7.52-.84-11.27-.85-1.63-.01-2.82-.45-4.41-1.07.96-6.23-.81-12.42.21-18.72Zm-24.47,9.74c1.61.53,2.64,1.59,4.12,2.05,2.96.9,4.55,3.96,3.84,7-.61,2.57-1.78,4.96-3.79,6.8-2.79,2.56-7.32,1.6-8.51-1.92-1.59-4.66-1.88-10.37,4.34-13.93Zm39.91,23.76c-1.05,5.52-.95,11.13-1.79,16.65-.65,4.24-1.23,8.5-1.67,12.78-.52,5.11-.82,10.24-1.31,15.36-.5,5.27-1.13,10.53-1.64,15.8-.22,2.31-1.34,3.58-3.66,3.98-2.12.37-4.22.99-6.4.82-6.62-.52-13.24,0-19.83.26-7.42.29-14.81,1.32-22.21,2-.98.09-1.99-.04-2.96.1-2.1.28-2.9-.58-3.17-2.68-.36-2.8-.61-5.58-.64-8.41-.1-9.54-.87-19.03-1.79-28.53-.68-7.06-1.82-14.13-1.15-21.28.39-4.04.73-8.07.13-12.15-.34-2.35.4-2.89,3.02-3.64,4.67-1.36,9.48-.63,14.27-1.29,1.15,1.76,2.16,3.45,3.3,5.05,4.05,5.68,11.99,5.71,16.42,1.02,1.66-1.77,3.47-3.51,4.28-5.9,3.06.45,6.25-.64,8.3,2.17,6.62-2.86,12.91-1.36,18.98.24,1.56,2.97-.04,5.35-.48,7.65Zm20.08,40.79c-6.42.01-12.18-.97-17.96,1.15.65-9.43,1.81-18.6,2.92-27.99,5.66.46,11.1-.52,16.54.42.48,8.87-1.74,17.42-1.5,26.42Z"/><path class="cls-1" d="m613.63,144.26c-1.35-.32-2.67-.86-4.31-.36-2.69.83-5.56,1.28-7.23,3.75-2.29,3.4-4.14,7.06-4.66,11.18.8,1.87.47,3.91,1.31,5.81,1.92,4.34,5.59,6.24,9.67,7.8,6.44,2.47,14.64-.1,18.22-5.92.76-1.23,1.52-2.72,1.53-4.1.04-7.2-7.42-16.49-14.53-18.16Zm6,21.79c-2.44,2.24-7.7,2.69-10.73,1.08-.87-.47-1.77-.89-2.62-1.39-2.68-1.56-4.04-3.85-3.83-6.99-.21-2.06.66-3.94,1.32-5.76.65-1.79,1.6-3.79,4.41-2.65.75.31,1.88-.42,2.86-.52,2.85-.3,5.19.79,7.06,2.89,1.92,2.16,2.94,4.82,3.62,7.54.57,2.25-.44,4.28-2.09,5.8Z"/><path class="cls-1" d="m520.29,190.92c-.97-4.8-4.51-8.2-8.96-8.6-1.2-.11-2.3.14-3.28.85-3.43,2.52-6.08,5.48-5.92,10.07-.12,7.32,5,10.76,11.57,7.75.28-.13.55-.27.83-.4,4.29-2.01,6.54-5.78,5.76-9.67Zm-6.9,4.79c-1.4,1.28-3.32,2.16-5.01,1.26-3.67-1.96-1.88-7.38.93-9.26.9-.6,2.47-1.23,3.44-.41.6.51.87,1.81,1.2,2.51.97,2.05,1.25,4.25-.56,5.9Z"/><path class="cls-1" d="m186.73,366.96s-.06.07-.08.1c-.35.4-.7.66-1.03,0-.02-.03-.03-.07-.05-.11h.19c.26,0,.54,0,.81,0h.16Z"/><path class="cls-1" d="m94.03,348.17c6.97-2.29,12.99-5.29,18.85-8.62,3.06-1.74,5.53-4.18,7.8-6.82,1.09-1.27,2.24-2.46,3.63-3.38.78-.51,1.58-.36,2.23.35.51.56.57,1.16.2,1.82-.24.44-.35.98-.67,1.33-5.47,6.02-11.04,11.88-19.19,14.34-1.89.57-3.82,1.13-5.45,2.35-1.42,1.07-3.14.94-4.76,1.16-1.56.21-1.84-1.07-2.63-2.51Z"/><path class="cls-1" d="m248.68,374.06c.68-3.55,3.29-5.59,4.91-8.16-1.31-1.41-2.21-1.87-3.85-.44-2.33,2.05-3.42,4.83-5.23,7.45-1.17-.24-1.97-.48-2.78-.54-4.24-.29-7.86,1.81-9.58,5.51-1.85,3.98-1.49,7.22,1.87,10.39,6.44,6.06,15.06,3.93,17.6-2.13,1.95-4.62,1.32-9.06-2.94-12.08Zm-6.1,13c-2.92.14-5.04-1.42-6.85-3.33-1.57-1.67-.41-5.02,1.85-5.61,1.43-.37,2.95-.34,3.96-.44.81.05,1.14.07,1.48.09,3.35.14,4.64,1.16,4.72,3.74.1,2.85-2.36,5.41-5.16,5.55Z"/><path class="cls-1" d="m318.26,370.76c-1.84.03-3.24-.92-3.29-2.21-.06-1.56,1.9-3.41,3.59-3.39,1.71.01,2.74,1.02,2.81,2.75.07,1.98-.84,2.82-3.11,2.86Z"/><path class="cls-1" d="m318.34,346.65c.54-1.27,1.4-2.2,2.79-2.47,1.22-.24,2.29.04,2.91,1.22.59,1.12.53,2.3-.47,3.08-.96.75-1.96,1.87-3.46.97-1.06-.64-1.48-1.68-1.78-2.8Z"/><path class="cls-1" d="m316.18,384.68c2.21.88,2.86,2.15,1.72,4-.73,1.19-1.92,1.3-3.06.82-1.16-.49-.99-1.66-.75-2.59.25-.98,1.02-1.68,2.09-2.23Z"/><path class="cls-1" d="m188.37,212.1c2.04.65,1.82,2.18,2.22,3.39,1.81,5.49,4.77,7.35,10.52,6.61,1.31-.17,2.59-.6,3.89-.81.84-.14,1.69.03,2.14.88.58,1.08-.05,1.91-.67,2.7-.2.25-.47.49-.75.64-6.47,3.36-14.58.89-18.13-5.5-1.24-2.24-.98-5.24.77-7.91Z"/><path class="cls-1" d="m213.91,193.65c1.36.39,2.14,1.24,1.71,2.27-1.95,4.71-1.92,10.08-4.99,14.43-2.43,3.44-4.17,4.02-8.32,2.23-.22-1.65,1-2.44,2.15-2.88,3.43-1.31,4.48-4.29,5.17-7.35.75-3.33,2.48-6.03,4.27-8.7Z"/><path class="cls-1" d="m216.44,211.65c-1.41-.81-1.86-1.68-2.31-2.55.43-2.26,1.97-3.75,3.52-5.23.73-.69,1.52-1.26,2.52-1.52,2.57-.66,3.86.57,3.34,3.15-.42,2.1-1.72,3.54-3.49,4.55-1.13.64-2.38,1.07-3.58,1.59Z"/><path class="cls-1" d="m203.12,197.02c-.34,3.39-2.71,4.91-5.09,6.37-.88.54-1.92.45-2.75-.27-.93-.8-1.48-1.85-1.06-3.04.75-2.09,2.33-3.43,4.31-4.38,1.8-.86,3.16-.26,4.59,1.33Z"/><path class="cls-1" d="m303.28,290.97c-2.24-1.06-.72-4.52,1.59-3.63.01,0,.03.01.04.02,2.74,1.08,5.56.91,8.35,1.01,3.76.13,9.24.3,11.39-2.36.72-.89-.89-2.95-.45-4.28.14-.42.49-1.27.94-1.1,3.51,1.38,4.46,5.16,2.51,10.38-2,0-1-2-5,0-4.03,2.18-9,1-13.95,1.13-1.77-.44-3.73-.37-5.42-1.17Z"/><path class="cls-1" d="m313.36,280.68c-6.59-2.36-8.2-9.15-3.33-13.51,1.72-1.54,3.58-2.92,5.14-4.64.62-.68,1.56-.59,2.27-.05.74.57.61,1.29.38,2.2-.49,1.98-2.28,2.78-3.44,4.12-3.14,3.63-3.31,4.06-.87,8.1.74,1.22,1.35,2.32-.15,3.78Z"/><path class="cls-1" d="m307.34,263.85c.1,2.97-2.7,5.99-5.24,6.06-2.1.06-3.28-1.55-2.74-3.59.5-1.87,1.82-3.09,3.12-4.37.97-.95,2.17-.89,3.26-.52,1.23.42,1.55,1.6,1.6,2.42Z"/><path class="cls-1" d="m323.94,273.96c-1.94-.08-3.28-2.01-2.68-3.61.51-1.38,1.19-2.74,2.02-3.96,1.08-1.6,2.85-1.88,4.38-.93,1.76,1.09,2.16,2.81.8,4.69-1.23,1.7-2.27,3.8-4.52,3.81Z"/><path class="cls-1" d="m355.11,290.28c-3.37,1.27-6.1,3.37-8.78,5.53-1.35,1.1-2.35.83-3.43-.81,2.39-2.98,4.79-6.03,8.73-7.35,1.91-.64,3.21-.29,3.47,2.63Z"/><path class="cls-1" d="m474.23,253.6c.4,2.4-.41,4.64-2.05,6.59-1.39,1.65-2.94,3.16-4.4,4.75-2.8,3.06-2.92,3.86-.35,7.21,1.04,1.36,1.68,2.44.34,3.86-5.49-1.74-7.27-3.91-6.9-8.44.22-2.69,1.94-4.71,3.75-6.28,2.64-2.28,5.37-4.36,7.12-7.49.4-.71,1.33-.94,2.48-.22Z"/><path class="cls-1" d="m456.81,276.5c1.44.29,2.07,1.24,2.84,2.12,3.71,4.25,7.49,5.15,12.74,3.17,1.85-.7,3.67-1.53,5.58-2.02.88-.23,2.03.13,2.3,1.32.2.9-.29,1.6-1.07,2.05-4.06,2.36-8.29,4.09-13.13,3.62-4.77-.46-7.77-3.36-9.96-7.3-.5-.9-.44-1.94.7-2.96Z"/><path class="cls-1" d="m506.36,298.94c0-2.24,2.01-3.78,1.1-5.98-1.14.13-2.45.91-3.3-.49-.8-1.32-.31-2.58.58-3.63,2.16-2.59,5.12-3.46,8.33-3.64,2.26-.13,4.66-.47,6,2.08-.99,2.14-2.89,1.34-4.41,1.51-1.47.17-3-.03-4.1,1.58,1.42,2.81,1.38,5.74-.67,8.41-.89,1.16-2.09,1.63-3.53.15Z"/><path class="cls-1" d="m485.73,257.3c.93.1,1.82.56,2.4,1.4.89,1.28.37,3.73-1.09,5.39-1.17,1.32-2.59,2.02-4.36,1.33-.77-.3-1.42-.8-1.7-1.69-.83-2.62,1.87-6.41,4.75-6.44Z"/><path class="cls-1" d="m467.42,253.25c.05,1.79-2.37,5.14-4.12,5.67-.86.26-1.77.08-2.22-.65-.58-.92-1.42-1.83-.83-3.17.76-1.73,1.87-3.12,3.5-4.06,1.86-1.07,3.62,0,3.68,2.2Z"/><path class="cls-1" d="m414.19,300.17c1.22-.11,2.38,1.14,2.46,2.64.12,2.39-1.84,4.94-3.88,5.05-1.59.09-2.7-1.03-2.78-2.81-.09-1.85,2.38-4.72,4.2-4.89Z"/><path class="cls-1" d="m410.11,334.37c.22-1.33.87-2.27,1.55-3.22.99-1.39,2.15-1.93,3.8-1.09,1.31.66,2.16,1.53,1.8,3.1-.45,1.97-2.11,3.56-3.69,3.43-1.36-.11-2.52-.72-3.45-2.21Z"/><path class="cls-1" d="m416.2,279.54c.09,1.51-2.05,3.97-3.52,4.16-1.62.21-2.06-1.07-2.23-2.08-.32-1.83,1.54-4.26,3.04-4.39,1.24-.11,2.64,1.09,2.71,2.31Z"/><path class="cls-1" d="m529.71,421.11c.02-2.47.11-4.87-.45-7.39-1.03-4.63-1.27-9.42-2.09-14.11-.27-1.55.88-2.44.69-3.74,1.66-.16,2.26.44,2.47,1.85.97,6.5,1.99,13,3.11,19.47.73,4.21,1.66,8.39,2.5,12.58-1.62,1.85-2.93.66-3.54-.64-.67-1.42-1.18-3-1.28-4.69-.07-1.23-.03-2.74-1.49-3.48l.08.14Z"/><path class="cls-1" d="m529.62,420.97c-1.12,1.78-.19,3.55.07,5.3.36,2.43.84,4.84,1.27,7.28-2.81.22-3.37-.04-3.84-2.36-.85-4.21-1.57-8.44-2.31-12.66-.32-1.79-.63-3.59-.83-5.39-.11-.94.47-1.62,1.39-1.75.95-.13,1.6.49,1.81,1.35.49,2.08.91,4.18,1.3,6.28.16.87.52,1.56,1.22,2.08l-.08-.14Z"/><path class="cls-1" d="m416.02,197.56c1.89.03,2.93,1.45,4.27,2.35,3.37,2.27,7.02,3.58,11.18,3.19,1.32-.12,2.64.05,3.72-.98.76-.73,1.74-.91,2.76-.94,1.07-.03,2.03.24,2.39,1.35.37,1.12-.27,1.69-1.19,2.36-4.74,3.43-9.86,3.67-15.02,1.53-3.29-1.36-6.82-2.65-8.58-6.33-.56-1.18-.35-1.81.46-2.54Z"/><path class="cls-1" d="m385.68,175c.26-.42.5-.87.79-1.27,3.1-4.31,3.11-5.05.16-9.59-.53-.82-1.01-1.67-1.52-2.51,1.86-2.07,3.82-1.09,4.73.36,2.36,3.76,4.64,7.7,3.54,12.53-.23,1.01-.87,1.31-1.74,1.42l.1.12c-.38-.67-.76-1.02-1.15,0l.07-.1c-1.16-.31-1.83.48-2.6,1.11-1.48,1.22-1.98.17-2.39-1.06l-.04.04c.25-.11.68-.17.73-.34.16-.57-.28-.69-.74-.73l.06.05Z"/><path class="cls-1" d="m391.63,175.93c-.32.52-.65.29-.98,0,0,0-.07.1-.07.1.38,0,.76,0,1.15,0l-.1-.12Z"/><path class="cls-1" d="m385.67,175.99c0-.33,0-.66,0-.99l-.06-.05c0,.36,0,.72,0,1.07l.04-.04Z"/><path class="cls-1" d="m423.84,151.18c.55-.03.9-.33,1.13-.81,4.22-.32,8.36-1.34,12.7-.16,3.64.99,6.04,3.2,8.05,6.08.78,1.12.67,1.2-.56,4.03-1.17.13-1.75-.81-2.35-1.49-4.05-4.6-9.15-6.03-15.06-5.19-.65.09-1.32.09-1.98.14-2.02.16-2.02-1.19-1.94-2.6Z"/><path class="cls-1" d="m183.92,353.59c.92,1.27,2.09,2.4.34,3.8-.64.51-1.42.3-1.78-.23-1.25-1.79.14-2.62,1.44-3.57Z"/><path class="cls-1" d="m188.82,357.5c.6-.06,1.1.13,1.26.61.38,1.19-.62,1.33-1.38,1.55-.5.15-1.07-.03-1.23-.56-.35-1.19.75-1.24,1.35-1.61Z"/><path class="cls-1" d="m201.34,336.99c-.25,1.04-.84,1.76-1.99,1.58-1.11-.18-1.64-1.08-1.59-2.1.06-1.18.98-1.54,2.05-1.47,1.23.08,1.6.86,1.53,1.99Z"/><path class="cls-1" d="m202.61,342.03c.5-.58,1.12-.87,1.61-.13.51.77.27,1.57-.44,2.19-.45.39-.89.3-1.26-.08-.71-.73-.7-1.43.16-2.05.09.24.17.48.26.72.13-.13.25-.25.38-.38-.23-.09-.47-.18-.7-.28Z"/><path class="cls-1" d="m604.48,241.45c-1.68,3.12-4.77,2.63-7.15,3.13-8.16,1.73-16.41.33-24.63.06-1.43-.05-2.26-.7-2.34-1.97-.1-1.66,1.14-2.31,2.58-2.27,3.08.09,6.13,1.4,9.22.14,5.63,1.44,11.19-.5,16.79-.32,1.76.06,3.66-.59,5.52,1.23Z"/><path class="cls-1" d="m604.41,213.58c.28,1.07.49,1.87.69,2.63-.31.24-.53.55-.79.58-8.12,1.08-16.37.6-24.48,1.89-1.61.26-3.32.13-4.96-.03-1.63-.16-3.32-.47-3.79-2.5,3.64-1.85,24.78-3.51,33.34-2.58Z"/><path class="cls-1" d="m604.98,228.35c-.48.73-1.21,1.12-2.05,1.21-9.56,1.07-19.14,1.55-28.76,1.21-1.74-.06-2.8-.69-2.9-2.8,2.87-1.34,6.06-1.24,9.04-1.41,7.08-.4,14.19-.25,21.28-.35,1.63-.02,3.01.23,3.4,2.13Z"/><path class="cls-1" d="m600.59,255.99c-.64,1.42-2.04,1.67-3.3,1.88-4.34.73-8.66,1.59-13.13,1.3-2.59-.17-5.24.03-7.83.37-2.19.29-3.88-.06-5.21-2.13,1.89-1.83,4.22-1.97,6.49-2.08,2.81-.13,5.64-.07,8.46-.11,3.63-.04,7.27.21,10.85-.81,1.14-.33,2.63-.71,3.65.61l.11-.1c-.7.38-.59.76,0,1.14l-.09-.08Z"/><path class="cls-1" d="m600.59,255.02c.12.23.27.45.35.69.02.05-.22.18-.34.27l.09.08c0-.38,0-.76,0-1.14,0,0-.11.1-.11.1Z"/><path class="cls-1" d="m550.45,186.5c-1.28.69-2.82.47-4.24.37-1.71-.12-3.36-1.62-3.03-3.15.45-2.1,0-5.69,2.35-6.71.5-.22,1.26-.57,1.78-.24.39.25.71.87.83,1.31.15.59.09,1.22.02,1.82-.03.25-.1,1.82-.28,1.92,4.75-2.64,7.98-6.53,12.1-9.2,3.18-2.06,5.69-5.03,9.22-6.62,1.24-.56,2.23-.66,3.02.55.69,1.05.08,1.96-.62,2.65-2.24,2.2-4.84,3.97-7.2,6.06-2.24,1.99-4.58,3.87-6.94,5.72-1.19.94-2.4,1.86-3.59,2.8-.58.45-1.19.88-1.75,1.35-.51.43-.92.94-1.51,1.3-.05.03-.1.06-.15.09Z"/><path class="cls-1" d="m551.51,189.21c.34-.24.73-.4,1.12-.4.99-.02,1.13,1.36,1.07,2.09-.09.99-.04,2.01.85,3,2.04.03,3.39-1.37,4.82-2.72,3.85-3.64,7.61-7.41,12.48-9.75.73-.35,1.51-.61,2.44-.98,1.26,1.71,1.11,3.2-.4,4.34-5.43,4.1-9.87,9.38-15.69,13-2,1.24-3.97,2.88-6.34,1.3-2.2-1.48-2.14-3.94-1.86-6.32.08-.68.18-1.39.39-2.05.17-.54.6-1.12,1.14-1.5Z"/><path class="cls-1" d="m107.17,167.82c.22,1.77-.32,2.56-1.17,2.54-5.88-.17-11.57,1.95-17.47,1.38-.82-.08-1.66.07-2.47-.06-.4-.07-.87-.46-1.08-.83-.38-.67,0-1.27.53-1.71.37-.31.79-.72,1.23-.78,6.78-.8,13.56-1.88,20.42-.54Z"/><path class="cls-1" d="m82.54,208.82c.45,1.77-.65,2.56-2.4,2.54-12.03-.17-23.67,1.95-35.75,1.38-1.67-.08-3.4.07-5.05-.06-.83-.07-1.77-.46-2.21-.83-.78-.67,0-1.27,1.09-1.71.76-.31,1.63-.72,2.52-.78,13.87-.8,27.75-1.88,41.79-.54Z"/><path class="cls-1" d="m82.54,217.82c.45,1.77-.65,2.56-2.4,2.54-12.03-.17-23.67,1.95-35.75,1.38-1.67-.08-3.4.07-5.05-.06-.83-.07-1.77-.46-2.21-.83-.78-.67,0-1.27,1.09-1.71.76-.31,1.63-.72,2.52-.78,13.87-.8,27.75-1.88,41.79-.54Z"/><path class="cls-1" d="m82.54,226.82c.45,1.77-.65,2.56-2.4,2.54-12.03-.17-23.67,1.95-35.75,1.38-1.67-.08-3.4.07-5.05-.06-.83-.07-1.77-.46-2.21-.83-.78-.67,0-1.27,1.09-1.71.76-.31,1.63-.72,2.52-.78,13.87-.8,27.75-1.88,41.79-.54Z"/><path class="cls-1" d="m82.54,235.82c.45,1.77-.65,2.56-2.4,2.54-12.03-.17-23.67,1.95-35.75,1.38-1.67-.08-3.4.07-5.05-.06-.83-.07-1.77-.46-2.21-.83-.78-.67,0-1.27,1.09-1.71.76-.31,1.63-.72,2.52-.78,13.87-.8,27.75-1.88,41.79-.54Z"/><path class="cls-1" d="m88.12,174.57c4.16-.6,8,0,11.76-.87,1.33-.31,2.59.37,2.51,2.46-3.78,1.07-7.61,1.73-11.59,1.58-1.95-.07-2.58-1.1-2.68-3.17Z"/></svg>